<svg width="566" height="158" viewBox="0 0 566 158" fill="none" xmlns="http://www.w3.org/2000/svg">
<rect width="566" height="158" fill="#F4F4F4"/>
<path fill-rule="evenodd" clip-rule="evenodd" d="M147.463 83.7298L160.332 70.8613L188.516 99.0453L192.6 94.961L164.416 66.7771L177.234 53.9592L177.294 53.8987L205.478 82.0829L209.563 77.9986L177.295 45.731L142.492 80.5335C142.775 81.1452 142.934 81.8262 142.934 82.5447C142.934 85.1936 140.786 87.3413 138.137 87.3416C135.488 87.3413 133.34 85.1936 133.34 82.5447C133.34 79.8954 135.488 77.7476 138.137 77.7476C138.855 77.7476 139.536 77.9061 140.148 78.1891L179.337 39C192.903 52.5661 206.469 66.1326 220.035 79.6986L207.178 92.5556L178.959 64.3367L174.854 68.4421L203.073 96.661L190.216 109.518L161.997 81.2992L157.901 85.3948L186.12 113.614L181.734 118L147.463 83.7298Z" fill="url(#paint0_linear)"/>
<path d="M247.486 101.858V77.1091L244.185 101.858H239.679L236.323 76.9971V101.858H232.164V61.7671H238.293L242.014 89.7633L245.626 61.7671H251.645V101.858H247.486Z" fill="#4A4944"/>
<path d="M270.671 61.7671H266.266L261.532 85.9559V61.7671H257.373V101.858H261.779L266.512 76.9411V101.858H270.671V61.7671Z" fill="#4A4944"/>
<path d="M281.598 82.4841L280.777 82.4281V101.858H276.29V61.7669H280.777V78.3409H281.598L284.663 61.7669H289.205L285.264 80.1324L289.731 101.858H284.97L281.598 82.4841Z" fill="#4A4944"/>
<path d="M300.03 61.5433C301.781 61.5433 303.159 61.7486 304.162 62.1591C305.165 62.5696 305.904 63.2137 306.378 64.0908C306.852 64.9681 307.144 66.1066 307.254 67.5064C307.363 68.9062 307.418 70.5766 307.418 72.5177C307.418 74.4214 307.363 76.1386 307.254 77.6689C307.144 79.1994 306.861 80.4967 306.405 81.5605C305.949 82.6242 305.265 83.4361 304.353 83.9961C303.441 84.5561 302.164 84.8359 300.523 84.8359H299.1V101.858H294.667V62.0471C297.112 61.7112 298.899 61.5433 300.03 61.5433ZM300.304 65.9106C300.121 65.9106 299.921 65.92 299.702 65.9385C299.483 65.9573 299.282 65.9853 299.1 66.0227V80.4128H300.03C301.27 80.4128 302.055 79.7221 302.383 78.3409C302.712 76.9597 302.876 75.112 302.876 72.7977C302.876 70.4459 302.721 68.7103 302.41 67.5904C302.1 66.4706 301.398 65.9106 300.304 65.9106Z" fill="#4A4944"/>
<path d="M343.39 61.7671V66.1906H339.121V101.858H334.743V66.1906H330.365V61.7671H343.39Z" fill="#4A4944"/>
<path d="M358.749 61.7669V66.1904H352.62V78.0065H357.381V82.5419H352.62V97.4342H358.804V101.858H348.187V61.7669H358.749Z" fill="#4A4944"/>
<path d="M368.417 61.7669V77.9418H372.412V61.7669H376.79V101.858H372.412V82.4772H368.417V101.858H363.929V61.7669H368.417Z" fill="#4A4944"/>
<path d="M390.453 67.6492C390.453 66.0574 389.851 65.2616 388.647 65.2616C387.479 65.2616 386.896 66.0574 386.896 67.6492V73.4241H382.353V69.7594C382.353 68.6857 382.39 67.6401 382.463 66.6219C382.536 65.6041 382.764 64.7062 383.147 63.9289C383.53 63.1515 384.15 62.5222 385.007 62.0409C385.865 61.5596 387.078 61.319 388.647 61.319C390.215 61.319 391.438 61.5596 392.313 62.0409C393.189 62.5222 393.818 63.1329 394.201 63.8734C394.584 64.6137 394.812 65.4651 394.885 66.4277C394.958 67.3903 394.995 68.334 394.995 69.2597V74.035C394.995 75.7882 394.185 78.2857 392.587 79.1589C393.316 79.6771 393.882 80.2417 394.283 80.8524C394.684 81.4631 394.977 82.1575 395.159 82.9348C395.341 83.7119 395.451 84.5731 395.487 85.5169C395.523 86.4609 395.542 88.8428 395.542 90.0272V94.0807C395.542 99.2634 393.353 101.855 388.975 101.855C384.414 101.855 382.135 99.2634 382.135 94.0807V88.9166H386.513V93.581C386.513 95.2467 386.686 96.3111 387.032 96.7738C387.379 97.2365 387.99 97.4678 388.865 97.4678C389.814 97.4678 390.434 97.2088 390.726 96.6906C391.018 96.1723 391.164 95.1356 391.164 93.581V89.0277C391.164 87.2507 390.991 84.5358 390.644 83.5179C390.297 82.5 389.577 81.9907 388.482 81.9907H385.692V77.7152H388.647C389.851 77.7152 390.453 76.7896 390.453 74.9387V67.6492Z" fill="#4A4944"/>
<path d="M407.234 61.2076C411.466 61.2076 413.582 63.7779 413.582 68.9186V94.2705C413.582 99.4484 411.484 102.037 407.289 102.037C403.057 102.037 400.941 99.4667 400.941 94.326V68.9741C400.941 63.7962 403.039 61.2076 407.234 61.2076ZM407.234 65.59C406.614 65.59 406.14 65.8213 405.811 66.2835C405.483 66.7458 405.319 67.8091 405.319 69.4733V93.7713C405.319 95.4355 405.492 96.4988 405.839 96.9611C406.185 97.4233 406.669 97.6546 407.289 97.6546C407.909 97.6546 408.383 97.4233 408.712 96.9611C409.04 96.4988 409.204 95.4355 409.204 93.7713V69.4733C409.204 67.8091 409.031 66.7458 408.684 66.2835C408.338 65.8213 407.854 65.59 407.234 65.59Z" fill="#4A4944"/>
<path d="M424.564 61.5433C426.315 61.5433 427.692 61.7486 428.695 62.1591C429.699 62.5696 430.437 63.2137 430.911 64.0908C431.386 64.9681 431.678 66.1066 431.787 67.5064C431.896 68.9062 431.951 70.5766 431.951 72.5177C431.951 74.4214 431.896 76.1386 431.787 77.6689C431.678 79.1994 431.395 80.4967 430.939 81.5605C430.483 82.6242 429.799 83.4361 428.887 83.9961C427.975 84.5561 426.698 84.8359 425.056 84.8359H423.633V101.858H419.201V62.0471C421.645 61.7112 423.433 61.5433 424.564 61.5433ZM424.837 65.9106C424.655 65.9106 424.454 65.92 424.235 65.9385C424.016 65.9573 423.816 65.9853 423.633 66.0227V80.4128H424.564C425.804 80.4128 426.588 79.7221 426.917 78.3409C427.245 76.9597 427.409 75.112 427.409 72.7977C427.409 70.4459 427.254 68.7103 426.944 67.5904C426.634 66.4706 425.932 65.9106 424.837 65.9106Z" fill="#4A4944"/>
<path fill-rule="evenodd" clip-rule="evenodd" d="M237.347 44.4806H231.893V45.83H233.806V51.325H235.444V45.83H237.347V44.4806ZM356.582 42.0656H355.434C355.376 42.4079 355.081 42.711 354.669 42.711C354.267 42.711 353.963 42.4079 353.904 42.0656H352.747C352.757 42.965 353.502 44.07 354.659 44.07C355.994 44.07 356.582 42.965 356.582 42.0656ZM239.898 49.9953V48.5579H242.056V47.2282H239.898V45.8105H243.037V44.4806H238.329V51.325H243.135V49.9953H239.898ZM250.659 51.325L248.275 47.8539L250.59 44.4806H248.795L247.383 46.5633L245.95 44.4806H244.155L246.49 47.8736L244.145 51.325H245.881L247.373 49.1543L248.864 51.325H250.659ZM256.26 44.4806V47.2477H253.347V44.4806H251.816V51.325H253.347V48.5579H256.26V51.325H257.8V44.4806H256.26ZM262.45 44.4122C260.763 44.4122 258.987 45.8398 258.987 47.9029C258.987 49.966 260.763 51.3936 262.45 51.3936C264.186 51.3936 265.913 49.966 265.913 47.9029C265.913 45.8398 264.186 44.4122 262.45 44.4122ZM262.47 45.8985C263.5 45.8985 264.225 46.6806 264.225 47.9029C264.225 49.1153 263.5 49.9073 262.47 49.9073C261.508 49.9073 260.694 49.1153 260.694 47.9029C260.694 46.6806 261.508 45.8985 262.47 45.8985ZM273.643 44.4806H267.659V49.6042C267.659 49.7508 267.551 50.1028 267.247 50.1028C266.982 50.1028 266.796 50.0441 266.58 49.9367V51.2077C266.796 51.3152 267.119 51.3837 267.59 51.3837C268.463 51.3837 269.15 51.1099 269.15 49.6042V45.7519H272.152V51.325H273.643V44.4806ZM277.802 44.4122C276.115 44.4122 274.339 45.8398 274.339 47.9029C274.339 49.966 276.115 51.3936 277.802 51.3936C279.538 51.3936 281.265 49.966 281.265 47.9029C281.265 45.8398 279.538 44.4122 277.802 44.4122ZM277.822 45.8985C278.852 45.8985 279.577 46.6806 279.577 47.9029C279.577 49.1153 278.852 49.9073 277.822 49.9073C276.86 49.9073 276.046 49.1153 276.046 47.9029C276.046 46.6806 276.86 45.8985 277.822 45.8985ZM287.042 44.4806H282.412V51.325H283.903V45.7519H287.042V44.4806ZM287.984 44.4806V51.325H288.122L291.977 47.8246V51.325H293.507V44.4806H293.389L289.514 47.9712V44.4806H287.984ZM297.342 44.4806C295.665 44.4806 294.772 45.429 294.772 46.6612C294.772 47.6387 295.332 48.4308 296.391 48.7242L294.606 51.325H296.371L297.98 48.8416H298.52V51.325H300.05V44.4806H297.342ZM298.52 47.4921H297.382C296.705 47.4921 296.313 47.2282 296.313 46.6612C296.313 46.0939 296.705 45.83 297.382 45.83H298.52V47.4921ZM303.974 46.9349V49.6824L305.475 50.4352V49.2131L304.611 48.3036L305.475 47.4041V46.1819L303.974 46.9349ZM306.093 46.9349V49.6824L307.594 50.4352V49.2131L306.73 48.3036L307.594 47.4041V46.1819L306.093 46.9349ZM315.068 44.4806H313.283L310.271 48.4798V44.4806H308.731V51.325H310.271V50.6308L311.566 48.9687L313.607 51.325H315.402L312.44 47.9125L315.068 44.4806ZM316.442 44.4806V51.325H317.972V48.8416H319.149C320.827 48.8416 321.719 47.893 321.719 46.6612C321.719 45.429 320.827 44.4806 319.149 44.4806H316.442ZM317.972 47.4921V45.83H319.11C319.787 45.83 320.179 46.0939 320.179 46.6612C320.179 47.2282 319.787 47.4921 319.11 47.4921H317.972ZM324.221 49.9953V48.5579H326.379V47.2282H324.221V45.8105H327.36V44.4806H322.651V51.325H327.458V49.9953H324.221ZM336.463 44.4806H336.09L332.549 48.9687L329.017 44.4806H328.645V51.325H330.175V48.3135L332.421 51.1198H332.686L334.923 48.3036V51.325H336.463V44.4806ZM342.25 44.4806V47.2477H339.337V44.4806H337.807V51.325H339.337V48.5579H342.25V51.325H343.791V44.4806H342.25ZM344.978 44.4806V51.325H345.115L348.97 47.8246V51.325H350.5V44.4806H350.383L346.508 47.9712V44.4806H344.978ZM351.648 44.4806V51.325H351.785L355.64 47.8246V51.325H357.171V44.4806H357.053L353.178 47.9712V44.4806H351.648ZM365.823 44.4806V47.2477H362.909V44.4806H361.379V51.325H362.909V48.5579H365.823V51.325H367.363V44.4806H365.823ZM371.856 44.4806H371.581L368.354 51.325H370.031L370.786 49.6432H372.65L373.405 51.325H375.083L371.856 44.4806ZM371.718 47.3455L372.219 48.3625H371.218L371.718 47.3455ZM382.224 44.4122C380.517 44.4122 378.762 45.8398 378.762 47.9224C378.762 49.966 380.517 51.3936 382.224 51.3936C383.156 51.3936 383.951 51.0512 384.539 50.5136L383.607 49.3793C383.274 49.6432 382.832 49.9073 382.264 49.9073C381.243 49.9073 380.449 49.0175 380.449 47.9029C380.449 46.8078 381.243 45.8985 382.264 45.8985C382.832 45.8985 383.264 46.1331 383.578 46.397L384.52 45.2629C383.931 44.725 383.156 44.4122 382.224 44.4122ZM388.777 44.4806H388.503L385.275 51.325H386.953L387.708 49.6432H389.572L390.327 51.325H392.005L388.777 44.4806ZM388.64 47.3455L389.14 48.3625H388.14L388.64 47.3455ZM393.005 44.4806V51.325H394.496V45.7519H397.498V51.325H398.989V44.4806H393.005ZM408.269 47.9029C408.269 46.3776 406.817 45.2433 404.894 45.1259V44.4806H403.403V45.1259C401.49 45.2531 400.048 46.3873 400.048 47.9029C400.048 49.4185 401.49 50.5525 403.403 50.6797V51.325H404.894V50.6797C406.817 50.5624 408.269 49.428 408.269 47.9029ZM404.894 46.397C406.464 46.5047 406.778 47.3748 406.778 47.9029C406.778 48.4308 406.464 49.3011 404.894 49.4086V46.397ZM401.54 47.9029C401.54 47.3748 401.844 46.5143 403.403 46.397V49.4086C401.844 49.2912 401.54 48.4308 401.54 47.9029ZM409.348 44.4806V51.325H409.485L413.34 47.8246V51.325H414.871V44.4806H414.753L410.878 47.9712V44.4806H409.348ZM416.165 44.4806V51.325H417.696V48.8416H418.873C420.55 48.8416 421.443 47.893 421.443 46.6612C421.443 45.429 420.55 44.4806 418.873 44.4806H416.165ZM417.696 47.4921V45.83H418.834C419.511 45.83 419.903 46.0939 419.903 46.6612C419.903 47.2282 419.511 47.4921 418.834 47.4921H417.696ZM423.944 49.9953V48.5579H426.103V47.2282H423.944V45.8105H427.083V44.4806H422.375V51.325H427.182V49.9953H423.944ZM429.663 46.9349L428.162 46.1819V47.4041L429.026 48.3036L428.162 49.2131V50.4352L429.663 49.6824V46.9349ZM431.782 46.9349L430.272 46.1819V47.4041L431.145 48.3036L430.272 49.2131V50.4352L431.782 49.6824V46.9349Z" fill="#4A4944"/>
<path d="M319.382 61.6719C323.546 61.6719 325.628 64.2076 325.628 69.2784V94.2866C325.628 99.3941 323.564 101.948 319.436 101.948C315.272 101.948 313.19 99.4121 313.19 94.3413V69.3331C313.19 64.2256 315.254 61.6719 319.382 61.6719ZM319.382 65.9952C318.772 65.9952 318.305 66.2233 317.982 66.6791C317.659 67.135 317.497 68.1839 317.497 69.8257V93.794C317.497 95.4355 317.668 96.4844 318.009 96.9406C318.35 97.3965 318.825 97.6245 319.436 97.6245C320.046 97.6245 320.513 97.3965 320.836 96.9406C321.159 96.4844 321.32 95.4355 321.32 93.794V69.8257C321.32 68.1839 321.15 67.135 320.808 66.6791C320.468 66.2233 319.992 65.9952 319.382 65.9952Z" fill="#4A4944"/>
<defs>
<linearGradient id="paint0_linear" x1="153.903" y1="77.455" x2="207.493" y2="75.7728" gradientUnits="userSpaceOnUse">
<stop stop-color="#EAFF00"/>
<stop offset="0.263623" stop-color="#EAFF00"/>
<stop offset="1" stop-color="#11FA25"/>
</linearGradient>
</defs>
</svg>
