<svg width="566" height="158" viewBox="0 0 566 158" fill="none" xmlns="http://www.w3.org/2000/svg">
<rect width="566" height="158" fill="#16464F"/>
<path fill-rule="evenodd" clip-rule="evenodd" d="M148.123 83.7298L160.992 70.8613L189.176 99.0453L193.26 94.961L165.076 66.7771L177.894 53.9592L177.954 53.8987L206.139 82.0829L210.223 77.9986L177.955 45.731L143.153 80.5335C143.436 81.1452 143.594 81.8262 143.594 82.5447C143.594 85.1936 141.446 87.3413 138.797 87.3416C136.148 87.3413 134 85.1936 134 82.5447C134 79.8954 136.148 77.7476 138.797 77.7476C139.515 77.7476 140.196 77.9061 140.808 78.1891L179.997 39C193.563 52.5661 207.13 66.1326 220.696 79.6986L207.839 92.5556L179.62 64.3367L175.514 68.4421L203.733 96.661L190.876 109.518L162.657 81.2992L158.562 85.3948L186.78 113.614L182.394 118L148.123 83.7298Z" fill="white"/>
<path d="M248.147 101.858V77.1091L244.845 101.858H240.339L236.983 76.9971V101.858H232.824V61.7671H238.953L242.674 89.7633L246.286 61.7671H252.305V101.858H248.147Z" fill="white"/>
<path d="M271.331 61.7671H266.926L262.193 85.9559V61.7671H258.033V101.858H262.439L267.172 76.9411V101.858H271.331V61.7671Z" fill="white"/>
<path d="M282.258 82.4841L281.437 82.4281V101.858H276.95V61.7669H281.437V78.3409H282.258L285.323 61.7669H289.865L285.925 80.1324L290.391 101.858H285.63L282.258 82.4841Z" fill="white"/>
<path d="M300.69 61.5433C302.441 61.5433 303.819 61.7486 304.822 62.1591C305.825 62.5696 306.564 63.2137 307.038 64.0908C307.512 64.9681 307.804 66.1066 307.914 67.5064C308.023 68.9062 308.078 70.5766 308.078 72.5177C308.078 74.4214 308.023 76.1386 307.914 77.6689C307.804 79.1994 307.522 80.4967 307.066 81.5605C306.61 82.6242 305.925 83.4361 305.013 83.9961C304.101 84.5561 302.825 84.8359 301.183 84.8359H299.76V101.858H295.327V62.0471C297.772 61.7112 299.559 61.5433 300.69 61.5433ZM300.964 65.9106C300.781 65.9106 300.581 65.92 300.362 65.9385C300.143 65.9573 299.942 65.9853 299.76 66.0227V80.4128H300.69C301.93 80.4128 302.715 79.7221 303.043 78.3409C303.372 76.9597 303.536 75.112 303.536 72.7977C303.536 70.4459 303.381 68.7103 303.071 67.5904C302.761 66.4706 302.058 65.9106 300.964 65.9106Z" fill="white"/>
<path d="M344.05 61.7671V66.1906H339.781V101.858H335.403V66.1906H331.025V61.7671H344.05Z" fill="white"/>
<path d="M359.409 61.7669V66.1904H353.28V78.0065H358.041V82.5419H353.28V97.4342H359.464V101.858H348.847V61.7669H359.409Z" fill="white"/>
<path d="M369.077 61.7669V77.9418H373.072V61.7669H377.45V101.858H373.072V82.4772H369.077V101.858H364.59V61.7669H369.077Z" fill="white"/>
<path d="M391.113 67.6492C391.113 66.0574 390.511 65.2616 389.307 65.2616C388.139 65.2616 387.556 66.0574 387.556 67.6492V73.4241H383.014V69.7594C383.014 68.6857 383.05 67.6401 383.123 66.6219C383.196 65.6041 383.424 64.7062 383.807 63.9289C384.19 63.1515 384.81 62.5222 385.668 62.0409C386.525 61.5596 387.738 61.319 389.307 61.319C390.876 61.319 392.098 61.5596 392.973 62.0409C393.849 62.5222 394.478 63.1329 394.861 63.8734C395.244 64.6137 395.472 65.4651 395.545 66.4277C395.618 67.3903 395.655 68.334 395.655 69.2597V74.035C395.655 75.7882 394.845 78.2857 393.247 79.1589C393.977 79.6771 394.542 80.2417 394.943 80.8524C395.345 81.4631 395.637 82.1575 395.819 82.9348C396.001 83.7119 396.111 84.5731 396.147 85.5169C396.184 86.4609 396.202 88.8428 396.202 90.0272V94.0807C396.202 99.2634 394.013 101.855 389.635 101.855C385.075 101.855 382.795 99.2634 382.795 94.0807V88.9166H387.173V93.581C387.173 95.2467 387.346 96.3111 387.692 96.7738C388.039 97.2365 388.65 97.4678 389.526 97.4678C390.474 97.4678 391.094 97.2088 391.386 96.6906C391.678 96.1723 391.824 95.1356 391.824 93.581V89.0277C391.824 87.2507 391.651 84.5358 391.304 83.5179C390.958 82.5 390.237 81.9907 389.143 81.9907H386.352V77.7152H389.307C390.511 77.7152 391.113 76.7896 391.113 74.9387V67.6492Z" fill="white"/>
<path d="M407.894 61.2076C412.126 61.2076 414.242 63.7779 414.242 68.9186V94.2705C414.242 99.4484 412.145 102.037 407.949 102.037C403.717 102.037 401.601 99.4667 401.601 94.326V68.9741C401.601 63.7962 403.699 61.2076 407.894 61.2076ZM407.894 65.59C407.274 65.59 406.8 65.8213 406.472 66.2835C406.143 66.7458 405.979 67.8091 405.979 69.4733V93.7713C405.979 95.4355 406.152 96.4988 406.499 96.9611C406.845 97.4233 407.329 97.6546 407.949 97.6546C408.569 97.6546 409.043 97.4233 409.372 96.9611C409.7 96.4988 409.864 95.4355 409.864 93.7713V69.4733C409.864 67.8091 409.691 66.7458 409.344 66.2835C408.998 65.8213 408.514 65.59 407.894 65.59Z" fill="white"/>
<path d="M425.224 61.5433C426.975 61.5433 428.352 61.7486 429.355 62.1591C430.359 62.5696 431.097 63.2137 431.572 64.0908C432.046 64.9681 432.338 66.1066 432.447 67.5064C432.556 68.9062 432.612 70.5766 432.612 72.5177C432.612 74.4214 432.556 76.1386 432.447 77.6689C432.338 79.1994 432.055 80.4967 431.599 81.5605C431.143 82.6242 430.459 83.4361 429.547 83.9961C428.635 84.5561 427.358 84.8359 425.716 84.8359H424.293V101.858H419.861V62.0471C422.305 61.7112 424.093 61.5433 425.224 61.5433ZM425.497 65.9106C425.315 65.9106 425.114 65.92 424.895 65.9385C424.677 65.9573 424.476 65.9853 424.293 66.0227V80.4128H425.224C426.464 80.4128 427.248 79.7221 427.577 78.3409C427.905 76.9597 428.069 75.112 428.069 72.7977C428.069 70.4459 427.914 68.7103 427.604 67.5904C427.294 66.4706 426.592 65.9106 425.497 65.9106Z" fill="white"/>
<path fill-rule="evenodd" clip-rule="evenodd" d="M238.008 44.4806H232.553V45.83H234.466V51.325H236.105V45.83H238.008V44.4806ZM357.242 42.0656H356.094C356.036 42.4079 355.741 42.711 355.329 42.711C354.927 42.711 354.623 42.4079 354.564 42.0656H353.407C353.417 42.965 354.162 44.07 355.32 44.07C356.654 44.07 357.242 42.965 357.242 42.0656ZM240.558 49.9953V48.5579H242.716V47.2282H240.558V45.8105H243.697V44.4806H238.989V51.325H243.795V49.9953H240.558ZM251.319 51.325L248.935 47.8539L251.251 44.4806H249.455L248.043 46.5633L246.61 44.4806H244.815L247.15 47.8736L244.805 51.325H246.542L248.033 49.1543L249.524 51.325H251.319ZM256.92 44.4806V47.2477H254.007V44.4806H252.476V51.325H254.007V48.5579H256.92V51.325H258.46V44.4806H256.92ZM263.11 44.4122C261.423 44.4122 259.647 45.8398 259.647 47.9029C259.647 49.966 261.423 51.3936 263.11 51.3936C264.847 51.3936 266.573 49.966 266.573 47.9029C266.573 45.8398 264.847 44.4122 263.11 44.4122ZM263.13 45.8985C264.16 45.8985 264.886 46.6806 264.886 47.9029C264.886 49.1153 264.16 49.9073 263.13 49.9073C262.169 49.9073 261.354 49.1153 261.354 47.9029C261.354 46.6806 262.169 45.8985 263.13 45.8985ZM274.303 44.4806H268.319V49.6042C268.319 49.7508 268.211 50.1028 267.907 50.1028C267.642 50.1028 267.456 50.0441 267.24 49.9367V51.2077C267.456 51.3152 267.779 51.3837 268.25 51.3837C269.123 51.3837 269.81 51.1099 269.81 49.6042V45.7519H272.812V51.325H274.303V44.4806ZM278.462 44.4122C276.775 44.4122 274.999 45.8398 274.999 47.9029C274.999 49.966 276.775 51.3936 278.462 51.3936C280.199 51.3936 281.925 49.966 281.925 47.9029C281.925 45.8398 280.199 44.4122 278.462 44.4122ZM278.482 45.8985C279.512 45.8985 280.238 46.6806 280.238 47.9029C280.238 49.1153 279.512 49.9073 278.482 49.9073C277.521 49.9073 276.706 49.1153 276.706 47.9029C276.706 46.6806 277.521 45.8985 278.482 45.8985ZM287.703 44.4806H283.072V51.325H284.564V45.7519H287.703V44.4806ZM288.644 44.4806V51.325H288.782L292.637 47.8246V51.325H294.167V44.4806H294.05L290.175 47.9712V44.4806H288.644ZM298.003 44.4806C296.325 44.4806 295.433 45.429 295.433 46.6612C295.433 47.6387 295.992 48.4308 297.051 48.7242L295.266 51.325H297.032L298.64 48.8416H299.18V51.325H300.71V44.4806H298.003ZM299.18 47.4921H298.042C297.365 47.4921 296.973 47.2282 296.973 46.6612C296.973 46.0939 297.365 45.83 298.042 45.83H299.18V47.4921ZM304.634 46.9349V49.6824L306.135 50.4352V49.2131L305.271 48.3036L306.135 47.4041V46.1819L304.634 46.9349ZM306.753 46.9349V49.6824L308.254 50.4352V49.2131L307.39 48.3036L308.254 47.4041V46.1819L306.753 46.9349ZM315.728 44.4806H313.943L310.932 48.4798V44.4806H309.391V51.325H310.932V50.6308L312.226 48.9687L314.267 51.325H316.062L313.1 47.9125L315.728 44.4806ZM317.102 44.4806V51.325H318.632V48.8416H319.809C321.487 48.8416 322.379 47.893 322.379 46.6612C322.379 45.429 321.487 44.4806 319.809 44.4806H317.102ZM318.632 47.4921V45.83H319.77C320.447 45.83 320.839 46.0939 320.839 46.6612C320.839 47.2282 320.447 47.4921 319.77 47.4921H318.632ZM324.881 49.9953V48.5579H327.039V47.2282H324.881V45.8105H328.02V44.4806H323.311V51.325H328.118V49.9953H324.881ZM337.123 44.4806H336.75L333.209 48.9687L329.677 44.4806H329.305V51.325H330.835V48.3135L333.081 51.1198H333.346L335.583 48.3036V51.325H337.123V44.4806ZM342.911 44.4806V47.2477H339.997V44.4806H338.467V51.325H339.997V48.5579H342.911V51.325H344.451V44.4806H342.911ZM345.638 44.4806V51.325H345.775L349.63 47.8246V51.325H351.16V44.4806H351.043L347.168 47.9712V44.4806H345.638ZM352.308 44.4806V51.325H352.446L356.3 47.8246V51.325H357.831V44.4806H357.713L353.838 47.9712V44.4806H352.308ZM366.483 44.4806V47.2477H363.569V44.4806H362.039V51.325H363.569V48.5579H366.483V51.325H368.023V44.4806H366.483ZM372.516 44.4806H372.241L369.014 51.325H370.691L371.447 49.6432H373.31L374.066 51.325H375.743L372.516 44.4806ZM372.378 47.3455L372.879 48.3625H371.878L372.378 47.3455ZM382.884 44.4122C381.177 44.4122 379.422 45.8398 379.422 47.9224C379.422 49.966 381.177 51.3936 382.884 51.3936C383.816 51.3936 384.611 51.0512 385.199 50.5136L384.267 49.3793C383.934 49.6432 383.493 49.9073 382.924 49.9073C381.904 49.9073 381.109 49.0175 381.109 47.9029C381.109 46.8078 381.904 45.8985 382.924 45.8985C383.493 45.8985 383.924 46.1331 384.238 46.397L385.18 45.2629C384.591 44.725 383.816 44.4122 382.884 44.4122ZM389.437 44.4806H389.163L385.935 51.325H387.613L388.368 49.6432H390.232L390.987 51.325H392.665L389.437 44.4806ZM389.3 47.3455L389.8 48.3625H388.8L389.3 47.3455ZM393.665 44.4806V51.325H395.156V45.7519H398.158V51.325H399.649V44.4806H393.665ZM408.929 47.9029C408.929 46.3776 407.477 45.2433 405.554 45.1259V44.4806H404.063V45.1259C402.151 45.2531 400.709 46.3873 400.709 47.9029C400.709 49.4185 402.151 50.5525 404.063 50.6797V51.325H405.554V50.6797C407.477 50.5624 408.929 49.428 408.929 47.9029ZM405.554 46.397C407.124 46.5047 407.438 47.3748 407.438 47.9029C407.438 48.4308 407.124 49.3011 405.554 49.4086V46.397ZM402.2 47.9029C402.2 47.3748 402.504 46.5143 404.063 46.397V49.4086C402.504 49.2912 402.2 48.4308 402.2 47.9029ZM410.008 44.4806V51.325H410.145L414 47.8246V51.325H415.531V44.4806H415.413L411.538 47.9712V44.4806H410.008ZM416.825 44.4806V51.325H418.356V48.8416H419.533C421.211 48.8416 422.103 47.893 422.103 46.6612C422.103 45.429 421.211 44.4806 419.533 44.4806H416.825ZM418.356 47.4921V45.83H419.494C420.171 45.83 420.563 46.0939 420.563 46.6612C420.563 47.2282 420.171 47.4921 419.494 47.4921H418.356ZM424.605 49.9953V48.5579H426.763V47.2282H424.605V45.8105H427.744V44.4806H423.035V51.325H427.842V49.9953H424.605ZM430.323 46.9349L428.822 46.1819V47.4041L429.686 48.3036L428.822 49.2131V50.4352L430.323 49.6824V46.9349ZM432.442 46.9349L430.932 46.1819V47.4041L431.805 48.3036L430.932 49.2131V50.4352L432.442 49.6824V46.9349Z" fill="white"/>
<path d="M320.042 61.6719C324.206 61.6719 326.288 64.2076 326.288 69.2784V94.2866C326.288 99.3941 324.224 101.948 320.096 101.948C315.932 101.948 313.85 99.4121 313.85 94.3413V69.3331C313.85 64.2256 315.914 61.6719 320.042 61.6719ZM320.042 65.9952C319.432 65.9952 318.966 66.2233 318.642 66.6791C318.319 67.135 318.157 68.1839 318.157 69.8257V93.794C318.157 95.4355 318.328 96.4844 318.669 96.9406C319.01 97.3965 319.485 97.6245 320.096 97.6245C320.706 97.6245 321.173 97.3965 321.496 96.9406C321.819 96.4844 321.981 95.4355 321.981 93.794V69.8257C321.981 68.1839 321.81 67.135 321.469 66.6791C321.128 66.2233 320.652 65.9952 320.042 65.9952Z" fill="white"/>
</svg>
