<svg width="407" height="369" viewBox="0 0 407 369" fill="none" xmlns="http://www.w3.org/2000/svg">
<path fill-rule="evenodd" clip-rule="evenodd" d="M67.0736 208.542L127.635 148.311L259.178 279.783L278.062 261.002L146.52 129.529L206.43 69.9459L338.624 201.418L357.509 182.636L207.082 31.087L43.6304 193.646C44.9328 196.237 45.584 199.475 45.584 202.713C45.584 215.019 35.816 225.381 22.792 225.381C10.4192 225.381 0 215.666 0 202.713C0 190.408 9.768 180.046 22.792 180.046C26.048 180.046 29.304 180.693 31.9088 181.989L216.198 0C280.016 62.8217 343.834 126.291 407 189.761L346.438 249.992L214.896 117.872L195.36 137.301L327.554 268.773L267.643 328.357L135.45 196.885L116.565 216.314L248.107 347.786L227.269 368.511L67.0736 208.542Z" fill="black" fill-opacity="0.02"/>
<path fill-rule="evenodd" clip-rule="evenodd" d="M167.922 167.871L190.699 145.029L240.17 194.887L247.272 187.764L197.801 137.907L220.332 115.311L270.048 165.169L277.15 158.046L220.577 100.575L159.106 162.222C159.596 163.204 159.84 164.432 159.84 165.66C159.84 170.327 156.167 174.256 151.269 174.256C146.616 174.256 142.697 170.572 142.697 165.66C142.697 160.994 146.371 157.064 151.269 157.064C152.493 157.064 153.718 157.31 154.697 157.801L224.006 88.7861C248.007 112.61 272.007 136.679 295.763 160.748L272.987 183.589L223.516 133.486L216.169 140.854L265.885 190.712L243.353 213.307L193.637 163.45L186.535 170.818L236.006 220.675L228.169 228.535L167.922 167.871Z" fill="url(#paint0_linear)"/>
<path fill-rule="evenodd" clip-rule="evenodd" d="M228.66 286.988L215.68 273.971L226.946 288.708L224.496 291.164L209.802 279.866L222.782 292.883L220.578 295.093L199.761 273.971L202.945 270.779L219.598 283.55L206.863 267.095L210.047 263.902L230.864 285.024L228.66 286.988ZM219.843 253.832L217.639 256.042L227.68 271.27L214.945 258.498L212.741 260.709L233.558 281.831L235.762 279.62L225.476 263.902L238.456 276.919L240.66 274.708L219.843 253.832ZM236.252 258.99L248.252 267.34L250.701 264.884L236.987 255.797L229.395 244.008L226.946 246.464L234.048 256.779L233.558 257.27L224.986 248.674L222.537 251.13L243.354 272.252L245.803 269.796L235.762 259.726L236.252 258.99ZM235.027 238.359C236.007 237.376 236.742 236.885 237.477 236.394C238.211 236.148 238.946 236.148 239.681 236.148C240.415 236.394 241.15 236.885 241.885 237.376C242.62 238.113 243.599 238.85 244.579 239.833C245.558 240.815 246.538 241.797 247.273 242.534C248.007 243.517 248.497 244.253 248.742 244.99C248.987 245.727 249.232 246.464 248.987 247.446C248.742 248.183 248.252 248.92 247.518 249.902L246.783 250.639L255.6 259.481L253.395 261.691L232.578 240.815C233.558 240.078 234.538 238.85 235.027 238.359ZM237.477 240.569C237.966 240.078 238.701 239.833 239.436 240.324C240.17 240.815 241.15 241.552 242.375 242.78C243.599 244.008 244.579 244.99 245.069 245.973C245.558 246.955 245.558 247.692 244.824 248.183L244.334 248.674L236.742 241.061L236.987 240.815C237.232 240.815 237.477 240.569 237.477 240.569ZM257.804 215.763L250.946 222.64L253.151 224.851L255.355 222.64L273.968 241.306L276.172 239.096L257.559 220.43L259.763 218.219L257.804 215.763ZM265.886 207.658L268.09 209.869L264.906 213.307L271.029 219.447L273.478 216.991L275.927 219.447L273.478 221.903L281.315 229.763L284.498 226.57L286.703 228.78L281.07 234.429L260.253 213.307L265.886 207.658ZM270.784 202.746L279.111 211.342L281.315 209.132L272.988 200.536L275.192 198.325L296.009 219.447L294.05 221.658L284.009 211.588L281.805 213.553L291.846 223.623L289.397 226.079L268.58 204.957L270.784 202.746ZM285.478 194.15L289.397 198.08C290.376 199.062 290.621 199.799 289.886 200.536L288.417 202.01L290.621 204.22L292.091 202.746C292.58 202.255 293.315 202.01 294.05 202.501C294.785 202.746 296.254 204.22 297.234 205.202L299.683 207.658C300.417 208.395 300.907 209.132 301.152 209.623C301.152 210.114 301.152 210.606 300.662 211.097C300.172 211.588 299.683 211.834 299.438 211.588C298.948 211.588 298.458 211.097 297.479 210.114L295.029 207.658L292.825 209.869L295.519 212.571C298.213 215.272 300.662 215.518 303.111 213.062C305.315 210.851 305.071 208.15 302.377 205.448L300.172 203.238C299.438 202.501 298.213 201.273 297.723 200.782C297.234 200.29 296.744 199.799 296.254 199.554C295.764 199.308 295.274 199.062 294.785 198.817C294.295 198.817 293.56 198.817 293.07 198.817C293.56 197.589 292.58 195.869 291.601 194.887L289.152 192.431C288.662 191.94 288.172 191.449 287.682 190.957C287.192 190.466 286.458 190.221 285.968 189.975C285.478 189.729 284.743 189.729 284.009 189.975C283.274 190.221 282.539 190.712 281.805 191.449C281.07 192.185 280.58 192.922 280.335 193.659C280.09 194.396 280.09 195.133 280.335 195.624C280.58 196.115 280.825 196.852 281.315 197.343C281.805 197.834 282.294 198.571 282.784 199.062L284.743 201.027L287.192 198.571L283.519 196.115C282.784 195.378 282.539 194.641 283.274 193.905C284.009 193.168 284.743 193.413 285.478 194.15ZM290.866 182.116C288.662 184.326 288.907 186.782 291.601 189.484L304.826 202.746C307.52 205.448 309.969 205.694 312.173 203.483C314.377 201.273 314.132 198.817 311.438 196.115L298.213 182.852C295.519 180.151 293.07 179.905 290.866 182.116ZM293.07 184.326C292.825 184.572 292.58 185.063 292.58 185.554C292.58 186.045 293.07 186.537 294.05 187.519L306.785 200.29C307.765 201.273 308.254 201.518 308.744 201.764C309.234 201.764 309.479 201.764 309.969 201.273C310.214 201.027 310.459 200.536 310.459 200.045C310.459 199.554 309.969 199.062 308.989 198.08L296.254 185.308C295.274 184.326 294.785 184.08 294.295 183.835C293.805 183.835 293.56 184.08 293.07 184.326ZM300.172 173.028C301.152 172.046 301.887 171.555 302.622 171.309C303.356 171.063 304.091 171.063 304.826 171.063C305.56 171.309 306.295 171.8 307.03 172.291C307.765 173.028 308.744 173.765 309.724 174.748C310.703 175.73 311.683 176.712 312.418 177.449C313.152 178.432 313.642 179.168 314.132 179.905C314.377 180.642 314.622 181.379 314.377 182.361C314.132 183.098 313.642 183.835 312.908 184.817L312.173 185.554L320.989 194.396L318.785 196.606L297.968 175.73C298.703 174.748 299.438 173.765 300.172 173.028ZM302.622 175.239C303.111 174.748 303.846 174.502 304.581 174.993C305.316 175.484 306.295 176.221 307.52 177.449C308.744 178.677 309.724 179.66 310.214 180.642C310.703 181.624 310.703 182.361 309.969 182.852L309.479 183.344L301.887 175.73L302.132 175.484C302.377 175.484 302.377 175.484 302.622 175.239ZM244.824 228.289C247.028 226.079 249.477 226.324 252.171 229.026L265.396 242.289C268.09 244.99 268.335 247.446 266.131 249.657C263.926 251.867 261.477 251.622 258.783 248.92L245.558 235.657C242.864 232.956 242.62 230.5 244.824 228.289ZM247.028 230.5C247.273 230.254 247.763 230.008 248.252 230.008C248.742 230.008 249.232 230.5 250.212 231.482L262.947 244.253C263.926 245.236 264.171 245.727 264.416 246.218C264.416 246.709 264.416 246.955 263.926 247.446C263.437 247.692 263.192 247.692 262.702 247.692C262.212 247.692 261.722 247.201 260.743 246.218L248.007 233.447C247.028 232.464 246.783 231.973 246.538 231.482C246.538 231.236 246.783 230.745 247.028 230.5Z" fill="#4A4944"/>
<path fill-rule="evenodd" clip-rule="evenodd" d="M164.004 181.625L159.106 176.713L157.882 177.941L159.596 179.66L154.698 184.572L156.167 186.046L161.065 181.134L162.78 182.853L164.004 181.625ZM161.31 188.993L164.249 191.941L163.025 193.169L158.861 188.748L164.984 182.608L169.147 186.783L167.923 188.011L164.984 185.309L163.759 186.537L165.719 188.502L164.494 189.73L162.535 187.765L161.31 188.993ZM169.882 199.8L170.862 194.642L176.005 193.66L174.29 191.941L171.107 192.432L171.596 189.239L169.882 187.52L169.147 192.923L164.004 193.905L165.474 195.379L168.658 194.642L168.168 197.835L169.882 199.8ZM181.148 198.817L182.617 200.291L176.495 206.431L175.025 204.958L177.474 202.502L174.78 199.8L172.331 202.256L170.862 200.782L176.984 194.642L178.454 196.116L176.005 198.572L178.699 201.274L181.148 198.817ZM186.781 204.221C185.311 202.747 182.372 202.502 180.413 204.221C178.454 206.186 178.944 208.887 180.413 210.606C181.882 212.08 184.821 212.326 186.781 210.606C188.495 208.642 188.25 205.694 186.781 204.221ZM185.311 205.449C184.332 204.466 183.107 204.466 181.882 205.694C180.903 206.677 180.903 208.15 181.638 209.133C182.617 210.115 183.842 210.115 185.066 208.887C186.291 207.905 186.291 206.431 185.311 205.449ZM196.577 214.291L190.454 220.431L189.23 219.203L194.128 214.045L191.434 211.343L188.005 214.782C186.536 216.255 185.801 215.764 185.066 215.027C184.576 214.536 184.332 214.291 184.332 214.045L185.556 212.817C185.556 213.062 185.801 213.308 186.046 213.554C186.291 213.799 186.781 213.554 186.781 213.554L191.434 208.887L196.577 214.291ZM200.495 217.975C199.026 216.501 196.087 216.255 194.128 217.975C192.168 219.939 192.658 222.641 194.128 224.36C195.597 225.834 198.536 226.079 200.495 224.36C202.21 222.395 201.965 219.448 200.495 217.975ZM199.271 219.448C198.291 218.466 197.067 218.466 195.842 219.694C194.862 220.676 194.862 222.15 195.597 223.132C196.577 224.115 197.801 224.115 199.026 222.887C200.005 221.659 200.005 220.185 199.271 219.448ZM208.822 226.325L207.598 227.553L204.659 224.851L199.761 230.009L198.536 228.29L204.659 222.15L208.822 226.325ZM209.557 227.308L203.434 233.448L203.679 233.693L210.292 233.939L207.108 237.132L208.577 238.605L214.7 232.465L208.087 232.22L211.271 229.027L209.557 227.308ZM217.884 235.658L220.333 238.114L214.21 244.254L212.986 242.781L215.19 240.57L214.7 240.079L211.026 240.816L209.557 239.342L213.475 238.605C212.741 237.377 212.986 236.149 213.965 235.167C214.7 234.184 216.414 234.184 217.884 235.658ZM216.414 239.342L217.884 237.868L216.904 236.886C216.414 236.395 215.679 236.149 215.19 236.64C214.7 237.132 214.7 237.623 215.435 238.36L216.414 239.342ZM159.841 203.238L157.392 205.694L158.127 207.659L159.106 206.677V204.958H160.576L161.555 203.975L159.841 203.238ZM161.8 204.958L163.759 205.694L162.78 206.677H161.31V208.396L160.331 209.624L159.351 207.414L161.8 204.958ZM172.086 210.852L170.372 209.133L164.249 210.115L167.923 206.431L166.453 204.958L160.331 211.098L161.8 212.571L162.535 211.834L165.229 211.589L164.739 215.764L166.453 217.483L166.943 211.834L172.086 210.852ZM173.311 212.08L175.76 214.536C177.229 216.01 177.229 217.729 176.005 218.711C174.78 219.939 173.311 219.939 171.841 218.466L170.862 217.483L168.658 219.694L167.188 218.22L173.311 212.08ZM172.086 216.255L173.556 214.782L174.535 215.764C175.025 216.255 175.27 216.992 174.78 217.483C174.29 217.975 173.801 217.975 173.066 217.238L172.086 216.255ZM175.27 224.115L176.495 222.887L178.454 224.851L179.678 223.623L177.719 221.659L178.944 220.431L181.882 223.132L183.107 221.904L178.944 217.729L172.821 223.869L177.229 228.29L178.454 227.062L175.27 224.115ZM191.434 230.009L185.311 236.149L183.842 234.921L186.536 232.22L181.882 232.711L181.638 232.465L182.127 227.799L179.433 230.5L177.964 229.027L184.087 222.887L184.332 223.132L183.842 230.746L190.944 229.764L191.434 230.009ZM196.577 235.412L194.128 237.868L191.434 235.167L193.883 232.711L192.413 231.237L186.291 237.623L187.76 239.096L190.209 236.64L192.903 239.342L190.454 241.798L191.924 243.272L198.046 237.132L196.577 235.412ZM199.026 237.868L200.495 239.342L197.312 242.535L203.924 242.781L197.801 248.921L196.332 247.447L199.516 244.254L192.903 244.009H192.658L199.026 237.868ZM210.536 244.991C210.292 245.237 209.557 245.237 209.312 244.991C209.067 244.745 209.067 244.009 209.312 243.763L208.332 242.781C207.598 243.517 207.108 245.237 208.332 246.219C209.557 247.447 211.026 246.956 211.761 246.219L210.536 244.991ZM204.904 243.763L198.781 249.903H199.026L205.638 250.149L202.455 253.342L203.924 254.815L210.047 248.675L203.434 248.429L206.618 245.237L204.904 243.763ZM140.493 200.291L138.044 202.747L135.35 200.045L137.799 197.589L136.33 196.116L130.207 202.256L131.677 203.73L134.126 201.274L136.82 203.975L134.371 206.431L135.84 207.905L141.963 201.765L140.493 200.291ZM145.881 205.694L142.697 214.782L140.983 213.308L141.718 211.098L140.004 209.378L137.799 210.115L136.33 208.642L145.391 205.449L145.881 205.694ZM143.187 208.15L141.718 208.642L142.697 209.624L143.187 208.15ZM155.188 215.027C153.718 213.554 150.779 213.308 148.82 215.027C146.861 216.992 147.351 219.694 148.82 221.167C149.555 221.904 150.779 222.395 151.759 222.395L152.004 220.676C151.514 220.676 150.779 220.431 150.29 219.939C149.31 218.957 149.555 217.483 150.534 216.501C151.514 215.519 152.984 215.519 153.963 216.255C154.453 216.747 154.698 217.483 154.698 217.975L156.657 217.729C156.412 216.747 155.922 215.764 155.188 215.027ZM161.065 220.922L157.882 230.009L156.412 228.536L157.147 226.325L155.433 224.606L153.228 225.588L151.759 224.115L160.821 220.922H161.065ZM158.371 223.378L156.902 223.869L157.882 224.851L158.371 223.378ZM164.739 224.851L158.616 230.992L159.841 232.22L164.739 227.062L167.433 229.764L162.535 234.921L163.759 236.149L169.882 230.009L164.739 224.851ZM175.515 241.553C174.045 243.026 171.841 242.535 169.882 241.061L169.392 241.553L167.923 240.325L168.413 239.833C166.698 238.114 166.453 235.658 167.923 234.43C169.392 232.956 171.596 233.448 173.556 234.921L174.045 234.43L175.27 235.658L174.78 236.149C176.495 237.868 176.739 240.325 175.515 241.553ZM173.801 237.132L171.107 239.833C172.576 241.061 173.556 240.57 174.045 240.079C174.535 239.833 175.025 238.605 173.801 237.132ZM169.392 235.658C169.882 235.167 170.862 234.676 172.331 235.904L169.637 238.605C168.413 237.132 168.902 235.904 169.392 235.658ZM179.433 239.588L173.311 245.728L173.556 245.973L180.168 246.219L176.984 249.412L178.454 250.885L184.576 244.745L177.964 244.5L181.148 241.307L179.433 239.588ZM185.556 245.482L188.005 247.938C189.475 249.412 189.475 251.131 188.25 252.114C187.025 253.342 185.556 253.342 184.087 251.868L183.107 250.885L180.903 253.096L179.433 251.622L185.556 245.482ZM184.332 249.657L185.801 248.184L186.781 249.166C187.27 249.657 187.515 250.394 187.025 250.885C186.536 251.377 186.046 251.377 185.311 250.64L184.332 249.657ZM187.76 257.517L188.985 256.289L190.944 258.254L192.168 257.026L190.209 255.061L191.434 253.833L194.373 256.534L195.597 255.306L191.189 251.131L185.066 257.271L189.475 261.692L190.699 260.464L187.76 257.517ZM195.597 259.973L193.148 262.429L191.189 261.692L192.168 260.464H193.883V258.99L194.862 258.008L195.597 259.973ZM197.556 261.938L195.107 264.394L193.148 263.657L194.128 262.429H195.842V260.71L196.822 259.482L197.556 261.938Z" fill="#4A4944"/>
<defs>
<linearGradient id="paint0_linear" x1="180.266" y1="159.985" x2="272.261" y2="157.113" gradientUnits="userSpaceOnUse">
<stop stop-color="#EAFF00"/>
<stop offset="0.1363" stop-color="#E9FF00"/>
<stop offset="0.3491" stop-color="#B6FE09"/>
<stop offset="0.6119" stop-color="#9FFD0D"/>
<stop offset="0.9118" stop-color="#6BFC16"/>
<stop offset="1" stop-color="#11FA25"/>
</linearGradient>
</defs>
</svg>
