<svg width="488" height="645" viewBox="0 0 488 645" fill="none" xmlns="http://www.w3.org/2000/svg">
<mask id="mask0" mask-type="alpha" maskUnits="userSpaceOnUse" x="0" y="0" width="488" height="645">
<rect width="488" height="645" fill="#C4C4C4"/>
</mask>
<g mask="url(#mask0)">
<path fill-rule="evenodd" clip-rule="evenodd" d="M122.537 368.53L226.067 264.805L452.755 491.92L485.469 459.144L258.781 232.03L361.926 128.691L362.311 128.305L588.999 355.419L621.713 322.644L362.311 62.7542L82.5102 342.695C84.8195 347.708 85.974 353.106 85.974 358.89C85.974 380.098 68.6549 397.449 47.487 397.449C26.3192 397.449 9 380.098 9 358.89C9 337.682 26.3192 320.331 47.487 320.331C53.2601 320.331 58.6483 321.487 63.6516 323.801L378.86 8C487.779 117.123 597.082 226.631 706 335.754L602.47 439.479L375.396 211.979L342.298 245.14L569.371 472.64L465.841 576.364L238.768 348.864L205.669 382.025L432.742 609.526L397.334 645L122.537 368.53Z" fill="black" fill-opacity="0.2"/>
</g>
</svg>
