<svg width="1920" height="393" viewBox="0 0 1920 393" fill="none" xmlns="http://www.w3.org/2000/svg">
<path d="M147.257 390.656V152.814L115.528 390.656H72.227L39.9703 151.741V390.656H0V5.37912H58.9048L94.6622 274.428L129.376 5.37912H187.223V390.656H147.257Z" fill="white" fill-opacity="0.03"/>
<path d="M370.065 5.37912H327.731L282.242 237.838V5.37912H242.271V390.656H284.605L330.1 151.203V390.656H370.065V5.37912Z" fill="white" fill-opacity="0.03"/>
<path d="M475.071 204.472L467.185 203.936V390.656H424.059V5.37481H467.185V164.656H475.071L504.528 5.37481H548.178L510.31 181.876L553.23 390.656H507.475L475.071 204.472Z" fill="white" fill-opacity="0.03"/>
<path d="M652.213 3.22658C669.037 3.22658 682.278 5.2 691.918 9.14552C701.557 13.091 708.658 19.2802 713.216 27.7085C717.774 36.1384 720.578 47.0806 721.631 60.5322C722.681 73.9853 723.21 90.0388 723.21 108.694C723.21 126.987 722.681 143.491 721.631 158.197C720.578 172.906 717.86 185.372 713.477 195.595C709.094 205.817 702.523 213.622 693.757 219.003C684.991 224.385 672.72 227.073 656.946 227.073H643.268V390.656H600.672V8.0678C624.163 4.84181 641.341 3.22658 652.213 3.22658ZM654.84 45.1952C653.087 45.1952 651.16 45.2833 649.055 45.4654C646.952 45.6445 645.025 45.9147 643.268 46.273V184.564H652.213C664.13 184.564 671.667 177.93 674.823 164.656C677.978 151.382 679.555 133.623 679.555 111.383C679.555 88.7819 678.069 72.1043 675.086 61.3398C672.105 50.5811 665.358 45.1952 654.84 45.1952Z" fill="white" fill-opacity="0.03"/>
<path d="M1068.91 5.37912V47.8882H1027.88V390.656H985.811V47.8882H943.74V5.37912H1068.91Z" fill="white" fill-opacity="0.03"/>
<path d="M1216.51 5.37481V47.8882H1157.61V161.444H1203.37V205.03H1157.61V348.145H1217.04V390.656H1115.01V5.37481H1216.51Z" fill="white" fill-opacity="0.03"/>
<path d="M1309.42 5.37481V160.818H1347.81V5.37481H1389.89V390.656H1347.81V204.406H1309.42V390.656H1266.3V5.37481H1309.42Z" fill="white" fill-opacity="0.03"/>
<path d="M1521.19 61.9046C1521.19 46.6087 1515.4 38.9615 1503.83 38.9615C1492.61 38.9615 1487 46.6087 1487 61.9046V117.404H1443.35V82.1827C1443.35 71.869 1443.7 61.8166 1444.41 52.0358C1445.11 42.2507 1447.3 33.6211 1450.98 26.1545C1454.66 18.6835 1460.62 12.6354 1468.86 8.0071C1477.1 3.38324 1488.76 1.07351 1503.83 1.07351C1518.91 1.07351 1530.65 3.38324 1539.07 8.0071C1547.48 12.6354 1553.53 18.5044 1557.21 25.6215C1560.89 32.7357 1563.09 40.9144 1563.79 50.1666C1564.49 59.4158 1564.84 68.4887 1564.84 77.3841V123.273C1564.84 140.126 1557.06 164.126 1541.7 172.518C1548.71 177.5 1554.15 182.922 1558 188.791C1561.86 194.66 1564.66 201.333 1566.42 208.804C1568.17 216.27 1569.22 224.55 1569.57 233.619C1569.92 242.693 1570.1 265.581 1570.1 276.965V315.92C1570.1 365.725 1549.06 390.629 1506.99 390.629C1463.16 390.629 1441.25 365.725 1441.25 315.92V266.293H1483.32V311.116C1483.32 327.125 1484.99 337.355 1488.32 341.8C1491.65 346.246 1497.52 348.469 1505.94 348.469C1515.06 348.469 1521.01 345.979 1523.82 341.001C1526.62 336.019 1528.03 326.055 1528.03 311.116V267.359C1528.03 250.28 1526.36 224.192 1523.03 214.405C1519.7 204.625 1512.77 199.731 1502.26 199.731H1475.43V158.644H1503.83C1515.4 158.644 1521.19 149.745 1521.19 131.96V61.9046Z" fill="white" fill-opacity="0.03"/>
<path d="M1682.46 -1.73023e-05C1723.13 -1.73023e-05 1743.47 24.7036 1743.47 74.1051V317.744C1743.47 367.503 1723.31 392.382 1682.99 392.382C1642.32 392.382 1621.99 367.678 1621.99 318.277V74.6381C1621.99 24.8784 1642.14 -1.73023e-05 1682.46 -1.73023e-05ZM1682.46 42.1184C1676.5 42.1184 1671.95 44.3414 1668.79 48.7817C1665.64 53.2235 1664.06 63.4418 1664.06 79.4366V312.945C1664.06 328.937 1665.72 339.155 1669.05 343.6C1672.38 348.042 1677.03 350.263 1682.99 350.263C1688.95 350.263 1693.51 348.042 1696.66 343.6C1699.82 339.155 1701.4 328.937 1701.4 312.945V79.4366C1701.4 63.4418 1699.73 53.2235 1696.4 48.7817C1693.07 44.3414 1688.43 42.1184 1682.46 42.1184Z" fill="white" fill-opacity="0.03"/>
<path d="M1849 3.22658C1865.83 3.22658 1879.07 5.2 1888.71 9.14552C1898.35 13.091 1905.45 19.2802 1910.01 27.7085C1914.56 36.1384 1917.37 47.0806 1918.42 60.5322C1919.47 73.9853 1920 90.0388 1920 108.694C1920 126.987 1919.47 143.491 1918.42 158.197C1917.37 172.906 1914.65 185.372 1910.27 195.595C1905.89 205.817 1899.31 213.622 1890.55 219.003C1881.78 224.385 1869.51 227.073 1853.74 227.073H1840.06V390.656H1797.46V8.0678C1820.96 4.84181 1838.13 3.22658 1849 3.22658ZM1851.63 45.1952C1849.88 45.1952 1847.95 45.2833 1845.85 45.4654C1843.74 45.6445 1841.82 45.9147 1840.06 46.273V184.564H1849C1860.92 184.564 1868.46 177.93 1871.61 164.656C1874.77 151.382 1876.35 133.623 1876.35 111.383C1876.35 88.7819 1874.86 72.1043 1871.88 61.3398C1868.9 50.5811 1862.15 45.1952 1851.63 45.1952Z" fill="white" fill-opacity="0.03"/>
<path d="M834.793 -1.73023e-05C875.462 -1.73023e-05 895.799 24.7036 895.799 74.1051V317.744C895.799 367.503 875.641 392.382 835.321 392.382C794.652 392.382 774.314 367.678 774.314 318.277V74.6381C774.314 24.8784 794.478 -1.73023e-05 834.793 -1.73023e-05ZM834.793 42.1184C828.833 42.1184 824.279 44.3414 821.119 48.7817C817.964 53.2235 816.387 63.4418 816.387 79.4366V312.945C816.387 328.937 818.052 339.155 821.382 343.6C824.715 348.042 829.357 350.263 835.321 350.263C841.277 350.263 845.839 348.042 848.995 343.6C852.149 339.155 853.727 328.937 853.727 312.945V79.4366C853.727 63.4418 852.062 53.2235 848.728 48.7817C845.402 44.3414 840.753 42.1184 834.793 42.1184Z" fill="white" fill-opacity="0.03"/>
</svg>
