<svg width="566" height="158" viewBox="0 0 566 158" fill="none" xmlns="http://www.w3.org/2000/svg">
<rect width="566" height="158" fill="#1A6170"/>
<path fill-rule="evenodd" clip-rule="evenodd" d="M149.123 83.7298L161.992 70.8613L190.176 99.0453L194.26 94.961L166.076 66.7771L178.894 53.9592L178.954 53.8987L207.139 82.0829L211.223 77.9986L178.955 45.731L144.153 80.5335C144.436 81.1452 144.594 81.8262 144.594 82.5447C144.594 85.1936 142.446 87.3413 139.797 87.3416C137.148 87.3413 135 85.1936 135 82.5447C135 79.8954 137.148 77.7476 139.797 77.7476C140.515 77.7476 141.196 77.9061 141.808 78.1891L180.997 39C194.563 52.5661 208.13 66.1326 221.696 79.6986L208.839 92.5556L180.62 64.3367L176.514 68.4421L204.733 96.661L191.876 109.518L163.657 81.2992L159.562 85.3948L187.78 113.614L183.394 118L149.123 83.7298Z" fill="white"/>
<path d="M249.147 101.858V77.1091L245.845 101.858H241.339L237.983 76.9971V101.858H233.824V61.7671H239.953L243.674 89.7633L247.286 61.7671H253.305V101.858H249.147Z" fill="white"/>
<path d="M272.331 61.7671H267.926L263.193 85.9559V61.7671H259.033V101.858H263.439L268.172 76.9411V101.858H272.331V61.7671Z" fill="white"/>
<path d="M283.258 82.4841L282.437 82.4281V101.858H277.95V61.7669H282.437V78.3409H283.258L286.323 61.7669H290.865L286.925 80.1324L291.391 101.858H286.63L283.258 82.4841Z" fill="white"/>
<path d="M301.69 61.5433C303.441 61.5433 304.819 61.7486 305.822 62.1591C306.825 62.5696 307.564 63.2137 308.038 64.0908C308.512 64.9681 308.804 66.1066 308.914 67.5064C309.023 68.9062 309.078 70.5766 309.078 72.5177C309.078 74.4214 309.023 76.1386 308.914 77.6689C308.804 79.1994 308.522 80.4967 308.066 81.5605C307.61 82.6242 306.925 83.4361 306.013 83.9961C305.101 84.5561 303.825 84.8359 302.183 84.8359H300.76V101.858H296.327V62.0471C298.772 61.7112 300.559 61.5433 301.69 61.5433ZM301.964 65.9106C301.781 65.9106 301.581 65.92 301.362 65.9385C301.143 65.9573 300.942 65.9853 300.76 66.0227V80.4128H301.69C302.93 80.4128 303.715 79.7221 304.043 78.3409C304.372 76.9597 304.536 75.112 304.536 72.7977C304.536 70.4459 304.381 68.7103 304.071 67.5904C303.761 66.4706 303.058 65.9106 301.964 65.9106Z" fill="white"/>
<path d="M345.05 61.7671V66.1906H340.781V101.858H336.403V66.1906H332.025V61.7671H345.05Z" fill="white"/>
<path d="M360.409 61.7669V66.1904H354.28V78.0065H359.041V82.5419H354.28V97.4342H360.464V101.858H349.847V61.7669H360.409Z" fill="white"/>
<path d="M370.077 61.7669V77.9418H374.072V61.7669H378.45V101.858H374.072V82.4772H370.077V101.858H365.59V61.7669H370.077Z" fill="white"/>
<path d="M392.113 67.6492C392.113 66.0574 391.511 65.2616 390.307 65.2616C389.139 65.2616 388.556 66.0574 388.556 67.6492V73.4241H384.014V69.7594C384.014 68.6857 384.05 67.6401 384.123 66.6219C384.196 65.6041 384.424 64.7062 384.807 63.9289C385.19 63.1515 385.81 62.5222 386.668 62.0409C387.525 61.5596 388.738 61.319 390.307 61.319C391.876 61.319 393.098 61.5596 393.973 62.0409C394.849 62.5222 395.478 63.1329 395.861 63.8734C396.244 64.6137 396.472 65.4651 396.545 66.4277C396.618 67.3903 396.655 68.334 396.655 69.2597V74.035C396.655 75.7882 395.845 78.2857 394.247 79.1589C394.977 79.6771 395.542 80.2417 395.943 80.8524C396.345 81.4631 396.637 82.1575 396.819 82.9348C397.001 83.7119 397.111 84.5731 397.147 85.5169C397.184 86.4609 397.202 88.8428 397.202 90.0272V94.0807C397.202 99.2634 395.013 101.855 390.635 101.855C386.075 101.855 383.795 99.2634 383.795 94.0807V88.9166H388.173V93.581C388.173 95.2467 388.346 96.3111 388.692 96.7738C389.039 97.2365 389.65 97.4678 390.526 97.4678C391.474 97.4678 392.094 97.2088 392.386 96.6906C392.678 96.1723 392.824 95.1356 392.824 93.581V89.0277C392.824 87.2507 392.651 84.5358 392.304 83.5179C391.958 82.5 391.237 81.9907 390.143 81.9907H387.352V77.7152H390.307C391.511 77.7152 392.113 76.7896 392.113 74.9387V67.6492Z" fill="white"/>
<path d="M408.894 61.2076C413.126 61.2076 415.242 63.7779 415.242 68.9186V94.2705C415.242 99.4484 413.145 102.037 408.949 102.037C404.717 102.037 402.601 99.4667 402.601 94.326V68.9741C402.601 63.7962 404.699 61.2076 408.894 61.2076ZM408.894 65.59C408.274 65.59 407.8 65.8213 407.472 66.2835C407.143 66.7458 406.979 67.8091 406.979 69.4733V93.7713C406.979 95.4355 407.152 96.4988 407.499 96.9611C407.845 97.4233 408.329 97.6546 408.949 97.6546C409.569 97.6546 410.043 97.4233 410.372 96.9611C410.7 96.4988 410.864 95.4355 410.864 93.7713V69.4733C410.864 67.8091 410.691 66.7458 410.344 66.2835C409.998 65.8213 409.514 65.59 408.894 65.59Z" fill="white"/>
<path d="M426.224 61.5433C427.975 61.5433 429.352 61.7486 430.355 62.1591C431.359 62.5696 432.097 63.2137 432.572 64.0908C433.046 64.9681 433.338 66.1066 433.447 67.5064C433.556 68.9062 433.612 70.5766 433.612 72.5177C433.612 74.4214 433.556 76.1386 433.447 77.6689C433.338 79.1994 433.055 80.4967 432.599 81.5605C432.143 82.6242 431.459 83.4361 430.547 83.9961C429.635 84.5561 428.358 84.8359 426.716 84.8359H425.293V101.858H420.861V62.0471C423.305 61.7112 425.093 61.5433 426.224 61.5433ZM426.497 65.9106C426.315 65.9106 426.114 65.92 425.895 65.9385C425.677 65.9573 425.476 65.9853 425.293 66.0227V80.4128H426.224C427.464 80.4128 428.248 79.7221 428.577 78.3409C428.905 76.9597 429.069 75.112 429.069 72.7977C429.069 70.4459 428.914 68.7103 428.604 67.5904C428.294 66.4706 427.592 65.9106 426.497 65.9106Z" fill="white"/>
<path fill-rule="evenodd" clip-rule="evenodd" d="M239.008 44.4806H233.553V45.83H235.466V51.325H237.105V45.83H239.008V44.4806ZM358.242 42.0656H357.094C357.036 42.4079 356.741 42.711 356.329 42.711C355.927 42.711 355.623 42.4079 355.564 42.0656H354.407C354.417 42.965 355.162 44.07 356.32 44.07C357.654 44.07 358.242 42.965 358.242 42.0656ZM241.558 49.9953V48.5579H243.716V47.2282H241.558V45.8105H244.697V44.4806H239.989V51.325H244.795V49.9953H241.558ZM252.319 51.325L249.935 47.8539L252.251 44.4806H250.455L249.043 46.5633L247.61 44.4806H245.815L248.15 47.8736L245.805 51.325H247.542L249.033 49.1543L250.524 51.325H252.319ZM257.92 44.4806V47.2477H255.007V44.4806H253.476V51.325H255.007V48.5579H257.92V51.325H259.46V44.4806H257.92ZM264.11 44.4122C262.423 44.4122 260.647 45.8398 260.647 47.9029C260.647 49.966 262.423 51.3936 264.11 51.3936C265.847 51.3936 267.573 49.966 267.573 47.9029C267.573 45.8398 265.847 44.4122 264.11 44.4122ZM264.13 45.8985C265.16 45.8985 265.886 46.6806 265.886 47.9029C265.886 49.1153 265.16 49.9073 264.13 49.9073C263.169 49.9073 262.354 49.1153 262.354 47.9029C262.354 46.6806 263.169 45.8985 264.13 45.8985ZM275.303 44.4806H269.319V49.6042C269.319 49.7508 269.211 50.1028 268.907 50.1028C268.642 50.1028 268.456 50.0441 268.24 49.9367V51.2077C268.456 51.3152 268.779 51.3837 269.25 51.3837C270.123 51.3837 270.81 51.1099 270.81 49.6042V45.7519H273.812V51.325H275.303V44.4806ZM279.462 44.4122C277.775 44.4122 275.999 45.8398 275.999 47.9029C275.999 49.966 277.775 51.3936 279.462 51.3936C281.199 51.3936 282.925 49.966 282.925 47.9029C282.925 45.8398 281.199 44.4122 279.462 44.4122ZM279.482 45.8985C280.512 45.8985 281.238 46.6806 281.238 47.9029C281.238 49.1153 280.512 49.9073 279.482 49.9073C278.521 49.9073 277.706 49.1153 277.706 47.9029C277.706 46.6806 278.521 45.8985 279.482 45.8985ZM288.703 44.4806H284.072V51.325H285.564V45.7519H288.703V44.4806ZM289.644 44.4806V51.325H289.782L293.637 47.8246V51.325H295.167V44.4806H295.05L291.175 47.9712V44.4806H289.644ZM299.003 44.4806C297.325 44.4806 296.433 45.429 296.433 46.6612C296.433 47.6387 296.992 48.4308 298.051 48.7242L296.266 51.325H298.032L299.64 48.8416H300.18V51.325H301.71V44.4806H299.003ZM300.18 47.4921H299.042C298.365 47.4921 297.973 47.2282 297.973 46.6612C297.973 46.0939 298.365 45.83 299.042 45.83H300.18V47.4921ZM305.634 46.9349V49.6824L307.135 50.4352V49.2131L306.271 48.3036L307.135 47.4041V46.1819L305.634 46.9349ZM307.753 46.9349V49.6824L309.254 50.4352V49.2131L308.39 48.3036L309.254 47.4041V46.1819L307.753 46.9349ZM316.728 44.4806H314.943L311.932 48.4798V44.4806H310.391V51.325H311.932V50.6308L313.226 48.9687L315.267 51.325H317.062L314.1 47.9125L316.728 44.4806ZM318.102 44.4806V51.325H319.632V48.8416H320.809C322.487 48.8416 323.379 47.893 323.379 46.6612C323.379 45.429 322.487 44.4806 320.809 44.4806H318.102ZM319.632 47.4921V45.83H320.77C321.447 45.83 321.839 46.0939 321.839 46.6612C321.839 47.2282 321.447 47.4921 320.77 47.4921H319.632ZM325.881 49.9953V48.5579H328.039V47.2282H325.881V45.8105H329.02V44.4806H324.311V51.325H329.118V49.9953H325.881ZM338.123 44.4806H337.75L334.209 48.9687L330.677 44.4806H330.305V51.325H331.835V48.3135L334.081 51.1198H334.346L336.583 48.3036V51.325H338.123V44.4806ZM343.911 44.4806V47.2477H340.997V44.4806H339.467V51.325H340.997V48.5579H343.911V51.325H345.451V44.4806H343.911ZM346.638 44.4806V51.325H346.775L350.63 47.8246V51.325H352.16V44.4806H352.043L348.168 47.9712V44.4806H346.638ZM353.308 44.4806V51.325H353.446L357.3 47.8246V51.325H358.831V44.4806H358.713L354.838 47.9712V44.4806H353.308ZM367.483 44.4806V47.2477H364.569V44.4806H363.039V51.325H364.569V48.5579H367.483V51.325H369.023V44.4806H367.483ZM373.516 44.4806H373.241L370.014 51.325H371.691L372.447 49.6432H374.31L375.066 51.325H376.743L373.516 44.4806ZM373.378 47.3455L373.879 48.3625H372.878L373.378 47.3455ZM383.884 44.4122C382.177 44.4122 380.422 45.8398 380.422 47.9224C380.422 49.966 382.177 51.3936 383.884 51.3936C384.816 51.3936 385.611 51.0512 386.199 50.5136L385.267 49.3793C384.934 49.6432 384.493 49.9073 383.924 49.9073C382.904 49.9073 382.109 49.0175 382.109 47.9029C382.109 46.8078 382.904 45.8985 383.924 45.8985C384.493 45.8985 384.924 46.1331 385.238 46.397L386.18 45.2629C385.591 44.725 384.816 44.4122 383.884 44.4122ZM390.437 44.4806H390.163L386.935 51.325H388.613L389.368 49.6432H391.232L391.987 51.325H393.665L390.437 44.4806ZM390.3 47.3455L390.8 48.3625H389.8L390.3 47.3455ZM394.665 44.4806V51.325H396.156V45.7519H399.158V51.325H400.649V44.4806H394.665ZM409.929 47.9029C409.929 46.3776 408.477 45.2433 406.554 45.1259V44.4806H405.063V45.1259C403.151 45.2531 401.709 46.3873 401.709 47.9029C401.709 49.4185 403.151 50.5525 405.063 50.6797V51.325H406.554V50.6797C408.477 50.5624 409.929 49.428 409.929 47.9029ZM406.554 46.397C408.124 46.5047 408.438 47.3748 408.438 47.9029C408.438 48.4308 408.124 49.3011 406.554 49.4086V46.397ZM403.2 47.9029C403.2 47.3748 403.504 46.5143 405.063 46.397V49.4086C403.504 49.2912 403.2 48.4308 403.2 47.9029ZM411.008 44.4806V51.325H411.145L415 47.8246V51.325H416.531V44.4806H416.413L412.538 47.9712V44.4806H411.008ZM417.825 44.4806V51.325H419.356V48.8416H420.533C422.211 48.8416 423.103 47.893 423.103 46.6612C423.103 45.429 422.211 44.4806 420.533 44.4806H417.825ZM419.356 47.4921V45.83H420.494C421.171 45.83 421.563 46.0939 421.563 46.6612C421.563 47.2282 421.171 47.4921 420.494 47.4921H419.356ZM425.605 49.9953V48.5579H427.763V47.2282H425.605V45.8105H428.744V44.4806H424.035V51.325H428.842V49.9953H425.605ZM431.323 46.9349L429.822 46.1819V47.4041L430.686 48.3036L429.822 49.2131V50.4352L431.323 49.6824V46.9349ZM433.442 46.9349L431.932 46.1819V47.4041L432.805 48.3036L431.932 49.2131V50.4352L433.442 49.6824V46.9349Z" fill="white"/>
<path d="M321.042 61.6719C325.206 61.6719 327.288 64.2076 327.288 69.2784V94.2866C327.288 99.3941 325.224 101.948 321.096 101.948C316.932 101.948 314.85 99.4121 314.85 94.3413V69.3331C314.85 64.2256 316.914 61.6719 321.042 61.6719ZM321.042 65.9952C320.432 65.9952 319.966 66.2233 319.642 66.6791C319.319 67.135 319.157 68.1839 319.157 69.8257V93.794C319.157 95.4355 319.328 96.4844 319.669 96.9406C320.01 97.3965 320.485 97.6245 321.096 97.6245C321.706 97.6245 322.173 97.3965 322.496 96.9406C322.819 96.4844 322.981 95.4355 322.981 93.794V69.8257C322.981 68.1839 322.81 67.135 322.469 66.6791C322.128 66.2233 321.652 65.9952 321.042 65.9952Z" fill="white"/>
</svg>
