<svg width="958" height="1289" viewBox="0 0 958 1289" fill="none" xmlns="http://www.w3.org/2000/svg">
<path fill-rule="evenodd" clip-rule="evenodd" d="M380.528 280.021L492.66 475.37L67.9318 720.608L102.898 781.523L527.626 536.285L638.553 729.532L213.38 976.429L248.346 1037.34L737.114 757.719L434.477 230.489C426.988 232.037 418.293 231.485 410.042 229.274C378.691 220.874 358.955 188.924 367.842 155.756C376.285 124.247 408.146 104.345 441.148 113.188C472.499 121.588 492.235 153.538 483.348 186.706C481.126 194.998 477.254 202.847 472.177 208.597L810.097 802.159C606.491 921.793 401.235 1040.98 196.424 1158.52L84.2913 963.169L510.67 718.373L474.498 655.357L49.3253 902.254L-61.6013 709.006L363.571 462.11L326.955 400.753L-97.773 645.991L-136.356 578.774L380.528 280.021Z" fill="url(#paint0_linear)"/>
<defs>
<linearGradient id="paint0_linear" x1="411.112" y1="377.803" x2="263.793" y2="1005.99" gradientUnits="userSpaceOnUse">
<stop stop-color="#EAFF00"/>
<stop offset="0.1363" stop-color="#E9FF00"/>
<stop offset="0.3491" stop-color="#B6FE09"/>
<stop offset="0.6119" stop-color="#9FFD0D"/>
<stop offset="0.9118" stop-color="#6BFC16"/>
<stop offset="1" stop-color="#11FA25"/>
</linearGradient>
</defs>
</svg>
