<svg width="931" height="351" viewBox="0 0 931 351" fill="none" xmlns="http://www.w3.org/2000/svg">
<path d="M291.056 7.2L283.52 24H283.136L275.6 7.2H276.896L283.328 21.792L289.76 7.2H291.056ZM294.688 7.2V24H293.464V7.2H294.688ZM303.404 7.032C304.732 7.032 305.884 7.368 306.86 8.04C307.836 8.696 308.532 9.52 308.948 10.512L307.916 10.92C307.564 10.104 306.996 9.432 306.212 8.904C305.444 8.376 304.508 8.112 303.404 8.112C302.236 8.112 301.284 8.4 300.548 8.976C299.812 9.552 299.444 10.304 299.444 11.232C299.444 12.064 299.684 12.704 300.164 13.152C300.644 13.6 301.372 13.992 302.348 14.328L304.556 15.096C306.028 15.592 307.164 16.184 307.964 16.872C308.764 17.56 309.164 18.52 309.164 19.752C309.164 21.048 308.596 22.112 307.46 22.944C306.34 23.76 305.02 24.168 303.5 24.168C302.092 24.168 300.828 23.8 299.708 23.064C298.588 22.328 297.836 21.384 297.452 20.232L298.484 19.8C298.836 20.776 299.452 21.568 300.332 22.176C301.228 22.784 302.284 23.088 303.5 23.088C304.732 23.088 305.78 22.784 306.644 22.176C307.524 21.568 307.964 20.76 307.964 19.752C307.964 19.24 307.868 18.792 307.676 18.408C307.484 18.008 307.196 17.672 306.812 17.4C306.444 17.112 306.084 16.888 305.732 16.728C305.38 16.568 304.932 16.392 304.388 16.2L302.084 15.408C300.82 14.976 299.86 14.44 299.204 13.8C298.564 13.16 298.244 12.304 298.244 11.232C298.244 10.032 298.74 9.032 299.732 8.232C300.724 7.432 301.948 7.032 303.404 7.032ZM319.493 14.832C320.709 15.168 321.613 15.72 322.205 16.488C322.813 17.24 323.117 18.136 323.117 19.176C323.117 22.392 321.109 24 317.093 24H311.813V7.2H317.093C318.773 7.2 320.037 7.568 320.885 8.304C321.733 9.04 322.157 10.048 322.157 11.328C322.157 13.168 321.269 14.336 319.493 14.832ZM313.037 14.328H317.093C318.453 14.328 319.437 14.088 320.045 13.608C320.653 13.128 320.957 12.368 320.957 11.328C320.957 9.296 319.669 8.28 317.093 8.28H313.037V14.328ZM317.093 22.92C318.725 22.92 319.933 22.624 320.717 22.032C321.517 21.424 321.917 20.472 321.917 19.176C321.917 18.024 321.501 17.112 320.669 16.44C319.853 15.752 318.661 15.408 317.093 15.408H313.037V22.92H317.093ZM336.932 7.2L330.74 15.768V24H329.54V15.768L323.348 7.2H324.692L330.14 14.784L335.588 7.2H336.932ZM354.321 7.032C356.353 7.032 358.129 7.728 359.649 9.12L358.881 9.984C357.681 8.784 356.161 8.184 354.321 8.184C352.497 8.184 350.849 8.896 349.377 10.32C347.921 11.744 347.193 13.504 347.193 15.6C347.193 17.696 347.921 19.456 349.377 20.88C350.849 22.304 352.497 23.016 354.321 23.016C356.161 23.016 357.681 22.416 358.881 21.216L359.649 22.08C358.129 23.472 356.353 24.168 354.321 24.168C352.913 24.168 351.569 23.816 350.289 23.112C349.025 22.392 347.977 21.368 347.145 20.04C346.329 18.712 345.921 17.232 345.921 15.6C345.921 13.968 346.329 12.488 347.145 11.16C347.977 9.832 349.025 8.816 350.289 8.112C351.569 7.392 352.913 7.032 354.321 7.032ZM371.756 8.304H363.068V15.024H370.316V16.128H363.068V24H361.82V7.2H371.756V8.304ZM394.783 16.752V17.712H381.103V16.752H394.783ZM408.967 11.4C410.119 11.4 411.119 11.728 411.967 12.384C412.815 13.024 413.239 13.768 413.239 14.616C413.239 16.008 412.359 16.912 410.599 17.328C411.591 17.472 412.407 17.816 413.047 18.36C413.687 18.888 414.007 19.6 414.007 20.496C414.007 21.584 413.511 22.472 412.519 23.16C411.527 23.832 410.351 24.168 408.991 24.168C407.615 24.168 406.463 23.776 405.535 22.992C404.607 22.208 404.143 21.224 404.143 20.04H405.343C405.343 20.92 405.703 21.648 406.423 22.224C407.143 22.8 407.999 23.088 408.991 23.088C410.015 23.088 410.903 22.856 411.655 22.392C412.423 21.928 412.807 21.296 412.807 20.496C412.807 19.68 412.399 19.04 411.583 18.576C410.783 18.112 409.767 17.888 408.535 17.904V16.896C410.871 16.848 412.039 16.088 412.039 14.616C412.039 14.008 411.743 13.504 411.151 13.104C410.559 12.688 409.831 12.48 408.967 12.48C408.135 12.48 407.407 12.72 406.783 13.2C406.159 13.68 405.847 14.256 405.847 14.928H404.646C404.646 13.968 405.071 13.144 405.919 12.456C406.767 11.752 407.783 11.4 408.967 11.4ZM421.998 11.376C423.006 11.376 423.942 11.632 424.806 12.144C425.686 12.656 426.35 13.392 426.798 14.352V11.52H427.998V24H426.798V21.192C426.35 22.152 425.686 22.888 424.806 23.4C423.942 23.912 423.006 24.168 421.998 24.168C420.494 24.168 419.126 23.6 417.894 22.464C416.662 21.328 416.046 19.768 416.046 17.784C416.046 16.76 416.23 15.832 416.598 15C416.966 14.152 417.438 13.472 418.014 12.96C418.606 12.448 419.246 12.056 419.934 11.784C420.622 11.512 421.31 11.376 421.998 11.376ZM422.07 12.456C420.854 12.456 419.742 12.928 418.734 13.872C417.742 14.8 417.246 16.104 417.246 17.784C417.246 19.464 417.742 20.768 418.734 21.696C419.742 22.624 420.854 23.088 422.07 23.088C423.302 23.088 424.406 22.632 425.382 21.72C426.358 20.792 426.846 19.48 426.846 17.784C426.846 16.072 426.358 14.76 425.382 13.848C424.406 12.92 423.302 12.456 422.07 12.456ZM440.425 11.52V12.6H432.312V24H431.113V11.52H440.425ZM443.84 13.08C445.088 11.944 446.464 11.376 447.968 11.376C449.472 11.376 450.848 11.944 452.096 13.08C453.344 14.216 453.968 15.776 453.968 17.76C453.968 18.784 453.784 19.72 453.416 20.568C453.048 21.4 452.568 22.072 451.976 22.584C451.384 23.096 450.736 23.488 450.032 23.76C449.344 24.032 448.656 24.168 447.968 24.168C447.28 24.168 446.584 24.032 445.88 23.76C445.192 23.488 444.552 23.096 443.96 22.584C443.368 22.072 442.888 21.4 442.52 20.568C442.152 19.72 441.968 18.784 441.968 17.76C441.968 15.776 442.592 14.216 443.84 13.08ZM451.28 13.848C450.288 12.92 449.184 12.456 447.968 12.456C446.752 12.456 445.648 12.92 444.656 13.848C443.664 14.776 443.168 16.08 443.168 17.76C443.168 19.44 443.664 20.752 444.656 21.696C445.648 22.624 446.752 23.088 447.968 23.088C449.184 23.088 450.288 22.624 451.28 21.696C452.272 20.752 452.768 19.44 452.768 17.76C452.768 16.08 452.272 14.776 451.28 13.848ZM468.73 11.52V24H467.53V12.6H459.49V22.224C459.49 22.896 459.306 23.384 458.938 23.688C458.586 23.992 458.154 24.144 457.642 24.144C456.89 24.144 456.226 24 455.65 23.712V22.632C456.258 22.936 456.802 23.088 457.282 23.088C457.634 23.088 457.89 23.016 458.05 22.872C458.21 22.712 458.29 22.416 458.29 21.984V11.52H468.73ZM473.371 13.08C474.619 11.944 475.995 11.376 477.499 11.376C479.003 11.376 480.379 11.944 481.627 13.08C482.875 14.216 483.499 15.776 483.499 17.76C483.499 18.784 483.315 19.72 482.947 20.568C482.579 21.4 482.099 22.072 481.507 22.584C480.915 23.096 480.267 23.488 479.563 23.76C478.875 24.032 478.187 24.168 477.499 24.168C476.811 24.168 476.115 24.032 475.411 23.76C474.723 23.488 474.083 23.096 473.491 22.584C472.899 22.072 472.419 21.4 472.051 20.568C471.683 19.72 471.499 18.784 471.499 17.76C471.499 15.776 472.123 14.216 473.371 13.08ZM480.811 13.848C479.819 12.92 478.715 12.456 477.499 12.456C476.283 12.456 475.179 12.92 474.187 13.848C473.195 14.776 472.699 16.08 472.699 17.76C472.699 19.44 473.195 20.752 474.187 21.696C475.179 22.624 476.283 23.088 477.499 23.088C478.715 23.088 479.819 22.624 480.811 21.696C481.803 20.752 482.299 19.44 482.299 17.76C482.299 16.08 481.803 14.776 480.811 13.848ZM493.965 17.136C494.845 17.392 495.501 17.816 495.933 18.408C496.365 18.984 496.581 19.656 496.581 20.424C496.581 22.808 494.901 24 491.541 24H486.141V11.52H491.541C492.885 11.52 493.901 11.8 494.589 12.36C495.293 12.904 495.645 13.656 495.645 14.616C495.645 15.192 495.501 15.72 495.213 16.2C494.941 16.664 494.525 16.976 493.965 17.136ZM487.341 12.6V16.656H491.541C492.565 16.656 493.309 16.496 493.773 16.176C494.237 15.856 494.469 15.336 494.469 14.616C494.469 13.272 493.493 12.6 491.541 12.6H487.341ZM491.541 22.92C494.117 22.92 495.405 22.088 495.405 20.424C495.405 18.632 494.117 17.736 491.541 17.736H487.341V22.92H491.541ZM500.605 13.08C501.853 11.944 503.229 11.376 504.733 11.376C506.237 11.376 507.613 11.944 508.861 13.08C510.109 14.216 510.733 15.776 510.733 17.76C510.733 18.784 510.549 19.72 510.181 20.568C509.813 21.4 509.333 22.072 508.741 22.584C508.149 23.096 507.501 23.488 506.797 23.76C506.109 24.032 505.421 24.168 504.733 24.168C504.045 24.168 503.349 24.032 502.645 23.76C501.957 23.488 501.317 23.096 500.725 22.584C500.133 22.072 499.653 21.4 499.285 20.568C498.917 19.72 498.733 18.784 498.733 17.76C498.733 15.776 499.357 14.216 500.605 13.08ZM508.045 13.848C507.053 12.92 505.949 12.456 504.733 12.456C503.517 12.456 502.413 12.92 501.421 13.848C500.429 14.776 499.933 16.08 499.933 17.76C499.933 19.44 500.429 20.752 501.421 21.696C502.413 22.624 503.517 23.088 504.733 23.088C505.949 23.088 507.053 22.624 508.045 21.696C509.037 20.752 509.533 19.44 509.533 17.76C509.533 16.08 509.037 14.776 508.045 13.848ZM523.815 24H522.231L516.207 17.928L514.695 19.44V24H513.495V11.52H514.695V17.928L521.103 11.52H522.615L516.975 17.16L523.815 24ZM544.356 7.2H545.58V24H544.356V16.344H534.756V24H533.532V7.2H534.756V15.264H544.356V7.2ZM552.05 7.2V24H550.85V8.28H548.69V7.2H552.05ZM564.393 6.12L556.233 27.12H555.057L563.217 6.12H564.393ZM582.928 7.2V17.736H584.728V18.816H582.928V24H581.728V18.816H573.616V18.408L582.448 7.2H582.928ZM581.728 9.768L575.512 17.736H581.728V9.768ZM594.066 14.664C595.01 15.064 595.762 15.664 596.322 16.464C596.898 17.248 597.186 18.16 597.186 19.2C597.186 20.672 596.658 21.872 595.602 22.8C594.562 23.712 593.314 24.168 591.858 24.168C590.402 24.168 589.146 23.712 588.09 22.8C587.05 21.872 586.53 20.672 586.53 19.2C586.53 18.16 586.81 17.248 587.37 16.464C587.946 15.664 588.706 15.064 589.65 14.664C588.946 14.312 588.394 13.816 587.994 13.176C587.61 12.536 587.418 11.864 587.418 11.16C587.418 10.024 587.826 9.056 588.642 8.256C589.458 7.44 590.53 7.032 591.858 7.032C593.186 7.032 594.258 7.44 595.074 8.256C595.89 9.056 596.298 10.024 596.298 11.16C596.298 11.864 596.098 12.536 595.698 13.176C595.314 13.816 594.77 14.312 594.066 14.664ZM588.618 11.16C588.618 12.008 588.93 12.736 589.554 13.344C590.178 13.936 590.946 14.232 591.858 14.232C592.77 14.232 593.538 13.936 594.162 13.344C594.786 12.736 595.098 12.008 595.098 11.16C595.098 10.344 594.802 9.632 594.21 9.024C593.618 8.416 592.834 8.112 591.858 8.112C590.882 8.112 590.098 8.416 589.506 9.024C588.914 9.632 588.618 10.344 588.618 11.16ZM591.858 23.088C593.01 23.088 593.986 22.736 594.786 22.032C595.586 21.312 595.986 20.368 595.986 19.2C595.986 18.064 595.586 17.128 594.786 16.392C594.002 15.656 593.026 15.288 591.858 15.288C590.69 15.288 589.706 15.656 588.906 16.392C588.122 17.128 587.73 18.064 587.73 19.2C587.73 20.352 588.13 21.288 588.93 22.008C589.746 22.728 590.722 23.088 591.858 23.088ZM612.672 11.376C613.36 11.376 614.048 11.512 614.736 11.784C615.424 12.056 616.056 12.448 616.632 12.96C617.224 13.472 617.704 14.152 618.072 15C618.44 15.832 618.624 16.76 618.624 17.784C618.624 19.768 618.008 21.328 616.776 22.464C615.544 23.6 614.176 24.168 612.672 24.168C611.664 24.168 610.72 23.912 609.84 23.4C608.976 22.888 608.32 22.152 607.872 21.192V28.56H606.672V11.52H607.872V14.352C608.32 13.392 608.976 12.656 609.84 12.144C610.72 11.632 611.664 11.376 612.672 11.376ZM612.6 23.088C613.816 23.088 614.92 22.624 615.912 21.696C616.92 20.768 617.424 19.464 617.424 17.784C617.424 16.104 616.92 14.8 615.912 13.872C614.92 12.928 613.816 12.456 612.6 12.456C611.368 12.456 610.264 12.92 609.288 13.848C608.312 14.76 607.824 16.072 607.824 17.784C607.824 19.48 608.312 20.792 609.288 21.72C610.264 22.632 611.368 23.088 612.6 23.088ZM628.697 24L624.713 18.528L620.705 24H619.337L624.065 17.664L619.481 11.52H620.873L624.713 16.776L628.529 11.52H629.921L625.337 17.664L630.065 24H628.697Z" fill="#2B2B2A"/>
<path d="M322.237 263L319.813 257.48H311.797L309.373 263H308.077L315.613 246.2H315.997L323.533 263H322.237ZM312.277 256.4H319.333L315.805 248.408L312.277 256.4ZM331.413 250.4C331.557 250.4 331.821 250.416 332.205 250.448V251.528C332.013 251.512 331.741 251.504 331.389 251.504C330.141 251.52 329.101 251.936 328.269 252.752C327.437 253.552 326.909 254.712 326.685 256.232V263H325.461V250.52H326.685V254.264C326.829 253.224 327.325 252.32 328.173 251.552C329.021 250.784 330.101 250.4 331.413 250.4ZM335.717 246.2V247.4H334.493V246.2H335.717ZM335.717 250.52V263H334.493V250.52H335.717ZM344.318 250.376C345.326 250.376 346.262 250.632 347.126 251.144C348.006 251.656 348.67 252.392 349.118 253.352V250.52H350.318V263H349.118V260.192C348.67 261.152 348.006 261.888 347.126 262.4C346.262 262.912 345.326 263.168 344.318 263.168C342.814 263.168 341.446 262.6 340.214 261.464C338.982 260.328 338.366 258.768 338.366 256.784C338.366 255.76 338.55 254.832 338.918 254C339.286 253.152 339.758 252.472 340.334 251.96C340.926 251.448 341.566 251.056 342.254 250.784C342.942 250.512 343.63 250.376 344.318 250.376ZM344.39 251.456C343.174 251.456 342.062 251.928 341.054 252.872C340.062 253.8 339.566 255.104 339.566 256.784C339.566 258.464 340.062 259.768 341.054 260.696C342.062 261.624 343.174 262.088 344.39 262.088C345.622 262.088 346.726 261.632 347.702 260.72C348.678 259.792 349.166 258.48 349.166 256.784C349.166 255.072 348.678 253.76 347.702 252.848C346.726 251.92 345.622 251.456 344.39 251.456ZM354.537 246.2V263H353.313V246.2H354.537ZM378.182 255.752V256.712H364.502V255.752H378.182ZM392.365 250.4C393.517 250.4 394.517 250.728 395.365 251.384C396.213 252.024 396.637 252.768 396.637 253.616C396.637 255.008 395.757 255.912 393.997 256.328C394.989 256.472 395.805 256.816 396.445 257.36C397.085 257.888 397.405 258.6 397.405 259.496C397.405 260.584 396.909 261.472 395.917 262.16C394.925 262.832 393.749 263.168 392.389 263.168C391.013 263.168 389.861 262.776 388.933 261.992C388.005 261.208 387.541 260.224 387.541 259.04H388.741C388.741 259.92 389.101 260.648 389.821 261.224C390.541 261.8 391.397 262.088 392.389 262.088C393.413 262.088 394.301 261.856 395.053 261.392C395.821 260.928 396.205 260.296 396.205 259.496C396.205 258.68 395.797 258.04 394.981 257.576C394.181 257.112 393.165 256.888 391.933 256.904V255.896C394.269 255.848 395.437 255.088 395.437 253.616C395.437 253.008 395.141 252.504 394.549 252.104C393.957 251.688 393.229 251.48 392.365 251.48C391.533 251.48 390.805 251.72 390.181 252.2C389.557 252.68 389.245 253.256 389.245 253.928H388.045C388.045 252.968 388.469 252.144 389.317 251.456C390.165 250.752 391.181 250.4 392.365 250.4ZM405.396 250.376C406.404 250.376 407.34 250.632 408.204 251.144C409.084 251.656 409.748 252.392 410.196 253.352V250.52H411.396V263H410.196V260.192C409.748 261.152 409.084 261.888 408.204 262.4C407.34 262.912 406.404 263.168 405.396 263.168C403.892 263.168 402.524 262.6 401.292 261.464C400.06 260.328 399.444 258.768 399.444 256.784C399.444 255.76 399.628 254.832 399.996 254C400.364 253.152 400.836 252.472 401.412 251.96C402.004 251.448 402.644 251.056 403.332 250.784C404.02 250.512 404.708 250.376 405.396 250.376ZM405.468 251.456C404.252 251.456 403.14 251.928 402.132 252.872C401.14 253.8 400.644 255.104 400.644 256.784C400.644 258.464 401.14 259.768 402.132 260.696C403.14 261.624 404.252 262.088 405.468 262.088C406.7 262.088 407.804 261.632 408.78 260.72C409.756 259.792 410.244 258.48 410.244 256.784C410.244 255.072 409.756 253.76 408.78 252.848C407.804 251.92 406.7 251.456 405.468 251.456ZM423.823 250.52V251.6H415.711V263H414.511V250.52H423.823ZM427.238 252.08C428.486 250.944 429.862 250.376 431.366 250.376C432.87 250.376 434.246 250.944 435.494 252.08C436.742 253.216 437.366 254.776 437.366 256.76C437.366 257.784 437.182 258.72 436.814 259.568C436.446 260.4 435.966 261.072 435.374 261.584C434.782 262.096 434.134 262.488 433.43 262.76C432.742 263.032 432.054 263.168 431.366 263.168C430.678 263.168 429.982 263.032 429.278 262.76C428.59 262.488 427.95 262.096 427.358 261.584C426.766 261.072 426.286 260.4 425.918 259.568C425.55 258.72 425.366 257.784 425.366 256.76C425.366 254.776 425.99 253.216 427.238 252.08ZM434.678 252.848C433.686 251.92 432.582 251.456 431.366 251.456C430.15 251.456 429.046 251.92 428.054 252.848C427.062 253.776 426.566 255.08 426.566 256.76C426.566 258.44 427.062 259.752 428.054 260.696C429.046 261.624 430.15 262.088 431.366 262.088C432.582 262.088 433.686 261.624 434.678 260.696C435.67 259.752 436.166 258.44 436.166 256.76C436.166 255.08 435.67 253.776 434.678 252.848ZM452.128 250.52V263H450.928V251.6H442.888V261.224C442.888 261.896 442.704 262.384 442.336 262.688C441.984 262.992 441.552 263.144 441.04 263.144C440.288 263.144 439.624 263 439.048 262.712V261.632C439.656 261.936 440.2 262.088 440.68 262.088C441.032 262.088 441.288 262.016 441.448 261.872C441.608 261.712 441.688 261.416 441.688 260.984V250.52H452.128ZM456.77 252.08C458.018 250.944 459.394 250.376 460.898 250.376C462.402 250.376 463.778 250.944 465.026 252.08C466.274 253.216 466.898 254.776 466.898 256.76C466.898 257.784 466.714 258.72 466.346 259.568C465.978 260.4 465.498 261.072 464.906 261.584C464.314 262.096 463.666 262.488 462.962 262.76C462.274 263.032 461.586 263.168 460.898 263.168C460.21 263.168 459.514 263.032 458.81 262.76C458.122 262.488 457.482 262.096 456.89 261.584C456.298 261.072 455.818 260.4 455.45 259.568C455.082 258.72 454.898 257.784 454.898 256.76C454.898 254.776 455.522 253.216 456.77 252.08ZM464.21 252.848C463.218 251.92 462.114 251.456 460.898 251.456C459.682 251.456 458.578 251.92 457.586 252.848C456.594 253.776 456.098 255.08 456.098 256.76C456.098 258.44 456.594 259.752 457.586 260.696C458.578 261.624 459.682 262.088 460.898 262.088C462.114 262.088 463.218 261.624 464.21 260.696C465.202 259.752 465.698 258.44 465.698 256.76C465.698 255.08 465.202 253.776 464.21 252.848ZM477.363 256.136C478.243 256.392 478.899 256.816 479.331 257.408C479.763 257.984 479.979 258.656 479.979 259.424C479.979 261.808 478.299 263 474.939 263H469.539V250.52H474.939C476.283 250.52 477.299 250.8 477.987 251.36C478.691 251.904 479.043 252.656 479.043 253.616C479.043 254.192 478.899 254.72 478.611 255.2C478.339 255.664 477.923 255.976 477.363 256.136ZM470.739 251.6V255.656H474.939C475.963 255.656 476.707 255.496 477.171 255.176C477.635 254.856 477.867 254.336 477.867 253.616C477.867 252.272 476.891 251.6 474.939 251.6H470.739ZM474.939 261.92C477.515 261.92 478.803 261.088 478.803 259.424C478.803 257.632 477.515 256.736 474.939 256.736H470.739V261.92H474.939ZM484.004 252.08C485.252 250.944 486.628 250.376 488.132 250.376C489.636 250.376 491.012 250.944 492.26 252.08C493.508 253.216 494.132 254.776 494.132 256.76C494.132 257.784 493.948 258.72 493.58 259.568C493.212 260.4 492.732 261.072 492.14 261.584C491.548 262.096 490.9 262.488 490.196 262.76C489.508 263.032 488.82 263.168 488.132 263.168C487.444 263.168 486.748 263.032 486.044 262.76C485.356 262.488 484.716 262.096 484.124 261.584C483.532 261.072 483.052 260.4 482.684 259.568C482.316 258.72 482.132 257.784 482.132 256.76C482.132 254.776 482.756 253.216 484.004 252.08ZM491.444 252.848C490.452 251.92 489.348 251.456 488.132 251.456C486.916 251.456 485.812 251.92 484.82 252.848C483.828 253.776 483.332 255.08 483.332 256.76C483.332 258.44 483.828 259.752 484.82 260.696C485.812 261.624 486.916 262.088 488.132 262.088C489.348 262.088 490.452 261.624 491.444 260.696C492.436 259.752 492.932 258.44 492.932 256.76C492.932 255.08 492.436 253.776 491.444 252.848ZM507.214 263H505.63L499.606 256.928L498.094 258.44V263H496.894V250.52H498.094V256.928L504.502 250.52H506.014L500.374 256.16L507.214 263ZM527.754 246.2H528.978V263H527.754V255.344H518.154V263H516.93V246.2H518.154V254.264H527.754V246.2ZM536.816 246.032C538.208 246.032 539.4 246.504 540.392 247.448C541.4 248.376 541.904 249.512 541.904 250.856C541.904 251.368 541.824 251.864 541.664 252.344C541.504 252.808 541.216 253.336 540.8 253.928C540.4 254.504 540.008 255.024 539.624 255.488C539.256 255.936 538.704 256.576 537.968 257.408C537.728 257.68 537.544 257.888 537.416 258.032L533.984 261.92H541.904V263H531.968V262.568L536.384 257.48C536.624 257.208 536.992 256.792 537.488 256.232C537.984 255.656 538.312 255.272 538.472 255.08C538.648 254.888 538.904 254.592 539.24 254.192C539.576 253.776 539.8 253.472 539.912 253.28C540.024 253.072 540.16 252.816 540.32 252.512C540.48 252.192 540.584 251.912 540.632 251.672C540.68 251.416 540.704 251.144 540.704 250.856C540.704 249.752 540.328 248.856 539.576 248.168C538.824 247.464 537.904 247.112 536.816 247.112C535.744 247.112 534.824 247.48 534.056 248.216C533.304 248.936 532.928 249.896 532.928 251.096V251.48H531.728V251.096C531.728 249.64 532.216 248.432 533.192 247.472C534.184 246.512 535.392 246.032 536.816 246.032ZM553.393 245.12L545.233 266.12H544.057L552.217 245.12H553.393ZM567.824 246.032C569.216 246.032 570.408 246.504 571.4 247.448C572.408 248.376 572.912 249.512 572.912 250.856C572.912 251.368 572.832 251.864 572.672 252.344C572.512 252.808 572.224 253.336 571.808 253.928C571.408 254.504 571.016 255.024 570.632 255.488C570.264 255.936 569.712 256.576 568.976 257.408C568.736 257.68 568.552 257.888 568.424 258.032L564.992 261.92H572.912V263H562.976V262.568L567.392 257.48C567.632 257.208 568 256.792 568.496 256.232C568.992 255.656 569.32 255.272 569.48 255.08C569.656 254.888 569.912 254.592 570.248 254.192C570.584 253.776 570.808 253.472 570.92 253.28C571.032 253.072 571.168 252.816 571.328 252.512C571.488 252.192 571.592 251.912 571.64 251.672C571.688 251.416 571.712 251.144 571.712 250.856C571.712 249.752 571.336 248.856 570.584 248.168C569.832 247.464 568.912 247.112 567.824 247.112C566.752 247.112 565.832 247.48 565.064 248.216C564.312 248.936 563.936 249.896 563.936 251.096V251.48H562.736V251.096C562.736 249.64 563.224 248.432 564.2 247.472C565.192 246.512 566.4 246.032 567.824 246.032ZM584.256 246.2V256.736H586.056V257.816H584.256V263H583.056V257.816H574.944V257.408L583.776 246.2H584.256ZM583.056 248.768L576.84 256.736H583.056V248.768ZM601.414 250.376C602.102 250.376 602.79 250.512 603.478 250.784C604.166 251.056 604.798 251.448 605.374 251.96C605.966 252.472 606.446 253.152 606.814 254C607.182 254.832 607.366 255.76 607.366 256.784C607.366 258.768 606.75 260.328 605.518 261.464C604.286 262.6 602.918 263.168 601.414 263.168C600.406 263.168 599.462 262.912 598.582 262.4C597.718 261.888 597.062 261.152 596.614 260.192V267.56H595.414V250.52H596.614V253.352C597.062 252.392 597.718 251.656 598.582 251.144C599.462 250.632 600.406 250.376 601.414 250.376ZM601.342 262.088C602.558 262.088 603.662 261.624 604.654 260.696C605.662 259.768 606.166 258.464 606.166 256.784C606.166 255.104 605.662 253.8 604.654 252.872C603.662 251.928 602.558 251.456 601.342 251.456C600.11 251.456 599.006 251.92 598.03 252.848C597.054 253.76 596.566 255.072 596.566 256.784C596.566 258.48 597.054 259.792 598.03 260.72C599.006 261.632 600.11 262.088 601.342 262.088ZM617.439 263L613.455 257.528L609.447 263H608.079L612.807 256.664L608.223 250.52H609.615L613.455 255.776L617.271 250.52H618.663L614.079 256.664L618.807 263H617.439Z" fill="#2B2B2A"/>
<path d="M39.7535 72.4H38.4095L22.6175 106H30.8255L34.5215 97.744H43.6415L47.3375 106H55.5455L39.7535 72.4ZM39.0815 86.464L41.5295 91.456H36.6335L39.0815 86.464ZM82.0734 84.592V78.64H94.7454V72.4H74.5854V106H87.8334C96.0414 106 100.361 101.344 100.361 95.296C100.361 89.248 96.0414 84.592 87.8334 84.592H82.0734ZM82.0734 99.328V91.216H87.6414C90.9534 91.216 92.8734 92.512 92.8734 95.296C92.8734 98.08 90.9534 99.328 87.6414 99.328H82.0734ZM139.178 87.328C141.626 86.032 142.634 83.632 142.634 81.472C142.634 75.088 137.93 72.4 132.266 72.4H119.21V106H132.842C140.858 106 145.466 101.872 145.466 95.92C145.466 92.608 143.498 89.44 139.178 87.328ZM126.602 84.928V78.736H132.266C133.946 78.736 135.338 79.744 135.338 81.808C135.338 83.872 134.042 84.928 132.266 84.928H126.602ZM126.602 99.664V91.264H133.754C136.874 91.264 138.17 93.616 138.17 95.536C138.17 97.504 136.874 99.664 133.754 99.664H126.602ZM187.663 72.4H165.007V106H172.303V78.64H187.663V72.4ZM241.375 99.76V72.4H213.727V79.12C213.727 87.808 213.727 95.152 212.095 99.76H206.671V109.312H213.967V106H240.127V109.312H247.423V99.76H241.375ZM219.295 99.76C221.023 95.152 221.023 87.808 221.023 79.12V78.64H234.079V99.76H219.295ZM273.824 99.472V92.416H284.384V85.888H273.824V78.928H289.184V72.4H266.144V106H289.664V99.472H273.824ZM318.164 59.872H310.532V67.504H318.164V59.872ZM330.884 59.872H323.252V67.504H330.884V59.872ZM316.34 99.472V92.416H326.9V85.888H316.34V78.928H331.7V72.4H308.66V106H332.18V99.472H316.34ZM394.088 89.248L406.952 72.4H398.264L383.528 92.032V72.4H375.896V92.032L361.16 72.4H352.424L365.288 89.248L350.792 106H359.576L369.56 94.432L375.896 102.592V106H383.528V102.592L389.816 94.432L399.8 106H408.584L394.088 89.248ZM439.597 72.064C433.213 72.064 427.789 75.952 427.789 82L435.469 82.048C435.469 77.92 438.877 78.304 439.597 78.304C440.221 78.304 443.197 79.312 443.197 81.616C443.197 84.592 443.869 85.6 438.109 86.08V91.984C443.869 92.176 444.781 94.048 444.781 95.92C444.781 100.336 440.845 100.24 439.597 100.24C438.253 100.24 434.413 99.952 434.413 96.304L426.733 96.352C426.733 101.968 432.253 106.48 439.597 106.48C446.365 106.48 452.509 102.352 452.509 95.92C452.509 91.264 447.613 88.48 445.309 88.672C447.613 88.24 450.829 85.744 450.829 81.616C450.829 76.528 445.597 72.064 439.597 72.064ZM471.703 72.4V106H472.375L491.239 88.816V106H498.727V72.4H498.151L479.191 89.536V72.4H471.703ZM537.246 60.544C536.958 62.224 535.518 63.712 533.502 63.712C531.534 63.712 530.046 62.224 529.758 60.544H524.094C524.142 64.96 527.79 70.384 533.454 70.384C539.982 70.384 542.862 64.96 542.862 60.544H537.246ZM518.718 72.4V106H519.39L538.254 88.816V106H545.742V72.4H545.166L526.206 89.536V72.4H518.718ZM597.318 72.4H588.582L573.846 92.032V72.4H566.31V106H573.846V102.592L580.182 94.432L590.166 106H598.95L584.454 89.248L597.318 72.4ZM650.262 72.4H620.982V97.552C620.982 98.272 620.454 100 618.966 100C617.67 100 616.758 99.712 615.702 99.184V105.424C616.758 105.952 618.342 106.288 620.646 106.288C624.918 106.288 628.278 104.944 628.278 97.552V78.64H642.966V106H650.262V72.4ZM707.038 72.4H705.214L687.886 94.432L670.606 72.4H668.782V106H676.27V91.216L687.262 104.992H688.558L699.502 91.168V106H707.038V72.4ZM749.726 72.4V85.984H735.47V72.4H727.982V106H735.47V92.416H749.726V106H757.262V72.4H749.726ZM794.412 72.064C786.156 72.064 777.468 79.072 777.468 89.2C777.468 99.328 786.156 106.336 794.412 106.336C802.908 106.336 811.356 99.328 811.356 89.2C811.356 79.072 802.908 72.064 794.412 72.064ZM794.508 79.36C799.548 79.36 803.1 83.2 803.1 89.2C803.1 95.152 799.548 99.04 794.508 99.04C789.804 99.04 785.82 95.152 785.82 89.2C785.82 83.2 789.804 79.36 794.508 79.36ZM831.622 72.4V106H838.918V78.64H853.606V106H860.902V72.4H831.622ZM881.829 72.4V106H889.317V93.808H895.077C903.285 93.808 907.653 89.152 907.653 83.104C907.653 77.056 903.285 72.4 895.077 72.4H881.829ZM889.317 87.184V79.024H894.885C898.197 79.024 900.117 80.32 900.117 83.104C900.117 85.888 898.197 87.184 894.885 87.184H889.317ZM81.8015 130.064C73.4495 130.064 64.8575 137.072 64.8575 147.296C64.8575 157.328 73.4495 164.336 81.8015 164.336C86.3615 164.336 90.2495 162.656 93.1295 160.016L88.5695 154.448C86.9375 155.744 84.7775 157.04 81.9935 157.04C77.0015 157.04 73.1135 152.672 73.1135 147.2C73.1135 141.824 77.0015 137.36 81.9935 137.36C84.7775 137.36 86.8895 138.512 88.4255 139.808L93.0335 134.24C90.1535 131.6 86.3615 130.064 81.8015 130.064ZM138.766 130.4H112.078V137.024H121.438V164H129.454V137.024H138.766V130.4ZM181.957 130.4L173.893 145.28L165.829 130.4H157.717L169.813 152.72L163.717 164H171.781L190.021 130.4H181.957ZM248.099 147.2C248.099 139.712 240.995 134.144 231.587 133.568V130.4H224.291V133.568C214.931 134.192 207.875 139.76 207.875 147.2C207.875 154.64 214.931 160.208 224.291 160.832V164H231.587V160.832C240.995 160.256 248.099 154.688 248.099 147.2ZM231.587 139.808C239.267 140.336 240.803 144.608 240.803 147.2C240.803 149.792 239.267 154.064 231.587 154.592V139.808ZM215.171 147.2C215.171 144.608 216.659 140.384 224.291 139.808V154.592C216.659 154.016 215.171 149.792 215.171 147.2ZM299.477 164L287.813 146.96L299.141 130.4H290.357L283.445 140.624L276.437 130.4H267.653L279.077 147.056L267.605 164H276.101L283.397 153.344L290.693 164H299.477ZM348.793 157.76V130.4H341.497V157.76H326.809V130.4H319.513V164H347.449V167.312H354.697V157.76H348.793ZM393.68 130.4V143.696C392.72 145.136 391.136 148.064 387.488 148.064C385.136 148.064 382.256 147.248 382.256 143.552V130.4H374.96V143.552C374.96 151.328 379.472 154.304 386.048 154.304C390.32 154.304 393.104 151.856 393.68 150.464V164H400.976V130.4H393.68ZM465.528 130.4V157.76H450.84V130.4H443.544V157.76H428.856V130.4H421.56V164H472.824V130.4H465.528ZM544.871 157.76V130.4H537.575V157.76H522.887V130.4H515.591V157.76H500.903V130.4H493.607V164H543.575V167.312H550.823V157.76H544.871ZM585.245 142.592V130.4H570.509V136.64H577.757V164H591.005C599.213 164 603.581 159.344 603.581 153.296C603.581 147.248 599.213 142.592 591.005 142.592H585.245ZM585.245 157.328V149.216H590.813C594.125 149.216 596.045 150.512 596.045 153.296C596.045 156.08 594.125 157.328 590.813 157.328H585.245ZM638.386 164C646.594 164 650.914 159.344 650.914 153.296C650.914 147.248 646.594 142.592 638.386 142.592H632.626V130.4H625.138V164H638.386ZM664.21 130.4H656.53V164H664.21V130.4ZM638.194 149.216C641.506 149.216 643.426 150.512 643.426 153.296C643.426 156.08 641.506 157.328 638.194 157.328H632.626V149.216H638.194ZM698.811 164C707.019 164 711.387 159.344 711.387 153.296C711.387 147.248 707.019 142.592 698.811 142.592H693.051V130.4H685.563V164H698.811ZM698.619 149.216C701.931 149.216 703.851 150.512 703.851 153.296C703.851 156.08 701.931 157.328 698.619 157.328H693.051V149.216H698.619ZM740.803 130.064C736.243 130.064 732.451 131.6 729.571 134.24L734.179 139.808C735.715 138.512 737.827 137.36 740.611 137.36C744.595 137.36 747.859 140.192 749.011 144.032H744.403V150.272H749.059C747.907 154.208 744.643 157.04 740.611 157.04C737.827 157.04 735.667 155.744 734.035 154.448L729.475 160.016C732.355 162.656 736.243 164.336 740.803 164.336C749.155 164.336 757.747 157.328 757.747 147.296C757.747 137.072 749.155 130.064 740.803 130.064ZM803.07 130.064C795.726 130.064 787.998 135.632 786.414 144.032H784.542V130.4H776.862V164H784.542V150.272H786.414C787.95 158.72 795.678 164.336 803.07 164.336C811.566 164.336 820.014 157.328 820.014 147.2C820.014 137.072 811.566 130.064 803.07 130.064ZM803.166 157.04C798.462 157.04 794.478 153.152 794.478 147.2C794.478 141.2 798.462 137.36 803.166 137.36C808.206 137.36 811.758 141.2 811.758 147.2C811.758 153.152 808.206 157.04 803.166 157.04ZM851.464 130.4C843.256 130.4 838.888 135.056 838.888 141.104C838.888 145.904 841.624 149.792 846.808 151.232L838.072 164H846.712L854.584 151.808H857.224V164H864.712V130.4H851.464ZM857.224 145.184H851.656C848.344 145.184 846.424 143.888 846.424 141.104C846.424 138.32 848.344 137.024 851.656 137.024H857.224V145.184Z" fill="#2B2B2A"/>
<path d="M257.051 318L263.648 300.82H266.098L273.129 318H270.539L268.535 312.797H261.352L259.465 318H257.051ZM262.008 310.945H267.832L266.039 306.188C265.492 304.742 265.086 303.555 264.82 302.625C264.602 303.727 264.293 304.82 263.895 305.906L262.008 310.945ZM281.73 300.82H292.875V302.848H284.004V308.145H288.105C289.621 308.145 290.824 308.289 291.715 308.578C292.613 308.867 293.332 309.414 293.871 310.219C294.41 311.016 294.68 311.945 294.68 313.008C294.68 313.875 294.484 314.688 294.094 315.445C293.711 316.195 293.137 316.809 292.371 317.285C291.605 317.762 290.301 318 288.457 318H281.73V300.82ZM284.004 316.066H288.551C289.777 316.066 290.695 315.816 291.305 315.316C291.922 314.816 292.23 314.066 292.23 313.066C292.23 312.355 292.055 311.762 291.703 311.285C291.352 310.809 290.863 310.492 290.238 310.336C289.613 310.18 288.547 310.102 287.039 310.102H284.004V316.066ZM303.961 318V300.82H310.406C311.719 300.82 312.77 300.996 313.559 301.348C314.355 301.691 314.977 302.227 315.422 302.953C315.875 303.672 316.102 304.426 316.102 305.215C316.102 305.949 315.902 306.641 315.504 307.289C315.105 307.938 314.504 308.461 313.699 308.859C314.738 309.164 315.535 309.684 316.09 310.418C316.652 311.152 316.934 312.02 316.934 313.02C316.934 313.824 316.762 314.574 316.418 315.27C316.082 315.957 315.664 316.488 315.164 316.863C314.664 317.238 314.035 317.523 313.277 317.719C312.527 317.906 311.605 318 310.512 318H303.961ZM306.234 308.039H309.949C310.957 308.039 311.68 307.973 312.117 307.84C312.695 307.668 313.129 307.383 313.418 306.984C313.715 306.586 313.863 306.086 313.863 305.484C313.863 304.914 313.727 304.414 313.453 303.984C313.18 303.547 312.789 303.25 312.281 303.094C311.773 302.93 310.902 302.848 309.668 302.848H306.234V308.039ZM306.234 315.973H310.512C311.246 315.973 311.762 315.945 312.059 315.891C312.582 315.797 313.02 315.641 313.371 315.422C313.723 315.203 314.012 314.887 314.238 314.473C314.465 314.051 314.578 313.566 314.578 313.02C314.578 312.379 314.414 311.824 314.086 311.355C313.758 310.879 313.301 310.547 312.715 310.359C312.137 310.164 311.301 310.066 310.207 310.066H306.234V315.973ZM326.777 300.82H337.887V302.848H329.051V318H326.777V300.82ZM347.988 300.82H358.441V315.973H359.988V322.008H357.961V318H346.605V322.008H344.578V315.973H345.914C347.297 313.887 347.988 309.672 347.988 303.328V300.82ZM356.168 302.848H350.18V303.727C350.18 305.188 350.047 307.188 349.781 309.727C349.523 312.258 349.012 314.34 348.246 315.973H356.168V302.848ZM369.422 318V300.82H381.844V302.848H371.695V308.109H381.199V310.125H371.695V315.973H382.242V318H369.422ZM392.109 318V300.82H404.531V302.848H394.383V308.109H403.887V310.125H394.383V315.973H404.93V318H392.109ZM395.027 299.766V297.363H397.23V299.766H395.027ZM399.398 299.766V297.363H401.602V299.766H399.398ZM425.168 300.82V308.344C426.285 308.344 427.051 308.141 427.465 307.734C427.887 307.32 428.422 306.355 429.07 304.84C429.547 303.715 429.938 302.922 430.242 302.461C430.555 301.992 430.996 301.602 431.566 301.289C432.137 300.969 432.762 300.809 433.441 300.809C434.184 300.809 434.645 300.816 434.824 300.832V302.801C434.754 302.801 434.605 302.797 434.379 302.789C434.129 302.781 433.977 302.777 433.922 302.777C433.195 302.777 432.656 302.953 432.305 303.305C431.945 303.656 431.535 304.406 431.074 305.555C430.574 306.797 430.141 307.645 429.773 308.098C429.406 308.543 428.875 308.914 428.18 309.211C429.305 309.523 430.395 310.547 431.449 312.281L434.988 318H432.176L429.305 313.336C428.539 312.102 427.895 311.23 427.371 310.723C426.848 310.215 426.113 309.961 425.168 309.961V318H422.836V309.961C422.086 309.961 421.422 310.16 420.844 310.559C420.273 310.949 419.605 311.797 418.84 313.102L418.699 313.336L415.828 318H413.004L416.543 312.281C417.621 310.539 418.715 309.516 419.824 309.211C419.207 308.961 418.703 308.629 418.312 308.215C417.922 307.793 417.457 306.906 416.918 305.555C416.426 304.328 416.004 303.559 415.652 303.246C415.301 302.934 414.777 302.777 414.082 302.777L413.168 302.801V300.832C413.254 300.816 413.691 300.809 414.48 300.809C415.23 300.809 415.879 300.965 416.426 301.277C416.98 301.582 417.414 301.969 417.727 302.438C418.039 302.898 418.441 303.699 418.934 304.84C419.59 306.379 420.121 307.344 420.527 307.734C420.941 308.125 421.711 308.328 422.836 308.344V300.82H425.168ZM442.688 313.148L444.855 312.586C445.02 313.422 445.457 314.258 446.168 315.094C446.887 315.93 447.836 316.348 449.016 316.348C450.219 316.348 451.168 316.039 451.863 315.422C452.559 314.805 452.906 314.059 452.906 313.184C452.906 312.238 452.539 311.488 451.805 310.934C451.07 310.371 450.07 310.09 448.805 310.09H447.715V308.109C448.762 308.109 449.562 308.051 450.117 307.934C450.672 307.809 451.16 307.5 451.582 307.008C452.012 306.508 452.227 305.941 452.227 305.309C452.227 304.559 451.934 303.906 451.348 303.352C450.77 302.797 449.984 302.52 448.992 302.52C448.125 302.52 447.383 302.738 446.766 303.176C446.156 303.605 445.734 304.18 445.5 304.898C445.266 305.609 445.148 306.141 445.148 306.492L442.969 306C443.508 302.352 445.523 300.527 449.016 300.527C450.695 300.527 452.027 300.996 453.012 301.934C453.996 302.863 454.488 303.953 454.488 305.203C454.488 306.805 453.73 308.047 452.215 308.93C453.09 309.172 453.82 309.668 454.406 310.418C455 311.16 455.297 312.051 455.297 313.09C455.297 314.566 454.723 315.805 453.574 316.805C452.434 317.797 450.918 318.293 449.027 318.293C445.777 318.293 443.664 316.578 442.688 313.148ZM464.848 300.82H466.91V314.426L476.051 300.82H478.336V318H476.273V304.43L467.121 318H464.848V300.82ZM488.777 300.82H490.84V314.426L499.98 300.82H502.266V318H500.203V304.43L491.051 318H488.777V300.82ZM497.32 296.73H498.762C498.645 297.707 498.285 298.457 497.684 298.98C497.09 299.504 496.297 299.766 495.305 299.766C494.305 299.766 493.504 299.508 492.902 298.992C492.309 298.469 491.953 297.715 491.836 296.73H493.277C493.387 297.262 493.602 297.66 493.922 297.926C494.25 298.184 494.688 298.312 495.234 298.312C495.867 298.312 496.344 298.188 496.664 297.938C496.992 297.68 497.211 297.277 497.32 296.73ZM512.707 300.82H514.98V308.344C516.02 308.344 516.75 308.145 517.172 307.746C517.594 307.34 518.133 306.371 518.789 304.84C519.266 303.715 519.656 302.922 519.961 302.461C520.273 301.992 520.715 301.602 521.285 301.289C521.855 300.969 522.484 300.809 523.172 300.809C524.047 300.809 524.508 300.816 524.555 300.832V302.801C524.477 302.801 524.324 302.797 524.098 302.789C523.848 302.781 523.695 302.777 523.641 302.777C522.914 302.777 522.375 302.953 522.023 303.305C521.664 303.656 521.254 304.406 520.793 305.555C520.215 307.008 519.727 307.926 519.328 308.309C518.93 308.684 518.453 308.984 517.898 309.211C519.008 309.516 520.102 310.539 521.18 312.281L524.719 318H521.895L519.023 313.336C518.234 312.047 517.574 311.164 517.043 310.688C516.512 310.203 515.824 309.961 514.98 309.961V318H512.707V300.82ZM534.598 300.82H545.355V318H543.082V302.848H536.871V311.695C536.871 313.492 536.785 314.809 536.613 315.645C536.449 316.48 536.098 317.133 535.559 317.602C535.02 318.062 534.336 318.293 533.508 318.293C533.008 318.293 532.406 318.199 531.703 318.012L532.09 315.996C532.465 316.152 532.785 316.23 533.051 316.23C533.566 316.23 533.953 316.039 534.211 315.656C534.469 315.266 534.598 314.352 534.598 312.914V300.82ZM555.703 318V300.82H559.125L563.191 312.984C563.566 314.117 563.84 314.965 564.012 315.527C564.207 314.902 564.512 313.984 564.926 312.773L569.039 300.82H572.098V318H569.906V303.621L564.914 318H562.863L557.895 303.375V318H555.703ZM582.516 318V300.82H584.789V307.875H593.719V300.82H595.992V318H593.719V309.902H584.789V318H582.516ZM605.777 309.633C605.777 306.781 606.543 304.551 608.074 302.941C609.605 301.324 611.582 300.516 614.004 300.516C615.59 300.516 617.02 300.895 618.293 301.652C619.566 302.41 620.535 303.469 621.199 304.828C621.871 306.18 622.207 307.715 622.207 309.434C622.207 311.176 621.855 312.734 621.152 314.109C620.449 315.484 619.453 316.527 618.164 317.238C616.875 317.941 615.484 318.293 613.992 318.293C612.375 318.293 610.93 317.902 609.656 317.121C608.383 316.34 607.418 315.273 606.762 313.922C606.105 312.57 605.777 311.141 605.777 309.633ZM608.121 309.668C608.121 311.738 608.676 313.371 609.785 314.566C610.902 315.754 612.301 316.348 613.98 316.348C615.691 316.348 617.098 315.746 618.199 314.543C619.309 313.34 619.863 311.633 619.863 309.422C619.863 308.023 619.625 306.805 619.148 305.766C618.68 304.719 617.988 303.91 617.074 303.34C616.168 302.762 615.148 302.473 614.016 302.473C612.406 302.473 611.02 303.027 609.855 304.137C608.699 305.238 608.121 307.082 608.121 309.668ZM631.852 300.82H645.363V318H643.078V302.848H634.125V318H631.852V300.82ZM655.758 318V300.82H662.238C663.379 300.82 664.25 300.875 664.852 300.984C665.695 301.125 666.402 301.395 666.973 301.793C667.543 302.184 668 302.734 668.344 303.445C668.695 304.156 668.871 304.938 668.871 305.789C668.871 307.25 668.406 308.488 667.477 309.504C666.547 310.512 664.867 311.016 662.438 311.016H658.031V318H655.758ZM658.031 308.988H662.473C663.941 308.988 664.984 308.715 665.602 308.168C666.219 307.621 666.527 306.852 666.527 305.859C666.527 305.141 666.344 304.527 665.977 304.02C665.617 303.504 665.141 303.164 664.547 303C664.164 302.898 663.457 302.848 662.426 302.848H658.031V308.988ZM293.508 339.977L295.781 340.551C295.305 342.418 294.445 343.844 293.203 344.828C291.969 345.805 290.457 346.293 288.668 346.293C286.816 346.293 285.309 345.918 284.145 345.168C282.988 344.41 282.105 343.316 281.496 341.887C280.895 340.457 280.594 338.922 280.594 337.281C280.594 335.492 280.934 333.934 281.613 332.605C282.301 331.27 283.273 330.258 284.531 329.57C285.797 328.875 287.188 328.527 288.703 328.527C290.422 328.527 291.867 328.965 293.039 329.84C294.211 330.715 295.027 331.945 295.488 333.531L293.25 334.059C292.852 332.809 292.273 331.898 291.516 331.328C290.758 330.758 289.805 330.473 288.656 330.473C287.336 330.473 286.23 330.789 285.34 331.422C284.457 332.055 283.836 332.906 283.477 333.977C283.117 335.039 282.938 336.137 282.938 337.27C282.938 338.73 283.148 340.008 283.57 341.102C284 342.188 284.664 343 285.562 343.539C286.461 344.078 287.434 344.348 288.48 344.348C289.754 344.348 290.832 343.98 291.715 343.246C292.598 342.512 293.195 341.422 293.508 339.977ZM309.645 346V330.848H303.984V328.82H317.602V330.848H311.918V346H309.645ZM324.891 328.82H327.188L332.789 339.344L337.688 328.82H339.949L333.504 342.18C332.699 343.852 332.039 344.945 331.523 345.461C331.008 345.977 330.27 346.234 329.309 346.234C328.723 346.234 328.004 346.098 327.152 345.824V343.879C327.762 344.23 328.406 344.406 329.086 344.406C329.641 344.406 330.117 344.23 330.516 343.879C330.922 343.52 331.367 342.707 331.852 341.441L324.891 328.82ZM354.773 330.883V328.68H356.906V330.883C359.094 331 360.82 331.66 362.086 332.863C363.352 334.059 363.984 335.547 363.984 337.328C363.984 339.07 363.371 340.551 362.145 341.77C360.918 342.988 359.172 343.66 356.906 343.785V346H354.773V343.785C352.742 343.707 351.051 343.09 349.699 341.934C348.348 340.77 347.672 339.234 347.672 337.328C347.672 335.414 348.344 333.883 349.688 332.734C351.039 331.586 352.734 330.969 354.773 330.883ZM356.906 332.828V341.828C358.375 341.758 359.531 341.332 360.375 340.551C361.219 339.77 361.641 338.695 361.641 337.328C361.641 335.984 361.227 334.922 360.398 334.141C359.57 333.352 358.406 332.914 356.906 332.828ZM354.773 332.84C353.359 332.902 352.215 333.32 351.34 334.094C350.465 334.867 350.027 335.945 350.027 337.328C350.027 338.695 350.457 339.77 351.316 340.551C352.184 341.332 353.336 341.754 354.773 341.816V332.84ZM371.754 346L378.398 337.047L372.539 328.82H375.246L378.363 333.227C379.012 334.141 379.473 334.844 379.746 335.336C380.129 334.711 380.582 334.059 381.105 333.379L384.562 328.82H387.035L381 336.918L387.504 346H384.691L380.367 339.871C380.125 339.52 379.875 339.137 379.617 338.723C379.234 339.348 378.961 339.777 378.797 340.012L374.484 346H371.754ZM396.199 328.82H398.473V343.973H407.426V328.82H409.711V343.973H411.281V350.77H409.266V346H396.199V328.82ZM432.891 346H430.617V339.074C428.578 339.832 426.793 340.211 425.262 340.211C424.066 340.211 423.012 339.934 422.098 339.379C421.184 338.816 420.57 338.105 420.258 337.246C419.953 336.387 419.801 335.262 419.801 333.871V328.82H422.074V333.66C422.074 335.535 422.414 336.77 423.094 337.363C423.781 337.949 424.605 338.242 425.566 338.242C427.168 338.242 428.852 337.887 430.617 337.176V328.82H432.891V346ZM443.355 328.82H445.629V343.973H451.336V328.82H453.609V343.973H459.316V328.82H461.59V346H443.355V328.82ZM472.043 328.82H474.316V343.973H480.023V328.82H482.297V343.973H488.004V328.82H490.277V343.973H491.836V350.77H489.809V346H472.043V328.82ZM499.336 328.82H506.836V336.156H510.949C513.645 336.156 515.41 336.656 516.246 337.656C517.09 338.656 517.512 339.781 517.512 341.031C517.512 342.469 517.023 343.656 516.047 344.594C515.078 345.531 513.426 346 511.09 346H504.562V330.848H499.336V328.82ZM506.836 344.066H510.996C512.426 344.066 513.461 343.828 514.102 343.352C514.742 342.867 515.062 342.102 515.062 341.055C515.062 340.344 514.871 339.746 514.488 339.262C514.113 338.77 513.613 338.457 512.988 338.324C512.363 338.184 511.324 338.113 509.871 338.113H506.836V344.066ZM526.992 328.82H529.266V336.156H533.367C536.055 336.156 537.82 336.652 538.664 337.645C539.516 338.637 539.941 339.762 539.941 341.02C539.941 342.348 539.488 343.512 538.582 344.512C537.676 345.504 535.992 346 533.531 346H526.992V328.82ZM529.266 344.066H533.426C534.855 344.066 535.891 343.828 536.531 343.352C537.18 342.867 537.504 342.098 537.504 341.043C537.504 340.324 537.309 339.723 536.918 339.238C536.527 338.754 536.023 338.445 535.406 338.312C534.789 338.18 533.758 338.113 532.312 338.113H529.266V344.066ZM542.004 328.82H544.277V346H542.004V328.82ZM554.895 328.82H557.168V336.156H561.27C563.184 336.156 564.57 336.379 565.43 336.824C566.289 337.27 566.906 337.875 567.281 338.641C567.656 339.406 567.844 340.195 567.844 341.008C567.844 342.336 567.391 343.5 566.484 344.5C565.578 345.5 563.891 346 561.422 346H554.895V328.82ZM557.168 344.066H561.328C563.016 344.066 564.113 343.77 564.621 343.176C565.137 342.574 565.395 341.852 565.395 341.008C565.395 340.32 565.207 339.738 564.832 339.262C564.465 338.777 563.973 338.465 563.355 338.324C562.738 338.184 561.691 338.113 560.215 338.113H557.168V344.066ZM582.727 336.121V338.148H589.113C589.027 340.078 588.492 341.602 587.508 342.719C586.523 343.828 585.262 344.383 583.723 344.383C580.988 344.383 579.273 342.93 578.578 340.023L576.387 340.598C577.379 344.395 579.77 346.293 583.559 346.293C586.27 346.293 588.285 345.422 589.605 343.68C590.934 341.93 591.555 339.777 591.469 337.223C591.469 335.66 591.172 334.234 590.578 332.945C589.992 331.656 589.09 330.598 587.871 329.77C586.652 328.941 585.199 328.527 583.512 328.527C581.73 328.527 580.238 328.969 579.035 329.852C577.84 330.734 577.031 331.961 576.609 333.531L578.836 334.117C579.484 331.719 581.047 330.52 583.523 330.52C585.195 330.52 586.504 331.023 587.449 332.031C588.402 333.039 588.926 334.402 589.02 336.121H582.727ZM601.242 328.82H603.516V336.531H606.82C606.984 334.094 607.785 332.152 609.223 330.707C610.66 329.254 612.441 328.527 614.566 328.527C616.809 328.527 618.664 329.316 620.133 330.895C621.609 332.473 622.348 334.613 622.348 337.316C622.348 340.129 621.613 342.328 620.145 343.914C618.676 345.5 616.797 346.293 614.508 346.293C612.43 346.293 610.695 345.609 609.305 344.242C607.922 342.867 607.109 340.969 606.867 338.547H603.516V346H601.242V328.82ZM609.105 337.492C609.105 339.664 609.605 341.352 610.605 342.555C611.605 343.75 612.918 344.348 614.543 344.348C616.207 344.348 617.535 343.746 618.527 342.543C619.52 341.34 620.016 339.609 620.016 337.352C620.016 335.211 619.527 333.527 618.551 332.301C617.574 331.066 616.254 330.449 614.59 330.449C612.895 330.449 611.555 331.074 610.57 332.324C609.594 333.566 609.105 335.289 609.105 337.492ZM645.703 346V328.82H638.086C636.555 328.82 635.391 328.977 634.594 329.289C633.797 329.594 633.16 330.137 632.684 330.918C632.207 331.699 631.969 332.562 631.969 333.508C631.969 334.727 632.363 335.754 633.152 336.59C633.941 337.426 635.16 337.957 636.809 338.184C636.207 338.473 635.75 338.758 635.438 339.039C634.773 339.648 634.145 340.41 633.551 341.324L630.562 346H633.422L635.695 342.426C636.359 341.395 636.906 340.605 637.336 340.059C637.766 339.512 638.148 339.129 638.484 338.91C638.828 338.691 639.176 338.539 639.527 338.453C639.785 338.398 640.207 338.371 640.793 338.371H643.43V346H645.703ZM643.43 336.402H638.543C637.504 336.402 636.691 336.297 636.105 336.086C635.52 335.867 635.074 335.523 634.77 335.055C634.465 334.578 634.312 334.062 634.312 333.508C634.312 332.695 634.605 332.027 635.191 331.504C635.785 330.98 636.719 330.719 637.992 330.719H643.43V336.402Z" fill="#2B2B2A"/>
</svg>
