<svg width="1920" height="393" fill="none" xmlns="http://www.w3.org/2000/svg"><path d="M147.257 390.656V152.814l-31.729 237.842H72.227L39.97 151.741v238.915H0V5.379h58.905l35.757 269.049L129.376 5.379h57.847v385.277h-39.966zM370.065 5.38h-42.334l-45.489 232.458V5.379h-39.971v385.277h42.334L330.1 151.203v239.453h39.965V5.379zm105.006 199.092l-7.886-.536v186.72h-43.126V5.375h43.126v159.281h7.886L504.528 5.375h43.65L510.31 181.876l42.92 208.78h-45.755l-32.404-186.184zM652.213 3.227c16.824 0 30.065 1.973 39.705 5.919 9.639 3.945 16.74 10.134 21.298 18.563 4.558 8.43 7.362 19.372 8.415 32.823 1.05 13.453 1.579 29.507 1.579 48.162 0 18.293-.529 34.797-1.579 49.503-1.053 14.709-3.771 27.175-8.154 37.398-4.383 10.222-10.954 18.027-19.72 23.408-8.766 5.382-21.037 8.07-36.811 8.07h-13.678v163.583h-42.596V8.068c23.491-3.226 40.669-4.841 51.541-4.841zm2.627 41.968c-1.753 0-3.68.088-5.785.27-2.103.18-4.03.45-5.787.808v138.291h8.945c11.917 0 19.454-6.634 22.61-19.908 3.155-13.274 4.732-31.033 4.732-53.273 0-22.601-1.486-39.279-4.469-50.043-2.981-10.759-9.728-16.145-20.246-16.145zM1068.91 5.38v42.508h-41.03v342.768h-42.069V47.888H943.74V5.38h125.17zm147.6-.005v42.513h-58.9v113.556h45.76v43.586h-45.76v143.115h59.43v42.511h-102.03V5.375h101.5zm92.91 0v155.443h38.39V5.375h42.08v385.281h-42.08v-186.25h-38.39v186.25h-43.12V5.375h43.12zm211.77 56.53c0-15.296-5.79-22.944-17.36-22.944-11.22 0-16.83 7.648-16.83 22.944v55.499h-43.65V82.183c0-10.314.35-20.366 1.06-30.147.7-9.785 2.89-18.415 6.57-25.882 3.68-7.47 9.64-13.519 17.88-18.147 8.24-4.624 19.9-6.933 34.97-6.933 15.08 0 26.82 2.31 35.24 6.933 8.41 4.628 14.46 10.497 18.14 17.615 3.68 7.114 5.88 15.292 6.58 24.545.7 9.249 1.05 18.322 1.05 27.217v45.889c0 16.853-7.78 40.853-23.14 49.245 7.01 4.982 12.45 10.404 16.3 16.273 3.86 5.869 6.66 12.542 8.42 20.013 1.75 7.466 2.8 15.746 3.15 24.815.35 9.074.53 31.962.53 43.346v38.955c0 49.805-21.04 74.709-63.11 74.709-43.83 0-65.74-24.904-65.74-74.709v-49.627h42.07v44.823c0 16.009 1.67 26.239 5 30.684 3.33 4.446 9.2 6.669 17.62 6.669 9.12 0 15.07-2.49 17.88-7.468 2.8-4.982 4.21-14.946 4.21-29.885v-43.757c0-17.079-1.67-43.167-5-52.954-3.33-9.78-10.26-14.674-20.77-14.674h-26.83v-41.087h28.4c11.57 0 17.36-8.899 17.36-26.684V61.905zM1682.46 0c40.67 0 61.01 24.704 61.01 74.105v243.639c0 49.759-20.16 74.638-60.48 74.638-40.67 0-61-24.704-61-74.105V74.638c0-49.76 20.15-74.638 60.47-74.638zm0 42.118c-5.96 0-10.51 2.223-13.67 6.664-3.15 4.442-4.73 14.66-4.73 30.655v233.508c0 15.992 1.66 26.21 4.99 30.655 3.33 4.442 7.98 6.663 13.94 6.663 5.96 0 10.52-2.221 13.67-6.663 3.16-4.445 4.74-14.663 4.74-30.655V79.437c0-15.995-1.67-26.213-5-30.655-3.33-4.44-7.97-6.664-13.94-6.664zM1849 3.227c16.83 0 30.07 1.973 39.71 5.919 9.64 3.945 16.74 10.134 21.3 18.563 4.55 8.43 7.36 19.372 8.41 32.823 1.05 13.453 1.58 29.507 1.58 48.162 0 18.293-.53 34.797-1.58 49.503-1.05 14.709-3.77 27.175-8.15 37.398-4.38 10.222-10.96 18.027-19.72 23.408-8.77 5.382-21.04 8.07-36.81 8.07h-13.68v163.583h-42.6V8.068c23.5-3.226 40.67-4.841 51.54-4.841zm2.63 41.968c-1.75 0-3.68.088-5.78.27-2.11.18-4.03.45-5.79.808v138.291h8.94c11.92 0 19.46-6.634 22.61-19.908 3.16-13.274 4.74-31.033 4.74-53.273 0-22.601-1.49-39.279-4.47-50.043-2.98-10.759-9.73-16.145-20.25-16.145zM834.793 0c40.669 0 61.006 24.704 61.006 74.105v243.639c0 49.759-20.158 74.638-60.478 74.638-40.669 0-61.007-24.704-61.007-74.105V74.638C774.314 24.878 794.478 0 834.793 0zm0 42.118c-5.96 0-10.514 2.223-13.674 6.664-3.155 4.442-4.732 14.66-4.732 30.655v233.508c0 15.992 1.665 26.21 4.995 30.655 3.333 4.442 7.975 6.663 13.939 6.663 5.956 0 10.518-2.221 13.674-6.663 3.154-4.445 4.732-14.663 4.732-30.655V79.437c0-15.995-1.665-26.213-4.999-30.655-3.326-4.44-7.975-6.664-13.935-6.664z" fill="#fff" fill-opacity=".03"/></svg>