<svg width="566" height="158" fill="none" xmlns="http://www.w3.org/2000/svg"><path fill="#F4F4F4" d="M0 0h566v158H0z"/><path fill-rule="evenodd" clip-rule="evenodd" d="M147.463 83.73l12.869-12.869 28.184 28.184 4.084-4.084-28.184-28.184 12.818-12.818.06-.06 28.184 28.184 4.085-4.084-32.268-32.268-34.803 34.803a4.798 4.798 0 1 1-2.344-2.344L179.337 39l40.698 40.699-12.857 12.857-28.219-28.22-4.105 4.106 28.219 28.219-12.857 12.857-28.219-28.219-4.096 4.096 28.219 28.219-4.386 4.386-34.271-34.27z" fill="url(#paint0_linear)"/><path d="M247.486 101.858V77.109l-3.301 24.749h-4.506l-3.356-24.86v24.86h-4.159v-40.09h6.129l3.721 27.995 3.612-27.996h6.019v40.091h-4.159zm23.185-40.091h-4.405l-4.734 24.189V61.767h-4.159v40.091h4.406l4.733-24.917v24.917h4.159v-40.09zm10.927 20.717l-.821-.056v19.43h-4.487V61.767h4.487V78.34h.821l3.065-16.574h4.542l-3.941 18.365 4.467 21.726h-4.761l-3.372-19.374zm18.432-20.941c1.751 0 3.129.206 4.132.616 1.003.41 1.742 1.055 2.216 1.932.474.877.766 2.016.876 3.415.109 1.4.164 3.07.164 5.012 0 1.903-.055 3.62-.164 5.15-.11 1.531-.393 2.829-.849 3.892-.456 1.064-1.14 1.876-2.052 2.436-.912.56-2.189.84-3.83.84H299.1v17.022h-4.433v-39.81c2.445-.337 4.232-.505 5.363-.505zm.274 4.368c-.183 0-.383.009-.602.028-.219.018-.42.046-.602.084v14.39h.93c1.24 0 2.025-.69 2.353-2.072.329-1.381.493-3.229.493-5.543 0-2.352-.155-4.088-.466-5.208-.31-1.12-1.012-1.68-2.106-1.68zm43.086-4.144v4.424h-4.269v35.667h-4.378V66.191h-4.378v-4.424h13.025zm15.359 0v4.423h-6.129v11.817h4.761v4.535h-4.761v14.892h6.184v4.424h-10.617V61.767h10.562zm9.668 0v16.175h3.995V61.767h4.378v40.091h-4.378v-19.38h-3.995v19.38h-4.488V61.767h4.488zm22.036 5.883c0-1.593-.602-2.388-1.806-2.388-1.168 0-1.751.795-1.751 2.387v5.775h-4.543V69.76c0-1.073.037-2.119.11-3.137.073-1.018.301-1.916.684-2.693.383-.778 1.003-1.407 1.86-1.888.858-.481 2.071-.722 3.64-.722 1.568 0 2.791.24 3.666.722.876.481 1.505 1.092 1.888 1.832s.611 1.592.684 2.555c.073.962.11 1.906.11 2.832v4.775c0 1.753-.81 4.25-2.408 5.124.729.518 1.295 1.083 1.696 1.693a6.43 6.43 0 0 1 .876 2.083c.182.777.292 1.638.328 2.582.036.944.055 3.326.055 4.51v4.054c0 5.182-2.189 7.774-6.567 7.774-4.561 0-6.84-2.592-6.84-7.774v-5.164h4.378v4.664c0 1.666.173 2.73.519 3.193.347.463.958.694 1.833.694.949 0 1.569-.26 1.861-.777.292-.519.438-1.555.438-3.11v-4.553c0-1.777-.173-4.492-.52-5.51-.347-1.018-1.067-1.527-2.162-1.527h-2.79v-4.276h2.955c1.204 0 1.806-.925 1.806-2.776v-7.29zm16.781-6.442c4.232 0 6.348 2.57 6.348 7.71V94.27c0 5.178-2.098 7.767-6.293 7.767-4.232 0-6.348-2.57-6.348-7.711V68.974c0-5.178 2.098-7.766 6.293-7.766zm0 4.382c-.62 0-1.094.231-1.423.694-.328.462-.492 1.525-.492 3.19V93.77c0 1.665.173 2.728.52 3.19.346.462.83.694 1.45.694s1.094-.232 1.423-.694c.328-.462.492-1.525.492-3.19V69.473c0-1.664-.173-2.727-.52-3.19-.346-.462-.83-.693-1.45-.693zm17.33-4.047c1.751 0 3.128.206 4.131.616 1.004.41 1.742 1.055 2.216 1.932.475.877.767 2.016.876 3.415.109 1.4.164 3.07.164 5.012 0 1.903-.055 3.62-.164 5.15-.109 1.531-.392 2.829-.848 3.892-.456 1.064-1.14 1.876-2.052 2.436-.912.56-2.189.84-3.831.84h-1.423v17.022h-4.432v-39.81c2.444-.337 4.232-.505 5.363-.505zm.273 4.368c-.182 0-.383.009-.602.028a5.257 5.257 0 0 0-.602.084v14.39h.931c1.24 0 2.024-.69 2.353-2.072.328-1.381.492-3.229.492-5.543 0-2.352-.155-4.088-.465-5.208-.31-1.12-1.012-1.68-2.107-1.68z" fill="#4A4944"/><path fill-rule="evenodd" clip-rule="evenodd" d="M237.347 44.48h-5.454v1.35h1.913v5.495h1.638V45.83h1.903v-1.35zm119.235-2.414h-1.148a.773.773 0 0 1-.765.645.782.782 0 0 1-.765-.645h-1.157c.01.899.755 2.004 1.912 2.004 1.335 0 1.923-1.105 1.923-2.004zm-116.684 7.93v-1.438h2.158v-1.33h-2.158V45.81h3.139v-1.33h-4.708v6.845h4.806v-1.33h-3.237zm10.761 1.329l-2.384-3.471 2.315-3.373h-1.795l-1.412 2.082-1.433-2.082h-1.795l2.335 3.393-2.345 3.451h1.736l1.492-2.17 1.491 2.17h1.795zm5.601-6.844v2.767h-2.913V44.48h-1.531v6.844h1.531v-2.767h2.913v2.767h1.54V44.48h-1.54zm6.19-.069c-1.687 0-3.463 1.428-3.463 3.49 0 2.064 1.776 3.492 3.463 3.492 1.736 0 3.463-1.428 3.463-3.491s-1.727-3.49-3.463-3.49zm.02 1.486c1.03 0 1.755.783 1.755 2.005 0 1.212-.725 2.004-1.755 2.004-.962 0-1.776-.792-1.776-2.004 0-1.222.814-2.005 1.776-2.005zm11.173-1.417h-5.984v5.123c0 .147-.108.499-.412.499-.265 0-.451-.059-.667-.166v1.27c.216.108.539.177 1.01.177.873 0 1.56-.274 1.56-1.78v-3.852h3.002v5.573h1.491v-6.844zm4.159-.069c-1.687 0-3.463 1.428-3.463 3.49 0 2.064 1.776 3.492 3.463 3.492 1.736 0 3.463-1.428 3.463-3.491s-1.727-3.49-3.463-3.49zm.02 1.486c1.03 0 1.755.783 1.755 2.005 0 1.212-.725 2.004-1.755 2.004-.962 0-1.776-.792-1.776-2.004 0-1.222.814-2.005 1.776-2.005zm9.22-1.417h-4.63v6.844h1.491v-5.573h3.139V44.48zm.942 0v6.844h.138l3.855-3.5v3.5h1.53v-6.844h-.118l-3.875 3.49v-3.49h-1.53zm9.358 0c-1.677 0-2.57.948-2.57 2.18 0 .978.56 1.77 1.619 2.063l-1.785 2.601h1.765l1.609-2.483h.54v2.483h1.53v-6.844h-2.708zm1.178 3.011h-1.138c-.677 0-1.069-.264-1.069-.83 0-.568.392-.832 1.069-.832h1.138v1.662zm5.454-.557v2.747l1.501.753v-1.222l-.864-.91.864-.899v-1.222l-1.501.753zm2.119 0v2.747l1.501.753v-1.222l-.864-.91.864-.899v-1.222l-1.501.753zm8.975-2.454h-1.785l-3.012 3.999v-4h-1.54v6.845h1.54v-.694l1.295-1.662 2.041 2.356h1.795l-2.962-3.413 2.628-3.431zm1.374 0v6.844h1.53v-2.483h1.177c1.678 0 2.57-.949 2.57-2.18 0-1.233-.892-2.181-2.57-2.181h-2.707zm1.53 3.011V45.83h1.138c.677 0 1.069.264 1.069.831s-.392.831-1.069.831h-1.138zm6.249 2.503v-1.437h2.158v-1.33h-2.158V45.81h3.139v-1.33h-4.709v6.845h4.807v-1.33h-3.237zm12.242-5.514h-.373l-3.541 4.488-3.532-4.488h-.372v6.844h1.53v-3.012l2.246 2.807h.265l2.237-2.816v3.021h1.54v-6.844zm5.787 0v2.767h-2.913V44.48h-1.53v6.844h1.53v-2.767h2.913v2.767h1.541V44.48h-1.541zm2.728 0v6.844h.137l3.855-3.5v3.5h1.53v-6.844h-.117l-3.875 3.49v-3.49h-1.53zm6.67 0v6.844h.137l3.855-3.5v3.5h1.531v-6.844h-.118l-3.875 3.49v-3.49h-1.53zm14.175 0v2.767h-2.914V44.48h-1.53v6.844h1.53v-2.767h2.914v2.767h1.54V44.48h-1.54zm6.033 0h-.275l-3.227 6.844h1.677l.755-1.682h1.864l.755 1.682h1.678l-3.227-6.844zm-.138 2.864l.501 1.017h-1.001l.5-1.017zm10.506-2.933c-1.707 0-3.462 1.428-3.462 3.51 0 2.044 1.755 3.472 3.462 3.472.932 0 1.727-.343 2.315-.88l-.932-1.135c-.333.264-.775.528-1.343.528-1.021 0-1.815-.89-1.815-2.004 0-1.095.794-2.005 1.815-2.005.568 0 1 .235 1.314.499l.942-1.134c-.589-.538-1.364-.85-2.296-.85zm6.553.069h-.274l-3.228 6.844h1.678l.755-1.682h1.864l.755 1.682h1.678l-3.228-6.844zm-.137 2.864l.5 1.017h-1l.5-1.017zm4.365-2.864v6.844h1.491v-5.573h3.002v5.573h1.491v-6.844h-5.984zm15.264 3.422c0-1.525-1.452-2.66-3.375-2.777v-.645h-1.491v.645c-1.913.127-3.355 1.261-3.355 2.777 0 1.516 1.442 2.65 3.355 2.777v.645h1.491v-.645c1.923-.118 3.375-1.252 3.375-2.777zm-3.375-1.506c1.57.108 1.884.978 1.884 1.506s-.314 1.398-1.884 1.506v-3.012zm-3.354 1.506c0-.528.304-1.389 1.863-1.506v3.012c-1.559-.118-1.863-.978-1.863-1.506zm7.808-3.422v6.844h.137l3.855-3.5v3.5h1.531v-6.844h-.118l-3.875 3.49v-3.49h-1.53zm6.817 0v6.844h1.531v-2.483h1.177c1.677 0 2.57-.949 2.57-2.18 0-1.233-.893-2.181-2.57-2.181h-2.708zm1.531 3.011V45.83h1.138c.677 0 1.069.264 1.069.831s-.392.831-1.069.831h-1.138zm6.248 2.503v-1.437h2.159v-1.33h-2.159V45.81h3.139v-1.33h-4.708v6.845h4.807v-1.33h-3.238zm5.719-3.06l-1.501-.753v1.222l.864.9-.864.91v1.221l1.501-.753v-2.747zm2.119 0l-1.51-.753v1.222l.873.9-.873.91v1.221l1.51-.753v-2.747z" fill="#4A4944"/><path d="M319.382 61.672c4.164 0 6.246 2.536 6.246 7.606v25.009c0 5.107-2.064 7.661-6.192 7.661-4.164 0-6.246-2.536-6.246-7.607V69.333c0-5.107 2.064-7.661 6.192-7.661zm0 4.323c-.61 0-1.077.228-1.4.684-.323.456-.485 1.505-.485 3.147v23.968c0 1.642.171 2.69.512 3.147.341.456.816.683 1.427.683.61 0 1.077-.227 1.4-.683.323-.457.484-1.505.484-3.147V69.826c0-1.642-.17-2.691-.512-3.147-.34-.456-.816-.684-1.426-.684z" fill="#4A4944"/><defs><linearGradient id="paint0_linear" x1="153.903" y1="77.455" x2="207.493" y2="75.773" gradientUnits="userSpaceOnUse"><stop stop-color="#EAFF00"/><stop offset=".264" stop-color="#EAFF00"/><stop offset="1" stop-color="#11FA25"/></linearGradient></defs></svg>