<svg width="488" height="645" fill="none" xmlns="http://www.w3.org/2000/svg"><mask id="a" maskUnits="userSpaceOnUse" x="0" y="0" width="488" height="645"><path fill="#C4C4C4" d="M0 0h488v645H0z"/></mask><g mask="url(#a)"><path fill-rule="evenodd" clip-rule="evenodd" d="M122.537 368.53l103.53-103.725L452.755 491.92l32.714-32.776L258.781 232.03l103.145-103.339.385-.386 226.688 227.114 32.714-32.775-259.402-259.89-279.8 279.941c2.309 5.013 3.463 10.411 3.463 16.195 0 21.208-17.32 38.559-38.487 38.559C26.319 397.449 9 380.098 9 358.89s17.32-38.559 38.487-38.559c5.773 0 11.161 1.156 16.165 3.47L378.86 8 706 335.754 602.47 439.479l-227.074-227.5-33.098 33.161 227.073 227.5-103.53 103.724-227.073-227.5-33.099 33.161 227.073 227.501L397.334 645 122.537 368.53z" fill="#000" fill-opacity=".2"/></g></svg>