<svg width="407" height="369" fill="none" xmlns="http://www.w3.org/2000/svg"><path fill-rule="evenodd" clip-rule="evenodd" d="M67.074 208.542l60.561-60.231 131.543 131.472 18.884-18.781L146.52 129.529l59.91-59.583 132.194 131.472 18.885-18.782L207.082 31.087 43.63 193.646c1.303 2.591 1.954 5.829 1.954 9.067 0 12.306-9.768 22.668-22.792 22.668C10.419 225.381 0 215.666 0 202.713c0-12.305 9.768-22.667 22.792-22.667 3.256 0 6.512.647 9.117 1.943L216.198 0A26253.331 26253.331 0 0 1 407 189.761l-60.562 60.231-131.542-132.12-19.536 19.429 132.194 131.472-59.911 59.584L135.45 196.885l-18.885 19.429 131.542 131.472-20.838 20.725L67.074 208.542z" fill="#000" fill-opacity=".02"/><path fill-rule="evenodd" clip-rule="evenodd" d="M167.922 167.871l22.777-22.842 49.471 49.858 7.102-7.123-49.471-49.857 22.531-22.596 49.716 49.858 7.102-7.123-56.573-57.471-61.471 61.647c.49.982.734 2.21.734 3.438 0 4.667-3.673 8.596-8.571 8.596-4.653 0-8.572-3.684-8.572-8.596 0-4.666 3.674-8.596 8.572-8.596 1.224 0 2.449.246 3.428.737l69.309-69.015a9933.701 9933.701 0 0 1 71.757 71.962l-22.776 22.841-49.471-50.103-7.347 7.368 49.716 49.858-22.532 22.595-49.716-49.857-7.102 7.368 49.471 49.857-7.837 7.86-60.247-60.664z" fill="url(#paint0_linear)"/><path fill-rule="evenodd" clip-rule="evenodd" d="M228.66 286.988l-12.98-13.017 11.266 14.737-2.45 2.456-14.694-11.298 12.98 13.017-2.204 2.21-20.817-21.122 3.184-3.192 16.653 12.771-12.735-16.455 3.184-3.193 20.817 21.122-2.204 1.964zm-8.817-33.156l-2.204 2.21 10.041 15.228-12.735-12.772-2.204 2.211 20.817 21.122 2.204-2.211-10.286-15.718 12.98 13.017 2.204-2.211-20.817-20.876zm16.409 5.158l12 8.35 2.449-2.456-13.714-9.087-7.592-11.789-2.449 2.456 7.102 10.315-.49.491-8.572-8.596-2.449 2.456 20.817 21.122 2.449-2.456-10.041-10.07.49-.736zm-1.225-20.631c.98-.983 1.715-1.474 2.45-1.965.734-.246 1.469-.246 2.204-.246.734.246 1.469.737 2.204 1.228.735.737 1.714 1.474 2.694 2.457l2.694 2.701c.734.983 1.224 1.719 1.469 2.456.245.737.49 1.474.245 2.456-.245.737-.735 1.474-1.469 2.456l-.735.737 8.817 8.842-2.205 2.21-20.817-20.876c.98-.737 1.96-1.965 2.449-2.456zm2.45 2.21c.489-.491 1.224-.736 1.959-.245.734.491 1.714 1.228 2.939 2.456 1.224 1.228 2.204 2.21 2.694 3.193.489.982.489 1.719-.245 2.21l-.49.491-7.592-7.613.245-.246c.245 0 .49-.246.49-.246zm20.327-24.806l-6.858 6.877 2.205 2.211 2.204-2.211 18.613 18.666 2.204-2.21-18.613-18.666 2.204-2.211-1.959-2.456zm8.082-8.105l2.204 2.211-3.184 3.438 6.123 6.14 2.449-2.456 2.449 2.456-2.449 2.456 7.837 7.86 3.183-3.193 2.205 2.21-5.633 5.649-20.817-21.122 5.633-5.649zm4.898-4.912l8.327 8.596 2.204-2.21-8.327-8.596 2.204-2.211 20.817 21.122-1.959 2.211-10.041-10.07-2.204 1.965 10.041 10.07-2.449 2.456-20.817-21.122 2.204-2.211zm14.694-8.596l3.919 3.93c.979.982 1.224 1.719.489 2.456l-1.469 1.474 2.204 2.21 1.47-1.474c.489-.491 1.224-.736 1.959-.245.735.245 2.204 1.719 3.184 2.701l2.449 2.456c.734.737 1.224 1.474 1.469 1.965 0 .491 0 .983-.49 1.474s-.979.737-1.224.491c-.49 0-.98-.491-1.959-1.474l-2.45-2.456-2.204 2.211 2.694 2.702c2.694 2.701 5.143 2.947 7.592.491 2.204-2.211 1.96-4.912-.734-7.614l-2.205-2.21-2.449-2.456c-.489-.492-.979-.983-1.469-1.228l-1.469-.737h-1.715c.49-1.228-.49-2.948-1.469-3.93l-2.449-2.456-1.47-1.474c-.49-.491-1.224-.736-1.714-.982s-1.225-.246-1.959 0c-.735.246-1.47.737-2.204 1.474-.735.736-1.225 1.473-1.47 2.21-.245.737-.245 1.474 0 1.965.245.491.49 1.228.98 1.719.49.491.979 1.228 1.469 1.719l1.959 1.965 2.449-2.456-3.673-2.456c-.735-.737-.98-1.474-.245-2.21.735-.737 1.469-.492 2.204.245zm5.388-12.034c-2.204 2.21-1.959 4.666.735 7.368l13.225 13.262c2.694 2.702 5.143 2.948 7.347.737 2.204-2.21 1.959-4.666-.735-7.368l-13.225-13.263c-2.694-2.701-5.143-2.947-7.347-.736zm2.204 2.21c-.245.246-.49.737-.49 1.228s.49.983 1.47 1.965l12.735 12.771c.98.983 1.469 1.228 1.959 1.474.49 0 .735 0 1.225-.491.245-.246.49-.737.49-1.228s-.49-.983-1.47-1.965l-12.735-12.772c-.98-.982-1.469-1.228-1.959-1.473-.49 0-.735.245-1.225.491zm7.102-11.298c.98-.982 1.715-1.473 2.45-1.719.734-.246 1.469-.246 2.204-.246.734.246 1.469.737 2.204 1.228.735.737 1.714 1.474 2.694 2.457l2.694 2.701a50.057 50.057 0 0 1 1.714 2.456c.245.737.49 1.474.245 2.456-.245.737-.735 1.474-1.469 2.456l-.735.737 8.816 8.842-2.204 2.21-20.817-20.876c.735-.982 1.47-1.965 2.204-2.702zm2.45 2.211c.489-.491 1.224-.737 1.959-.246.735.491 1.714 1.228 2.939 2.456 1.224 1.228 2.204 2.211 2.694 3.193.489.982.489 1.719-.245 2.21l-.49.492-7.592-7.614.245-.246c.245 0 .245 0 .49-.245zm-57.798 53.05c2.204-2.21 4.653-1.965 7.347.737l13.225 13.263c2.694 2.701 2.939 5.157.735 7.368-2.205 2.21-4.654 1.965-7.348-.737l-13.225-13.263c-2.694-2.701-2.938-5.157-.734-7.368zm2.204 2.211c.245-.246.735-.492 1.224-.492.49 0 .98.492 1.96 1.474l12.735 12.771c.979.983 1.224 1.474 1.469 1.965 0 .491 0 .737-.49 1.228-.489.246-.734.246-1.224.246s-.98-.491-1.959-1.474l-12.736-12.771c-.979-.983-1.224-1.474-1.469-1.965 0-.246.245-.737.49-.982zm-83.024-48.875l-4.898-4.912-1.224 1.228 1.714 1.719-4.898 4.912 1.469 1.474 4.898-4.912 1.715 1.719 1.224-1.228zm-2.694 7.368l2.939 2.948-1.224 1.228-4.164-4.421 6.123-6.14 4.163 4.175-1.224 1.228-2.939-2.702-1.225 1.228 1.96 1.965-1.225 1.228-1.959-1.965-1.225 1.228zm8.572 10.807l.98-5.158 5.143-.982-1.715-1.719-3.183.491.489-3.193-1.714-1.719-.735 5.403-5.143.982 1.47 1.474 3.184-.737-.49 3.193 1.714 1.965zm11.266-.983l1.469 1.474-6.122 6.14-1.47-1.473 2.449-2.456-2.694-2.702-2.449 2.456-1.469-1.474 6.122-6.14 1.47 1.474-2.449 2.456 2.694 2.702 2.449-2.457zm5.633 5.404c-1.47-1.474-4.409-1.719-6.368 0-1.959 1.965-1.469 4.666 0 6.385 1.469 1.474 4.408 1.72 6.368 0 1.714-1.964 1.469-4.912 0-6.385zm-1.47 1.228c-.979-.983-2.204-.983-3.429.245a2.637 2.637 0 0 0-.244 3.439c.979.982 2.204.982 3.428-.246 1.225-.982 1.225-2.456.245-3.438zm11.266 8.842l-6.123 6.14-1.224-1.228 4.898-5.158-2.694-2.702-3.429 3.439c-1.469 1.473-2.204.982-2.939.245-.49-.491-.734-.736-.734-.982l1.224-1.228c0 .245.245.491.49.737.245.245.735 0 .735 0l4.653-4.667 5.143 5.404zm3.918 3.684c-1.469-1.474-4.408-1.72-6.367 0-1.96 1.964-1.47 4.666 0 6.385 1.469 1.474 4.408 1.719 6.367 0 1.715-1.965 1.47-4.912 0-6.385zm-1.224 1.473c-.98-.982-2.204-.982-3.429.246-.98.982-.98 2.456-.245 3.438.98.983 2.204.983 3.429-.245.979-1.228.979-2.702.245-3.439zm9.551 6.877l-1.224 1.228-2.939-2.702-4.898 5.158-1.225-1.719 6.123-6.14 4.163 4.175zm.735.983l-6.123 6.14.245.245 6.613.246-3.184 3.193 1.469 1.473 6.123-6.14-6.613-.245 3.184-3.193-1.714-1.719zm8.327 8.35l2.449 2.456-6.123 6.14-1.224-1.473 2.204-2.211-.49-.491-3.674.737-1.469-1.474 3.918-.737c-.734-1.228-.489-2.456.49-3.438.735-.983 2.449-.983 3.919.491zm-1.47 3.684l1.47-1.474-.98-.982c-.49-.491-1.225-.737-1.714-.246-.49.492-.49.983.245 1.72l.979.982zm-56.573-36.104l-2.449 2.456.735 1.965.979-.982v-1.719h1.47l.979-.983-1.714-.737zm1.959 1.72l1.959.736-.979.983h-1.47v1.719l-.979 1.228-.98-2.21 2.449-2.456zm10.286 5.894l-1.714-1.719-6.123.982 3.674-3.684-1.47-1.473-6.122 6.14 1.469 1.473.735-.737 2.694-.245-.49 4.175 1.714 1.719.49-5.649 5.143-.982zm1.225 1.228l2.449 2.456c1.469 1.474 1.469 3.193.245 4.175-1.225 1.228-2.694 1.228-4.164-.245l-.979-.983-2.204 2.211-1.47-1.474 6.123-6.14zm-1.225 4.175l1.47-1.473.979.982c.49.491.735 1.228.245 1.719-.49.492-.979.492-1.714-.245l-.98-.983zm3.184 7.86l1.225-1.228 1.959 1.964 1.224-1.228-1.959-1.964 1.225-1.228 2.938 2.701 1.225-1.228-4.163-4.175-6.123 6.14 4.408 4.421 1.225-1.228-3.184-2.947zm16.164 5.894l-6.123 6.14-1.469-1.228 2.694-2.701-4.654.491-.244-.246.489-4.666-2.694 2.701-1.469-1.473 6.123-6.14.245.245-.49 7.614 7.102-.982.49.245zm5.143 5.403l-2.449 2.456-2.694-2.701 2.449-2.456-1.47-1.474-6.122 6.386 1.469 1.473 2.449-2.456 2.694 2.702-2.449 2.456 1.47 1.474 6.122-6.14-1.469-1.72zm2.449 2.456l1.469 1.474-3.183 3.193 6.612.246-6.123 6.14-1.469-1.474 3.184-3.193-6.613-.245h-.245l6.368-6.141zm11.51 7.123c-.244.246-.979.246-1.224 0s-.245-.982 0-1.228l-.98-.982c-.734.736-1.224 2.456 0 3.438 1.225 1.228 2.694.737 3.429 0l-1.225-1.228zm-5.632-1.228l-6.123 6.14h.245l6.612.246-3.183 3.193 1.469 1.473 6.123-6.14-6.613-.246 3.184-3.192-1.714-1.474zm-64.411-43.472l-2.449 2.456-2.694-2.702 2.449-2.456-1.469-1.473-6.123 6.14 1.47 1.474 2.449-2.456 2.694 2.701-2.449 2.456 1.469 1.474 6.123-6.14-1.47-1.474zm5.388 5.403l-3.184 9.088-1.714-1.474.735-2.21-1.714-1.72-2.205.737-1.469-1.473 9.061-3.193.49.245zm-2.694 2.456l-1.469.492.979.982.49-1.474zm12.001 6.877c-1.47-1.473-4.409-1.719-6.368 0-1.959 1.965-1.469 4.667 0 6.14.735.737 1.959 1.228 2.939 1.228l.245-1.719c-.49 0-1.225-.245-1.714-.737-.98-.982-.735-2.456.244-3.438a2.62 2.62 0 0 1 3.429-.246c.49.492.735 1.228.735 1.72l1.959-.246c-.245-.982-.735-1.965-1.469-2.702zm5.877 5.895l-3.183 9.087-1.47-1.473.735-2.211-1.714-1.719-2.205.982-1.469-1.473 9.062-3.193h.244zm-2.694 2.456l-1.469.491.98.982.489-1.473zm6.368 1.473l-6.123 6.141 1.225 1.228 4.898-5.158 2.694 2.702-4.898 5.157 1.224 1.228 6.123-6.14-5.143-5.158zm10.776 16.702c-1.47 1.473-3.674.982-5.633-.492l-.49.492-1.469-1.228.49-.492c-1.715-1.719-1.96-4.175-.49-5.403 1.469-1.474 3.673-.982 5.633.491l.489-.491 1.225 1.228-.49.491c1.715 1.719 1.959 4.176.735 5.404zm-1.714-4.421l-2.694 2.701c1.469 1.228 2.449.737 2.938.246.49-.246.98-1.474-.244-2.947zm-4.409-1.474c.49-.491 1.47-.982 2.939.246l-2.694 2.701c-1.224-1.473-.735-2.701-.245-2.947zm10.041 3.93l-6.122 6.14.245.245 6.612.246-3.184 3.193 1.47 1.473 6.122-6.14-6.612-.245 3.184-3.193-1.715-1.719zm6.123 5.894l2.449 2.456c1.47 1.474 1.47 3.193.245 4.176-1.225 1.228-2.694 1.228-4.163-.246l-.98-.983-2.204 2.211-1.47-1.474 6.123-6.14zm-1.224 4.175l1.469-1.473.98.982c.489.491.734 1.228.244 1.719-.489.492-.979.492-1.714-.245l-.979-.983zm3.428 7.86l1.225-1.228 1.959 1.965 1.224-1.228-1.959-1.965 1.225-1.228 2.939 2.701 1.224-1.228-4.408-4.175-6.123 6.14 4.409 4.421 1.224-1.228-2.939-2.947zm7.837 2.456l-2.449 2.456-1.959-.737.979-1.228h1.715v-1.474l.979-.982.735 1.965zm1.959 1.965l-2.449 2.456-1.959-.737.98-1.228h1.714v-1.719l.98-1.228.734 2.456z" fill="#4A4944"/><defs><linearGradient id="paint0_linear" x1="180.266" y1="159.985" x2="272.261" y2="157.113" gradientUnits="userSpaceOnUse"><stop stop-color="#EAFF00"/><stop offset=".136" stop-color="#E9FF00"/><stop offset=".349" stop-color="#B6FE09"/><stop offset=".612" stop-color="#9FFD0D"/><stop offset=".912" stop-color="#6BFC16"/><stop offset="1" stop-color="#11FA25"/></linearGradient></defs></svg>