<svg width="137" height="124" fill="none" xmlns="http://www.w3.org/2000/svg"><path fill-rule="evenodd" clip-rule="evenodd" d="M22.578 70.172l20.385-20.267 44.279 44.24 6.356-6.32-44.278-44.24 20.166-20.049 44.498 44.239 6.357-6.32-50.635-50.994-55.02 54.699c.439.872.658 1.961.658 3.05a7.602 7.602 0 0 1-7.672 7.628C3.507 75.838 0 72.57 0 68.211a7.602 7.602 0 0 1 7.672-7.627c1.096 0 2.192.217 3.069.653L72.774 0A8835.854 8835.854 0 0 1 137 63.852L116.614 84.12 72.336 39.663 65.76 46.2l44.498 44.24-20.167 20.049-44.497-44.24-6.357 6.538 44.278 44.239L76.501 124 22.578 70.172z" fill="url(#paint0_linear)"/><defs><linearGradient id="paint0_linear" x1="33.626" y1="63.175" x2="115.963" y2="60.583" gradientUnits="userSpaceOnUse"><stop stop-color="#EAFF00"/><stop offset=".136" stop-color="#E9FF00"/><stop offset=".349" stop-color="#B6FE09"/><stop offset=".612" stop-color="#9FFD0D"/><stop offset=".912" stop-color="#6BFC16"/><stop offset="1" stop-color="#11FA25"/></linearGradient></defs></svg>