<svg width="958" height="1289" fill="none" xmlns="http://www.w3.org/2000/svg"><path fill-rule="evenodd" clip-rule="evenodd" d="M380.528 280.021L492.66 475.37 67.932 720.608l34.966 60.915 424.728-245.238 110.927 193.247L213.38 976.429l34.966 60.911 488.768-279.621-302.637-527.23c-7.489 1.548-16.184.996-24.435-1.215-31.351-8.4-51.087-40.35-42.2-73.518 8.443-31.509 40.304-51.411 73.306-42.568 31.351 8.4 51.087 40.35 42.2 73.518-2.222 8.292-6.094 16.141-11.171 21.891l337.92 593.562a69481.692 69481.692 0 0 1-613.673 356.361L84.291 963.169 510.67 718.373l-36.172-63.016L49.325 902.254-61.6 709.006 363.57 462.11l-36.616-61.357-424.728 245.238-38.583-67.217 516.884-298.753z" fill="url(#paint0_linear)"/><defs><linearGradient id="paint0_linear" x1="411.112" y1="377.803" x2="263.793" y2="1005.99" gradientUnits="userSpaceOnUse"><stop stop-color="#EAFF00"/><stop offset=".136" stop-color="#E9FF00"/><stop offset=".349" stop-color="#B6FE09"/><stop offset=".612" stop-color="#9FFD0D"/><stop offset=".912" stop-color="#6BFC16"/><stop offset="1" stop-color="#11FA25"/></linearGradient></defs></svg>