<svg width="931" height="351" fill="none" xmlns="http://www.w3.org/2000/svg"><path d="M291.056 7.2L283.52 24h-.384L275.6 7.2h1.296l6.432 14.592L289.76 7.2h1.296zm3.632 0V24h-1.224V7.2h1.224zm8.716-.168c1.328 0 2.48.336 3.456 1.008.976.656 1.672 1.48 2.088 2.472l-1.032.408c-.352-.816-.92-1.488-1.704-2.016-.768-.528-1.704-.792-2.808-.792-1.168 0-2.12.288-2.856.864-.736.576-1.104 1.328-1.104 2.256 0 .832.24 1.472.72 1.92.48.448 1.208.84 2.184 1.176l2.208.768c1.472.496 2.608 1.088 3.408 1.776.8.688 1.2 1.648 1.2 2.88 0 1.296-.568 2.36-1.704 3.192-1.12.816-2.44 1.224-3.96 1.224-1.408 0-2.672-.368-3.792-1.104-1.12-.736-1.872-1.68-2.256-2.832l1.032-.432c.352.976.968 1.768 1.848 2.376.896.608 1.952.912 3.168.912 1.232 0 2.28-.304 3.144-.912.88-.608 1.32-1.416 1.32-2.424 0-.512-.096-.96-.288-1.344-.192-.4-.48-.736-.864-1.008a5.388 5.388 0 0 0-1.08-.672c-.352-.16-.8-.336-1.344-.528l-2.304-.792c-1.264-.432-2.224-.968-2.88-1.608-.64-.64-.96-1.496-.96-2.568 0-1.2.496-2.2 1.488-3 .992-.8 2.216-1.2 3.672-1.2zm16.089 7.8c1.216.336 2.12.888 2.712 1.656.608.752.912 1.648.912 2.688 0 3.216-2.008 4.824-6.024 4.824h-5.28V7.2h5.28c1.68 0 2.944.368 3.792 1.104.848.736 1.272 1.744 1.272 3.024 0 1.84-.888 3.008-2.664 3.504zm-6.456-.504h4.056c1.36 0 2.344-.24 2.952-.72.608-.48.912-1.24.912-2.28 0-2.032-1.288-3.048-3.864-3.048h-4.056v6.048zm4.056 8.592c1.632 0 2.84-.296 3.624-.888.8-.608 1.2-1.56 1.2-2.856 0-1.152-.416-2.064-1.248-2.736-.816-.688-2.008-1.032-3.576-1.032h-4.056v7.512h4.056zM336.932 7.2l-6.192 8.568V24h-1.2v-8.232L323.348 7.2h1.344l5.448 7.584 5.448-7.584h1.344zm17.389-.168c2.032 0 3.808.696 5.328 2.088l-.768.864c-1.2-1.2-2.72-1.8-4.56-1.8-1.824 0-3.472.712-4.944 2.136-1.456 1.424-2.184 3.184-2.184 5.28s.728 3.856 2.184 5.28c1.472 1.424 3.12 2.136 4.944 2.136 1.84 0 3.36-.6 4.56-1.8l.768.864c-1.52 1.392-3.296 2.088-5.328 2.088-1.408 0-2.752-.352-4.032-1.056-1.264-.72-2.312-1.744-3.144-3.072-.816-1.328-1.224-2.808-1.224-4.44 0-1.632.408-3.112 1.224-4.44.832-1.328 1.88-2.344 3.144-3.048 1.28-.72 2.624-1.08 4.032-1.08zm17.435 1.272h-8.688v6.72h7.248v1.104h-7.248V24h-1.248V7.2h9.936v1.104zm23.027 8.448v.96h-13.68v-.96h13.68zm14.184-5.352c1.152 0 2.152.328 3 .984.848.64 1.272 1.384 1.272 2.232 0 1.392-.88 2.296-2.64 2.712.992.144 1.808.488 2.448 1.032.64.528.96 1.24.96 2.136 0 1.088-.496 1.976-1.488 2.664-.992.672-2.168 1.008-3.528 1.008-1.376 0-2.528-.392-3.456-1.176-.928-.784-1.392-1.768-1.392-2.952h1.2c0 .88.36 1.608 1.08 2.184.72.576 1.576.864 2.568.864 1.024 0 1.912-.232 2.664-.696.768-.464 1.152-1.096 1.152-1.896 0-.816-.408-1.456-1.224-1.92-.8-.464-1.816-.688-3.048-.672v-1.008c2.336-.048 3.504-.808 3.504-2.28 0-.608-.296-1.112-.888-1.512-.592-.416-1.32-.624-2.184-.624-.832 0-1.56.24-2.184.72-.624.48-.936 1.056-.936 1.728h-1.201c0-.96.425-1.784 1.273-2.472.848-.704 1.864-1.056 3.048-1.056zm13.031-.024c1.008 0 1.944.256 2.808.768.88.512 1.544 1.248 1.992 2.208V11.52h1.2V24h-1.2v-2.808c-.448.96-1.112 1.696-1.992 2.208-.864.512-1.8.768-2.808.768-1.504 0-2.872-.568-4.104-1.704-1.232-1.136-1.848-2.696-1.848-4.68 0-1.024.184-1.952.552-2.784.368-.848.84-1.528 1.416-2.04a6.678 6.678 0 0 1 1.92-1.176 5.578 5.578 0 0 1 2.064-.408zm.072 1.08c-1.216 0-2.328.472-3.336 1.416-.992.928-1.488 2.232-1.488 3.912 0 1.68.496 2.984 1.488 3.912 1.008.928 2.12 1.392 3.336 1.392 1.232 0 2.336-.456 3.312-1.368.976-.928 1.464-2.24 1.464-3.936 0-1.712-.488-3.024-1.464-3.936-.976-.928-2.08-1.392-3.312-1.392zm18.355-.936v1.08h-8.113V24h-1.199V11.52h9.312zm3.415 1.56c1.248-1.136 2.624-1.704 4.128-1.704s2.88.568 4.128 1.704c1.248 1.136 1.872 2.696 1.872 4.68 0 1.024-.184 1.96-.552 2.808-.368.832-.848 1.504-1.44 2.016a6.583 6.583 0 0 1-1.944 1.176 5.578 5.578 0 0 1-2.064.408 5.764 5.764 0 0 1-2.088-.408 6.678 6.678 0 0 1-1.92-1.176c-.592-.512-1.072-1.184-1.44-2.016-.368-.848-.552-1.784-.552-2.808 0-1.984.624-3.544 1.872-4.68zm7.44.768c-.992-.928-2.096-1.392-3.312-1.392-1.216 0-2.32.464-3.312 1.392-.992.928-1.488 2.232-1.488 3.912 0 1.68.496 2.992 1.488 3.936.992.928 2.096 1.392 3.312 1.392 1.216 0 2.32-.464 3.312-1.392.992-.944 1.488-2.256 1.488-3.936 0-1.68-.496-2.984-1.488-3.912zm17.45-2.328V24h-1.2V12.6h-8.04v9.624c0 .672-.184 1.16-.552 1.464-.352.304-.784.456-1.296.456-.752 0-1.416-.144-1.992-.432v-1.08c.608.304 1.152.456 1.632.456.352 0 .608-.072.768-.216.16-.16.24-.456.24-.888V11.52h10.44zm4.641 1.56c1.248-1.136 2.624-1.704 4.128-1.704s2.88.568 4.128 1.704c1.248 1.136 1.872 2.696 1.872 4.68 0 1.024-.184 1.96-.552 2.808-.368.832-.848 1.504-1.44 2.016a6.583 6.583 0 0 1-1.944 1.176 5.578 5.578 0 0 1-2.064.408 5.764 5.764 0 0 1-2.088-.408 6.678 6.678 0 0 1-1.92-1.176c-.592-.512-1.072-1.184-1.44-2.016-.368-.848-.552-1.784-.552-2.808 0-1.984.624-3.544 1.872-4.68zm7.44.768c-.992-.928-2.096-1.392-3.312-1.392-1.216 0-2.32.464-3.312 1.392-.992.928-1.488 2.232-1.488 3.912 0 1.68.496 2.992 1.488 3.936.992.928 2.096 1.392 3.312 1.392 1.216 0 2.32-.464 3.312-1.392.992-.944 1.488-2.256 1.488-3.936 0-1.68-.496-2.984-1.488-3.912zm13.154 3.288c.88.256 1.536.68 1.968 1.272.432.576.648 1.248.648 2.016 0 2.384-1.68 3.576-5.04 3.576h-5.4V11.52h5.4c1.344 0 2.36.28 3.048.84.704.544 1.056 1.296 1.056 2.256 0 .576-.144 1.104-.432 1.584-.272.464-.688.776-1.248.936zm-6.624-4.536v4.056h4.2c1.024 0 1.768-.16 2.232-.48.464-.32.696-.84.696-1.56 0-1.344-.976-2.016-2.928-2.016h-4.2zm4.2 10.32c2.576 0 3.864-.832 3.864-2.496 0-1.792-1.288-2.688-3.864-2.688h-4.2v5.184h4.2zm9.064-9.84c1.248-1.136 2.624-1.704 4.128-1.704s2.88.568 4.128 1.704c1.248 1.136 1.872 2.696 1.872 4.68 0 1.024-.184 1.96-.552 2.808-.368.832-.848 1.504-1.44 2.016a6.583 6.583 0 0 1-1.944 1.176 5.578 5.578 0 0 1-2.064.408 5.764 5.764 0 0 1-2.088-.408 6.678 6.678 0 0 1-1.92-1.176c-.592-.512-1.072-1.184-1.44-2.016-.368-.848-.552-1.784-.552-2.808 0-1.984.624-3.544 1.872-4.68zm7.44.768c-.992-.928-2.096-1.392-3.312-1.392-1.216 0-2.32.464-3.312 1.392-.992.928-1.488 2.232-1.488 3.912 0 1.68.496 2.992 1.488 3.936.992.928 2.096 1.392 3.312 1.392 1.216 0 2.32-.464 3.312-1.392.992-.944 1.488-2.256 1.488-3.936 0-1.68-.496-2.984-1.488-3.912zM523.815 24h-1.584l-6.024-6.072-1.512 1.512V24h-1.2V11.52h1.2v6.408l6.408-6.408h1.512l-5.64 5.64 6.84 6.84zm20.541-16.8h1.224V24h-1.224v-7.656h-9.6V24h-1.224V7.2h1.224v8.064h9.6V7.2zm7.694 0V24h-1.2V8.28h-2.16V7.2h3.36zm12.343-1.08l-8.16 21h-1.176l8.16-21h1.176zm18.535 1.08v10.536h1.8v1.08h-1.8V24h-1.2v-5.184h-8.112v-.408L582.448 7.2h.48zm-1.2 2.568l-6.216 7.968h6.216V9.768zm12.338 4.896c.944.4 1.696 1 2.256 1.8.576.784.864 1.696.864 2.736 0 1.472-.528 2.672-1.584 3.6-1.04.912-2.288 1.368-3.744 1.368-1.456 0-2.712-.456-3.768-1.368-1.04-.928-1.56-2.128-1.56-3.6 0-1.04.28-1.952.84-2.736a5.29 5.29 0 0 1 2.28-1.8 4.036 4.036 0 0 1-1.656-1.488 3.86 3.86 0 0 1-.576-2.016c0-1.136.408-2.104 1.224-2.904.816-.816 1.888-1.224 3.216-1.224 1.328 0 2.4.408 3.216 1.224.816.8 1.224 1.768 1.224 2.904 0 .704-.2 1.376-.6 2.016a3.875 3.875 0 0 1-1.632 1.488zm-5.448-3.504c0 .848.312 1.576.936 2.184.624.592 1.392.888 2.304.888.912 0 1.68-.296 2.304-.888.624-.608.936-1.336.936-2.184 0-.816-.296-1.528-.888-2.136-.592-.608-1.376-.912-2.352-.912s-1.76.304-2.352.912c-.592.608-.888 1.32-.888 2.136zm3.24 11.928c1.152 0 2.128-.352 2.928-1.056.8-.72 1.2-1.664 1.2-2.832 0-1.136-.4-2.072-1.2-2.808-.784-.736-1.76-1.104-2.928-1.104s-2.152.368-2.952 1.104c-.784.736-1.176 1.672-1.176 2.808 0 1.152.4 2.088 1.2 2.808.816.72 1.792 1.08 2.928 1.08zm20.814-11.712c.688 0 1.376.136 2.064.408.688.272 1.32.664 1.896 1.176.592.512 1.072 1.192 1.44 2.04.368.832.552 1.76.552 2.784 0 1.984-.616 3.544-1.848 4.68-1.232 1.136-2.6 1.704-4.104 1.704a5.538 5.538 0 0 1-2.832-.768c-.864-.512-1.52-1.248-1.968-2.208v7.368h-1.2V11.52h1.2v2.832c.448-.96 1.104-1.696 1.968-2.208a5.538 5.538 0 0 1 2.832-.768zm-.072 11.712c1.216 0 2.32-.464 3.312-1.392 1.008-.928 1.512-2.232 1.512-3.912 0-1.68-.504-2.984-1.512-3.912-.992-.944-2.096-1.416-3.312-1.416-1.232 0-2.336.464-3.312 1.392-.976.912-1.464 2.224-1.464 3.936 0 1.696.488 3.008 1.464 3.936.976.912 2.08 1.368 3.312 1.368zm16.097.912l-3.984-5.472L620.705 24h-1.368l4.728-6.336-4.584-6.144h1.392l3.84 5.256 3.816-5.256h1.392l-4.584 6.144L630.065 24h-1.368zm-306.46 239l-2.424-5.52h-8.016l-2.424 5.52h-1.296l7.536-16.8h.384l7.536 16.8h-1.296zm-9.96-6.6h7.056l-3.528-7.992-3.528 7.992zm19.136-6c.144 0 .408.016.792.048v1.08a10.507 10.507 0 0 0-.816-.024c-1.248.016-2.288.432-3.12 1.248-.832.8-1.36 1.96-1.584 3.48V263h-1.224v-12.48h1.224v3.744c.144-1.04.64-1.944 1.488-2.712.848-.768 1.928-1.152 3.24-1.152zm4.304-4.2v1.2h-1.224v-1.2h1.224zm0 4.32V263h-1.224v-12.48h1.224zm8.601-.144c1.008 0 1.944.256 2.808.768.88.512 1.544 1.248 1.992 2.208v-2.832h1.2V263h-1.2v-2.808c-.448.96-1.112 1.696-1.992 2.208-.864.512-1.8.768-2.808.768-1.504 0-2.872-.568-4.104-1.704-1.232-1.136-1.848-2.696-1.848-4.68 0-1.024.184-1.952.552-2.784.368-.848.84-1.528 1.416-2.04a6.678 6.678 0 0 1 1.92-1.176 5.578 5.578 0 0 1 2.064-.408zm.072 1.08c-1.216 0-2.328.472-3.336 1.416-.992.928-1.488 2.232-1.488 3.912 0 1.68.496 2.984 1.488 3.912 1.008.928 2.12 1.392 3.336 1.392 1.232 0 2.336-.456 3.312-1.368.976-.928 1.464-2.24 1.464-3.936 0-1.712-.488-3.024-1.464-3.936-.976-.928-2.08-1.392-3.312-1.392zm10.147-5.256V263h-1.224v-16.8h1.224zm23.645 9.552v.96h-13.68v-.96h13.68zm14.183-5.352c1.152 0 2.152.328 3 .984.848.64 1.272 1.384 1.272 2.232 0 1.392-.88 2.296-2.64 2.712.992.144 1.808.488 2.448 1.032.64.528.96 1.24.96 2.136 0 1.088-.496 1.976-1.488 2.664-.992.672-2.168 1.008-3.528 1.008-1.376 0-2.528-.392-3.456-1.176-.928-.784-1.392-1.768-1.392-2.952h1.2c0 .88.36 1.608 1.08 2.184.72.576 1.576.864 2.568.864 1.024 0 1.912-.232 2.664-.696.768-.464 1.152-1.096 1.152-1.896 0-.816-.408-1.456-1.224-1.92-.8-.464-1.816-.688-3.048-.672v-1.008c2.336-.048 3.504-.808 3.504-2.28 0-.608-.296-1.112-.888-1.512-.592-.416-1.32-.624-2.184-.624-.832 0-1.56.24-2.184.72-.624.48-.936 1.056-.936 1.728h-1.2c0-.96.424-1.784 1.272-2.472.848-.704 1.864-1.056 3.048-1.056zm13.031-.024c1.008 0 1.944.256 2.808.768.88.512 1.544 1.248 1.992 2.208v-2.832h1.2V263h-1.2v-2.808c-.448.96-1.112 1.696-1.992 2.208-.864.512-1.8.768-2.808.768-1.504 0-2.872-.568-4.104-1.704-1.232-1.136-1.848-2.696-1.848-4.68 0-1.024.184-1.952.552-2.784.368-.848.84-1.528 1.416-2.04a6.678 6.678 0 0 1 1.92-1.176 5.578 5.578 0 0 1 2.064-.408zm.072 1.08c-1.216 0-2.328.472-3.336 1.416-.992.928-1.488 2.232-1.488 3.912 0 1.68.496 2.984 1.488 3.912 1.008.928 2.12 1.392 3.336 1.392 1.232 0 2.336-.456 3.312-1.368.976-.928 1.464-2.24 1.464-3.936 0-1.712-.488-3.024-1.464-3.936-.976-.928-2.08-1.392-3.312-1.392zm18.355-.936v1.08h-8.112V263h-1.2v-12.48h9.312zm3.415 1.56c1.248-1.136 2.624-1.704 4.128-1.704s2.88.568 4.128 1.704c1.248 1.136 1.872 2.696 1.872 4.68 0 1.024-.184 1.96-.552 2.808-.368.832-.848 1.504-1.44 2.016a6.583 6.583 0 0 1-1.944 1.176 5.578 5.578 0 0 1-2.064.408 5.764 5.764 0 0 1-2.088-.408 6.678 6.678 0 0 1-1.92-1.176c-.592-.512-1.072-1.184-1.44-2.016-.368-.848-.552-1.784-.552-2.808 0-1.984.624-3.544 1.872-4.68zm7.44.768c-.992-.928-2.096-1.392-3.312-1.392-1.216 0-2.32.464-3.312 1.392-.992.928-1.488 2.232-1.488 3.912 0 1.68.496 2.992 1.488 3.936.992.928 2.096 1.392 3.312 1.392 1.216 0 2.32-.464 3.312-1.392.992-.944 1.488-2.256 1.488-3.936 0-1.68-.496-2.984-1.488-3.912zm17.45-2.328V263h-1.2v-11.4h-8.04v9.624c0 .672-.184 1.16-.552 1.464-.352.304-.784.456-1.296.456-.752 0-1.416-.144-1.992-.432v-1.08c.608.304 1.152.456 1.632.456.352 0 .608-.072.768-.216.16-.16.24-.456.24-.888V250.52h10.44zm4.642 1.56c1.248-1.136 2.624-1.704 4.128-1.704s2.88.568 4.128 1.704c1.248 1.136 1.872 2.696 1.872 4.68 0 1.024-.184 1.96-.552 2.808-.368.832-.848 1.504-1.44 2.016a6.583 6.583 0 0 1-1.944 1.176 5.578 5.578 0 0 1-2.064.408 5.764 5.764 0 0 1-2.088-.408 6.678 6.678 0 0 1-1.92-1.176c-.592-.512-1.072-1.184-1.44-2.016-.368-.848-.552-1.784-.552-2.808 0-1.984.624-3.544 1.872-4.68zm7.44.768c-.992-.928-2.096-1.392-3.312-1.392-1.216 0-2.32.464-3.312 1.392-.992.928-1.488 2.232-1.488 3.912 0 1.68.496 2.992 1.488 3.936.992.928 2.096 1.392 3.312 1.392 1.216 0 2.32-.464 3.312-1.392.992-.944 1.488-2.256 1.488-3.936 0-1.68-.496-2.984-1.488-3.912zm13.153 3.288c.88.256 1.536.68 1.968 1.272.432.576.648 1.248.648 2.016 0 2.384-1.68 3.576-5.04 3.576h-5.4v-12.48h5.4c1.344 0 2.36.28 3.048.84.704.544 1.056 1.296 1.056 2.256 0 .576-.144 1.104-.432 1.584-.272.464-.688.776-1.248.936zm-6.624-4.536v4.056h4.2c1.024 0 1.768-.16 2.232-.48.464-.32.696-.84.696-1.56 0-1.344-.976-2.016-2.928-2.016h-4.2zm4.2 10.32c2.576 0 3.864-.832 3.864-2.496 0-1.792-1.288-2.688-3.864-2.688h-4.2v5.184h4.2zm9.065-9.84c1.248-1.136 2.624-1.704 4.128-1.704s2.88.568 4.128 1.704c1.248 1.136 1.872 2.696 1.872 4.68 0 1.024-.184 1.96-.552 2.808-.368.832-.848 1.504-1.44 2.016a6.583 6.583 0 0 1-1.944 1.176 5.578 5.578 0 0 1-2.064.408 5.764 5.764 0 0 1-2.088-.408 6.678 6.678 0 0 1-1.92-1.176c-.592-.512-1.072-1.184-1.44-2.016-.368-.848-.552-1.784-.552-2.808 0-1.984.624-3.544 1.872-4.68zm7.44.768c-.992-.928-2.096-1.392-3.312-1.392-1.216 0-2.32.464-3.312 1.392-.992.928-1.488 2.232-1.488 3.912 0 1.68.496 2.992 1.488 3.936.992.928 2.096 1.392 3.312 1.392 1.216 0 2.32-.464 3.312-1.392.992-.944 1.488-2.256 1.488-3.936 0-1.68-.496-2.984-1.488-3.912zM507.214 263h-1.584l-6.024-6.072-1.512 1.512V263h-1.2v-12.48h1.2v6.408l6.408-6.408h1.512l-5.64 5.64 6.84 6.84zm20.54-16.8h1.224V263h-1.224v-7.656h-9.6V263h-1.224v-16.8h1.224v8.064h9.6V246.2zm9.062-.168c1.392 0 2.584.472 3.576 1.416 1.008.928 1.512 2.064 1.512 3.408 0 .512-.08 1.008-.24 1.488-.16.464-.448.992-.864 1.584-.4.576-.792 1.096-1.176 1.56-.368.448-.92 1.088-1.656 1.92l-.552.624-3.432 3.888h7.92V263h-9.936v-.432l4.416-5.088 1.104-1.248c.496-.576.824-.96.984-1.152.176-.192.432-.488.768-.888.336-.416.56-.72.672-.912.112-.208.248-.464.408-.768.16-.32.264-.6.312-.84.048-.256.072-.528.072-.816 0-1.104-.376-2-1.128-2.688-.752-.704-1.672-1.056-2.76-1.056-1.072 0-1.992.368-2.76 1.104-.752.72-1.128 1.68-1.128 2.88v.384h-1.2v-.384c0-1.456.488-2.664 1.464-3.624.992-.96 2.2-1.44 3.624-1.44zm16.577-.912l-8.16 21h-1.176l8.16-21h1.176zm14.431.912c1.392 0 2.584.472 3.576 1.416 1.008.928 1.512 2.064 1.512 3.408 0 .512-.08 1.008-.24 1.488-.16.464-.448.992-.864 1.584-.4.576-.792 1.096-1.176 1.56-.368.448-.92 1.088-1.656 1.92l-.552.624-3.432 3.888h7.92V263h-9.936v-.432l4.416-5.088 1.104-1.248c.496-.576.824-.96.984-1.152.176-.192.432-.488.768-.888.336-.416.56-.72.672-.912.112-.208.248-.464.408-.768.16-.32.264-.6.312-.84.048-.256.072-.528.072-.816 0-1.104-.376-2-1.128-2.688-.752-.704-1.672-1.056-2.76-1.056-1.072 0-1.992.368-2.76 1.104-.752.72-1.128 1.68-1.128 2.88v.384h-1.2v-.384c0-1.456.488-2.664 1.464-3.624.992-.96 2.2-1.44 3.624-1.44zm16.432.168v10.536h1.8v1.08h-1.8V263h-1.2v-5.184h-8.112v-.408l8.832-11.208h.48zm-1.2 2.568l-6.216 7.968h6.216v-7.968zm18.358 1.608c.688 0 1.376.136 2.064.408.688.272 1.32.664 1.896 1.176.592.512 1.072 1.192 1.44 2.04.368.832.552 1.76.552 2.784 0 1.984-.616 3.544-1.848 4.68-1.232 1.136-2.6 1.704-4.104 1.704a5.538 5.538 0 0 1-2.832-.768c-.864-.512-1.52-1.248-1.968-2.208v7.368h-1.2v-17.04h1.2v2.832c.448-.96 1.104-1.696 1.968-2.208a5.538 5.538 0 0 1 2.832-.768zm-.072 11.712c1.216 0 2.32-.464 3.312-1.392 1.008-.928 1.512-2.232 1.512-3.912 0-1.68-.504-2.984-1.512-3.912-.992-.944-2.096-1.416-3.312-1.416-1.232 0-2.336.464-3.312 1.392-.976.912-1.464 2.224-1.464 3.936 0 1.696.488 3.008 1.464 3.936.976.912 2.08 1.368 3.312 1.368zm16.097.912l-3.984-5.472-4.008 5.472h-1.368l4.728-6.336-4.584-6.144h1.392l3.84 5.256 3.816-5.256h1.392l-4.584 6.144 4.728 6.336h-1.368zM39.754 72.4H38.41L22.617 106h8.208l3.696-8.256h9.12L47.337 106h8.208L39.754 72.4zm-.672 14.064l2.447 4.992h-4.896l2.448-4.992zm42.991-1.872V78.64h12.672V72.4h-20.16V106h13.248c8.208 0 12.528-4.656 12.528-10.704 0-6.048-4.32-10.704-12.528-10.704h-5.76zm0 14.736v-8.112h5.568c3.312 0 5.232 1.296 5.232 4.08s-1.92 4.032-5.232 4.032h-5.568zm57.105-12c2.448-1.296 3.456-3.696 3.456-5.856 0-6.384-4.704-9.072-10.368-9.072H119.21V106h13.632c8.016 0 12.624-4.128 12.624-10.08 0-3.312-1.968-6.48-6.288-8.592zm-12.576-2.4v-6.192h5.664c1.68 0 3.072 1.008 3.072 3.072s-1.296 3.12-3.072 3.12h-5.664zm0 14.736v-8.4h7.152c3.12 0 4.416 2.352 4.416 4.272 0 1.968-1.296 4.128-4.416 4.128h-7.152zM187.663 72.4h-22.656V106h7.296V78.64h15.36V72.4zm53.712 27.36V72.4h-27.648v6.72c0 8.688 0 16.032-1.632 20.64h-5.424v9.552h7.296V106h26.16v3.312h7.296V99.76h-6.048zm-22.08 0c1.728-4.608 1.728-11.952 1.728-20.64v-.48h13.056v21.12h-14.784zm54.529-.288v-7.056h10.56v-6.528h-10.56v-6.96h15.36V72.4h-23.04V106h23.52v-6.528h-15.84zm44.34-39.6h-7.632v7.632h7.632v-7.632zm12.72 0h-7.632v7.632h7.632v-7.632zm-14.544 39.6v-7.056h10.56v-6.528h-10.56v-6.96h15.36V72.4h-23.04V106h23.52v-6.528h-15.84zm77.748-10.224L406.952 72.4h-8.688l-14.736 19.632V72.4h-7.632v19.632L361.16 72.4h-8.736l12.864 16.848L350.792 106h8.784l9.984-11.568 6.336 8.16V106h7.632v-3.408l6.288-8.16L399.8 106h8.784l-14.496-16.752zm45.509-17.184c-6.384 0-11.808 3.888-11.808 9.936l7.68.048c0-4.128 3.408-3.744 4.128-3.744.624 0 3.6 1.008 3.6 3.312 0 2.976.672 3.984-5.088 4.464v5.904c5.76.192 6.672 2.064 6.672 3.936 0 4.416-3.936 4.32-5.184 4.32-1.344 0-5.184-.288-5.184-3.936l-7.68.048c0 5.616 5.52 10.128 12.864 10.128 6.768 0 12.912-4.128 12.912-10.56 0-4.656-4.896-7.44-7.2-7.248 2.304-.432 5.52-2.928 5.52-7.056 0-5.088-5.232-9.552-11.232-9.552zm32.106.336V106h.672l18.864-17.184V106h7.488V72.4h-.576l-18.96 17.136V72.4h-7.488zm65.543-11.856c-.288 1.68-1.728 3.168-3.744 3.168-1.968 0-3.456-1.488-3.744-3.168h-5.664c.048 4.416 3.696 9.84 9.36 9.84 6.528 0 9.408-5.424 9.408-9.84h-5.616zM518.718 72.4V106h.672l18.864-17.184V106h7.488V72.4h-.576l-18.96 17.136V72.4h-7.488zm78.6 0h-8.736l-14.736 19.632V72.4h-7.536V106h7.536v-3.408l6.336-8.16L590.166 106h8.784l-14.496-16.752L597.318 72.4zm52.944 0h-29.28v25.152c0 .72-.528 2.448-2.016 2.448-1.296 0-2.208-.288-3.264-.816v6.24c1.056.528 2.64.864 4.944.864 4.272 0 7.632-1.344 7.632-8.736V78.64h14.688V106h7.296V72.4zm56.776 0h-1.824l-17.328 22.032-17.28-22.032h-1.824V106h7.488V91.216l10.992 13.776h1.296l10.944-13.824V106h7.536V72.4zm42.688 0v13.584H735.47V72.4h-7.488V106h7.488V92.416h14.256V106h7.536V72.4h-7.536zm44.686-.336c-8.256 0-16.944 7.008-16.944 17.136s8.688 17.136 16.944 17.136c8.496 0 16.944-7.008 16.944-17.136s-8.448-17.136-16.944-17.136zm.096 7.296c5.04 0 8.592 3.84 8.592 9.84 0 5.952-3.552 9.84-8.592 9.84-4.704 0-8.688-3.888-8.688-9.84 0-6 3.984-9.84 8.688-9.84zm37.114-6.96V106h7.296V78.64h14.688V106h7.296V72.4h-29.28zm50.207 0V106h7.488V93.808h5.76c8.208 0 12.576-4.656 12.576-10.704 0-6.048-4.368-10.704-12.576-10.704h-13.248zm7.488 14.784v-8.16h5.568c3.312 0 5.232 1.296 5.232 4.08s-1.92 4.08-5.232 4.08h-5.568zm-807.515 42.88c-8.353 0-16.945 7.008-16.945 17.232 0 10.032 8.593 17.04 16.945 17.04 4.56 0 8.447-1.68 11.327-4.32l-4.56-5.568c-1.632 1.296-3.791 2.592-6.576 2.592-4.992 0-8.88-4.368-8.88-9.84 0-5.376 3.888-9.84 8.88-9.84 2.785 0 4.897 1.152 6.433 2.448l4.608-5.568c-2.88-2.64-6.672-4.176-11.233-4.176zm56.964.336h-26.688v6.624h9.36V164h8.016v-26.976h9.312V130.4zm43.191 0l-8.064 14.88-8.064-14.88h-8.112l12.096 22.32-6.096 11.28h8.064l18.24-33.6h-8.064zm66.142 16.8c0-7.488-7.104-13.056-16.512-13.632V130.4h-7.296v3.168c-9.36.624-16.416 6.192-16.416 13.632 0 7.44 7.056 13.008 16.416 13.632V164h7.296v-3.168c9.408-.576 16.512-6.144 16.512-13.632zm-16.512-7.392c7.68.528 9.216 4.8 9.216 7.392 0 2.592-1.536 6.864-9.216 7.392v-14.784zm-16.416 7.392c0-2.592 1.488-6.816 9.12-7.392v14.784c-7.632-.576-9.12-4.8-9.12-7.392zm84.306 16.8l-11.664-17.04 11.328-16.56h-8.784l-6.912 10.224-7.008-10.224h-8.784l11.424 16.656L267.605 164h8.496l7.296-10.656L290.693 164h8.784zm49.316-6.24V130.4h-7.296v27.36h-14.688V130.4h-7.296V164h27.936v3.312h7.248v-9.552h-5.904zm44.887-27.36v13.296c-.96 1.44-2.544 4.368-6.192 4.368-2.352 0-5.232-.816-5.232-4.512V130.4h-7.296v13.152c0 7.776 4.512 10.752 11.088 10.752 4.272 0 7.056-2.448 7.632-3.84V164h7.296v-33.6h-7.296zm71.848 0v27.36H450.84V130.4h-7.296v27.36h-14.688V130.4h-7.296V164h51.264v-33.6h-7.296zm79.343 27.36V130.4h-7.296v27.36h-14.688V130.4h-7.296v27.36h-14.688V130.4h-7.296V164h49.968v3.312h7.248v-9.552h-5.952zm40.374-15.168V130.4h-14.736v6.24h7.248V164h13.248c8.208 0 12.576-4.656 12.576-10.704 0-6.048-4.368-10.704-12.576-10.704h-5.76zm0 14.736v-8.112h5.568c3.312 0 5.232 1.296 5.232 4.08s-1.92 4.032-5.232 4.032h-5.568zM638.386 164c8.208 0 12.528-4.656 12.528-10.704 0-6.048-4.32-10.704-12.528-10.704h-5.76V130.4h-7.488V164h13.248zm25.824-33.6h-7.68V164h7.68v-33.6zm-26.016 18.816c3.312 0 5.232 1.296 5.232 4.08s-1.92 4.032-5.232 4.032h-5.568v-8.112h5.568zM698.811 164c8.208 0 12.576-4.656 12.576-10.704 0-6.048-4.368-10.704-12.576-10.704h-5.76V130.4h-7.488V164h13.248zm-.192-14.784c3.312 0 5.232 1.296 5.232 4.08s-1.92 4.032-5.232 4.032h-5.568v-8.112h5.568zm42.184-19.152c-4.56 0-8.352 1.536-11.232 4.176l4.608 5.568c1.536-1.296 3.648-2.448 6.432-2.448 3.984 0 7.248 2.832 8.4 6.672h-4.608v6.24h4.656c-1.152 3.936-4.416 6.768-8.448 6.768-2.784 0-4.944-1.296-6.576-2.592l-4.56 5.568c2.88 2.64 6.768 4.32 11.328 4.32 8.352 0 16.944-7.008 16.944-17.04 0-10.224-8.592-17.232-16.944-17.232zm62.267 0c-7.344 0-15.072 5.568-16.656 13.968h-1.872V130.4h-7.68V164h7.68v-13.728h1.872c1.536 8.448 9.264 14.064 16.656 14.064 8.496 0 16.944-7.008 16.944-17.136s-8.448-17.136-16.944-17.136zm.096 26.976c-4.704 0-8.688-3.888-8.688-9.84 0-6 3.984-9.84 8.688-9.84 5.04 0 8.592 3.84 8.592 9.84 0 5.952-3.552 9.84-8.592 9.84zm48.298-26.64c-8.208 0-12.576 4.656-12.576 10.704 0 4.8 2.736 8.688 7.92 10.128L838.072 164h8.64l7.872-12.192h2.64V164h7.488v-33.6h-13.248zm5.76 14.784h-5.568c-3.312 0-5.232-1.296-5.232-4.08s1.92-4.08 5.232-4.08h5.568v8.16zM257.051 318l6.597-17.18h2.45l7.031 17.18h-2.59l-2.004-5.203h-7.183L259.465 318h-2.414zm4.957-7.055h5.824l-1.793-4.757c-.547-1.446-.953-2.633-1.219-3.563a21.844 21.844 0 0 1-.925 3.281l-1.887 5.039zm19.722-10.125h11.145v2.028h-8.871v5.297h4.101c1.516 0 2.719.144 3.61.433.898.289 1.617.836 2.156 1.641.539.797.809 1.726.809 2.789 0 .867-.196 1.68-.586 2.437-.383.75-.957 1.364-1.723 1.84-.766.477-2.07.715-3.914.715h-6.727v-17.18zm2.274 15.246h4.547c1.226 0 2.144-.25 2.754-.75.617-.5.925-1.25.925-2.25 0-.711-.175-1.304-.527-1.781-.351-.476-.84-.793-1.465-.949-.625-.156-1.691-.234-3.199-.234h-3.035v5.964zM303.961 318v-17.18h6.445c1.313 0 2.364.176 3.153.528a3.979 3.979 0 0 1 1.863 1.605c.453.719.68 1.473.68 2.262 0 .734-.2 1.426-.598 2.074-.399.649-1 1.172-1.805 1.57 1.039.305 1.836.825 2.391 1.559.562.734.844 1.602.844 2.602 0 .804-.172 1.554-.516 2.25-.336.687-.754 1.218-1.254 1.593s-1.129.66-1.887.856c-.75.187-1.672.281-2.765.281h-6.551zm2.273-9.961h3.715c1.008 0 1.731-.066 2.168-.199.578-.172 1.012-.457 1.301-.856.297-.398.445-.898.445-1.5 0-.57-.136-1.07-.41-1.5a2.041 2.041 0 0 0-1.172-.89c-.508-.164-1.379-.246-2.613-.246h-3.434v5.191zm0 7.934h4.278c.734 0 1.25-.028 1.547-.082.523-.094.961-.25 1.312-.469.352-.219.641-.535.867-.949.227-.422.34-.907.34-1.453 0-.641-.164-1.196-.492-1.665-.328-.476-.785-.808-1.371-.996-.578-.195-1.414-.293-2.508-.293h-3.973v5.907zm20.543-15.153h11.11v2.028h-8.836V318h-2.274v-17.18zm21.211 0h10.453v15.153h1.547v6.035h-2.027V318h-11.356v4.008h-2.027v-6.035h1.336c1.383-2.086 2.074-6.301 2.074-12.645v-2.508zm8.18 2.028h-5.988v.879c0 1.461-.133 3.461-.399 6-.258 2.531-.769 4.613-1.535 6.246h7.922v-13.125zM369.422 318v-17.18h12.422v2.028h-10.149v5.261h9.504v2.016h-9.504v5.848h10.547V318h-12.82zm22.687 0v-17.18h12.422v2.028h-10.148v5.261h9.504v2.016h-9.504v5.848h10.547V318h-12.821zm2.918-18.234v-2.403h2.203v2.403h-2.203zm4.371 0v-2.403h2.204v2.403h-2.204zm25.77 1.054v7.524c1.117 0 1.883-.203 2.297-.61.422-.414.957-1.379 1.605-2.894.477-1.125.868-1.918 1.172-2.379.313-.469.754-.859 1.324-1.172a3.77 3.77 0 0 1 1.875-.48c.743 0 1.204.007 1.383.023v1.969c-.07 0-.219-.004-.445-.012a21.72 21.72 0 0 0-.457-.012c-.727 0-1.266.176-1.617.528-.36.351-.77 1.101-1.231 2.25-.5 1.242-.933 2.09-1.301 2.543-.367.445-.898.816-1.593 1.113 1.125.312 2.215 1.336 3.269 3.07l3.539 5.719h-2.812l-2.871-4.664c-.766-1.234-1.41-2.106-1.934-2.613-.523-.508-1.258-.762-2.203-.762V318h-2.332v-8.039c-.75 0-1.414.199-1.992.598-.571.39-1.239 1.238-2.004 2.543l-.141.234-2.871 4.664h-2.824l3.539-5.719c1.078-1.742 2.172-2.765 3.281-3.07-.617-.25-1.121-.582-1.512-.996-.39-.422-.855-1.309-1.394-2.66-.492-1.227-.914-1.996-1.266-2.309-.351-.312-.875-.469-1.57-.469l-.914.024v-1.969c.086-.016.523-.023 1.312-.023.75 0 1.399.156 1.946.468.554.305.988.692 1.301 1.161.312.46.714 1.261 1.207 2.402.656 1.539 1.187 2.504 1.593 2.894.414.391 1.184.594 2.309.61v-7.524h2.332zm17.52 12.328l2.167-.562c.165.836.602 1.672 1.313 2.508.719.836 1.668 1.254 2.848 1.254 1.203 0 2.152-.309 2.847-.926.696-.617 1.043-1.363 1.043-2.238 0-.946-.367-1.696-1.101-2.25-.735-.563-1.735-.844-3-.844h-1.09v-1.981c1.047 0 1.847-.058 2.402-.175.555-.125 1.043-.434 1.465-.926.43-.5.645-1.067.645-1.699 0-.75-.293-1.403-.879-1.957-.578-.555-1.364-.832-2.356-.832-.867 0-1.609.218-2.226.656a3.3 3.3 0 0 0-1.266 1.722c-.234.711-.352 1.243-.352 1.594l-2.179-.492c.539-3.648 2.554-5.473 6.047-5.473 1.679 0 3.011.469 3.996 1.407.984.929 1.476 2.019 1.476 3.269 0 1.602-.758 2.844-2.273 3.727.875.242 1.605.738 2.191 1.488.594.742.891 1.633.891 2.672 0 1.476-.574 2.715-1.723 3.715-1.14.992-2.656 1.488-4.547 1.488-3.25 0-5.363-1.715-6.339-5.145zm22.16-12.328h2.062v13.606l9.141-13.606h2.285V318h-2.063v-13.57L467.121 318h-2.273v-17.18zm23.929 0h2.063v13.606l9.14-13.606h2.286V318h-2.063v-13.57L491.051 318h-2.274v-17.18zm8.543-4.09h1.442c-.117.977-.477 1.727-1.078 2.25-.594.524-1.387.786-2.379.786-1 0-1.801-.258-2.403-.774-.593-.523-.949-1.277-1.066-2.262h1.441c.11.532.325.93.645 1.196.328.258.766.386 1.312.386.633 0 1.11-.124 1.43-.374.328-.258.547-.661.656-1.208zm15.387 4.09h2.273v7.524c1.04 0 1.77-.199 2.192-.598.422-.406.961-1.375 1.617-2.906.477-1.125.867-1.918 1.172-2.379.312-.469.754-.859 1.324-1.172.57-.32 1.199-.48 1.887-.48.875 0 1.336.007 1.383.023v1.969c-.078 0-.231-.004-.457-.012-.25-.008-.403-.012-.457-.012-.727 0-1.266.176-1.618.528-.359.351-.769 1.101-1.23 2.25-.578 1.453-1.066 2.371-1.465 2.754a4.597 4.597 0 0 1-1.43.902c1.11.305 2.204 1.328 3.282 3.07l3.539 5.719h-2.824l-2.872-4.664c-.789-1.289-1.449-2.172-1.98-2.648-.531-.485-1.219-.727-2.063-.727V318h-2.273v-17.18zm21.891 0h10.757V318h-2.273v-15.152h-6.211v8.847c0 1.797-.086 3.114-.258 3.95-.164.835-.515 1.488-1.054 1.957-.539.46-1.223.691-2.051.691-.5 0-1.102-.094-1.805-.281l.387-2.016c.375.156.695.234.961.234.515 0 .902-.191 1.16-.574.258-.39.387-1.304.387-2.742V300.82zM555.703 318v-17.18h3.422l4.066 12.164c.375 1.133.649 1.981.821 2.543.195-.625.5-1.543.914-2.754l4.113-11.953h3.059V318h-2.192v-14.379L564.914 318h-2.051l-4.968-14.625V318h-2.192zm26.813 0v-17.18h2.273v7.055h8.93v-7.055h2.273V318h-2.273v-8.098h-8.93V318h-2.273zm23.261-8.367c0-2.852.766-5.082 2.297-6.692 1.531-1.617 3.508-2.425 5.93-2.425 1.586 0 3.016.379 4.289 1.136 1.273.758 2.242 1.817 2.906 3.176.672 1.352 1.008 2.887 1.008 4.606 0 1.742-.352 3.3-1.055 4.675s-1.699 2.418-2.988 3.129a8.578 8.578 0 0 1-4.172 1.055c-1.617 0-3.062-.391-4.336-1.172a7.542 7.542 0 0 1-2.894-3.199 9.686 9.686 0 0 1-.985-4.289zm2.344.035c0 2.07.555 3.703 1.664 4.898 1.117 1.188 2.516 1.782 4.195 1.782 1.711 0 3.118-.602 4.219-1.805 1.11-1.203 1.664-2.91 1.664-5.121 0-1.399-.238-2.617-.715-3.656-.468-1.047-1.16-1.856-2.074-2.426-.906-.578-1.926-.867-3.058-.867-1.61 0-2.996.554-4.161 1.664-1.156 1.101-1.734 2.945-1.734 5.531zm23.731-8.848h13.511V318h-2.285v-15.152h-8.953V318h-2.273v-17.18zM655.758 318v-17.18h6.48c1.141 0 2.012.055 2.614.164.843.141 1.55.411 2.121.809.57.391 1.027.941 1.371 1.652.351.711.527 1.493.527 2.344 0 1.461-.465 2.699-1.394 3.715-.93 1.008-2.61 1.512-5.039 1.512h-4.407V318h-2.273zm2.273-9.012h4.442c1.468 0 2.511-.273 3.129-.82.617-.547.925-1.316.925-2.309 0-.718-.183-1.332-.55-1.839a2.514 2.514 0 0 0-1.43-1.02c-.383-.102-1.09-.152-2.121-.152h-4.395v6.14zm-364.523 30.989l2.273.574c-.476 1.867-1.336 3.293-2.578 4.277-1.234.977-2.746 1.465-4.535 1.465-1.852 0-3.359-.375-4.523-1.125-1.157-.758-2.04-1.852-2.649-3.281-.601-1.43-.902-2.965-.902-4.606 0-1.789.34-3.347 1.019-4.676.688-1.335 1.66-2.347 2.918-3.035 1.266-.695 2.657-1.043 4.172-1.043 1.719 0 3.164.438 4.336 1.313 1.172.875 1.988 2.105 2.449 3.691l-2.238.528c-.398-1.25-.977-2.161-1.734-2.731-.758-.57-1.711-.855-2.86-.855-1.32 0-2.426.316-3.316.949-.883.633-1.504 1.484-1.863 2.555a10.189 10.189 0 0 0-.539 3.293c0 1.46.21 2.738.632 3.832.43 1.086 1.094 1.898 1.992 2.437a5.575 5.575 0 0 0 2.918.809c1.274 0 2.352-.368 3.235-1.102.883-.734 1.48-1.824 1.793-3.269zM309.645 346v-15.152h-5.661v-2.028h13.618v2.028h-5.684V346h-2.273zm15.246-17.18h2.297l5.601 10.524 4.899-10.524h2.261l-6.445 13.36c-.805 1.672-1.465 2.765-1.981 3.281-.515.516-1.253.773-2.214.773-.586 0-1.305-.136-2.157-.41v-1.945c.61.351 1.254.527 1.934.527.555 0 1.031-.176 1.43-.527.406-.359.851-1.172 1.336-2.438l-6.961-12.621zm29.882 2.063v-2.203h2.133v2.203c2.188.117 3.914.777 5.18 1.98 1.266 1.196 1.898 2.684 1.898 4.465 0 1.742-.613 3.223-1.839 4.442-1.227 1.218-2.973 1.89-5.239 2.015V346h-2.133v-2.215c-2.031-.078-3.722-.695-5.074-1.851-1.351-1.164-2.027-2.7-2.027-4.606 0-1.914.672-3.445 2.016-4.594 1.351-1.148 3.046-1.765 5.085-1.851zm2.133 1.945v9c1.469-.07 2.625-.496 3.469-1.277.844-.781 1.266-1.856 1.266-3.223 0-1.344-.414-2.406-1.243-3.187-.828-.789-1.992-1.227-3.492-1.313zm-2.133.012c-1.414.062-2.558.48-3.433 1.254-.875.773-1.313 1.851-1.313 3.234 0 1.367.43 2.442 1.289 3.223.868.781 2.02 1.203 3.457 1.265v-8.976zM371.754 346l6.644-8.953-5.859-8.227h2.707l3.117 4.407c.649.914 1.11 1.617 1.383 2.109a22.61 22.61 0 0 1 1.359-1.957l3.457-4.559h2.473L381 336.918l6.504 9.082h-2.813l-4.324-6.129a29.73 29.73 0 0 1-.75-1.148 30.168 30.168 0 0 1-.82 1.289L374.484 346h-2.73zm24.445-17.18h2.274v15.153h8.953V328.82h2.285v15.153h1.57v6.797h-2.015V346h-13.067v-17.18zM432.891 346h-2.274v-6.926c-2.039.758-3.824 1.137-5.355 1.137-1.196 0-2.25-.277-3.164-.832-.914-.563-1.528-1.274-1.84-2.133-.305-.859-.457-1.984-.457-3.375v-5.051h2.273v4.84c0 1.875.34 3.11 1.02 3.703.687.586 1.511.879 2.472.879 1.602 0 3.286-.355 5.051-1.066v-8.356h2.274V346zm10.464-17.18h2.274v15.153h5.707V328.82h2.273v15.153h5.707V328.82h2.274V346h-18.235v-17.18zm28.688 0h2.273v15.153h5.707V328.82h2.274v15.153h5.707V328.82h2.273v15.153h1.559v6.797h-2.027V346h-17.766v-17.18zm27.293 0h7.5v7.336h4.113c2.696 0 4.461.5 5.297 1.5.844 1 1.266 2.125 1.266 3.375 0 1.438-.489 2.625-1.465 3.563-.969.937-2.621 1.406-4.957 1.406h-6.528v-15.152h-5.226v-2.028zm7.5 15.246h4.16c1.43 0 2.465-.238 3.106-.714.64-.485.96-1.25.96-2.297 0-.711-.191-1.309-.574-1.793a2.47 2.47 0 0 0-1.5-.938c-.625-.14-1.664-.211-3.117-.211h-3.035v5.953zm20.156-15.246h2.274v7.336h4.101c2.688 0 4.453.496 5.297 1.489.852.992 1.277 2.117 1.277 3.375 0 1.328-.453 2.492-1.359 3.492-.906.992-2.59 1.488-5.051 1.488h-6.539v-17.18zm2.274 15.246h4.16c1.429 0 2.465-.238 3.105-.714.649-.485.973-1.254.973-2.309 0-.719-.195-1.32-.586-1.805a2.589 2.589 0 0 0-1.512-.926c-.617-.132-1.648-.199-3.094-.199h-3.046v5.953zm12.738-15.246h2.273V346h-2.273v-17.18zm12.891 0h2.273v7.336h4.102c1.914 0 3.3.223 4.16.668.859.446 1.476 1.051 1.851 1.817.375.765.563 1.554.563 2.367 0 1.328-.453 2.492-1.36 3.492-.906 1-2.593 1.5-5.062 1.5h-6.527v-17.18zm2.273 15.246h4.16c1.688 0 2.785-.296 3.293-.89.516-.602.774-1.324.774-2.168 0-.688-.188-1.27-.563-1.746a2.48 2.48 0 0 0-1.477-.938c-.617-.14-1.664-.211-3.14-.211h-3.047v5.953zm25.559-7.945v2.027h6.386c-.086 1.93-.621 3.454-1.605 4.571-.985 1.109-2.246 1.664-3.785 1.664-2.735 0-4.45-1.453-5.145-4.36l-2.191.575c.992 3.797 3.383 5.695 7.172 5.695 2.711 0 4.726-.871 6.046-2.613 1.329-1.75 1.95-3.903 1.864-6.457 0-1.563-.297-2.989-.891-4.278-.586-1.289-1.488-2.347-2.707-3.175-1.219-.829-2.672-1.243-4.359-1.243-1.782 0-3.274.442-4.477 1.325-1.195.882-2.004 2.109-2.426 3.679l2.227.586c.648-2.398 2.211-3.597 4.687-3.597 1.672 0 2.981.503 3.926 1.511.953 1.008 1.477 2.371 1.571 4.09h-6.293zm18.515-7.301h2.274v7.711h3.304c.164-2.437.965-4.379 2.403-5.824 1.437-1.453 3.218-2.18 5.343-2.18 2.243 0 4.098.789 5.567 2.368 1.476 1.578 2.215 3.718 2.215 6.421 0 2.813-.735 5.012-2.203 6.598-1.469 1.586-3.348 2.379-5.637 2.379-2.078 0-3.813-.684-5.203-2.051-1.383-1.375-2.196-3.273-2.438-5.695h-3.351V346h-2.274v-17.18zm7.863 8.672c0 2.172.5 3.86 1.5 5.063 1 1.195 2.313 1.793 3.938 1.793 1.664 0 2.992-.602 3.984-1.805.993-1.203 1.489-2.934 1.489-5.191 0-2.141-.489-3.825-1.465-5.051-.977-1.235-2.297-1.852-3.961-1.852-1.695 0-3.035.625-4.02 1.875-.976 1.242-1.465 2.965-1.465 5.168zM645.703 346v-17.18h-7.617c-1.531 0-2.695.157-3.492.469-.797.305-1.434.848-1.91 1.629a4.872 4.872 0 0 0-.715 2.59c0 1.219.394 2.246 1.183 3.082.789.836 2.008 1.367 3.657 1.594-.602.289-1.059.574-1.371.855-.665.609-1.293 1.371-1.887 2.285L630.562 346h2.86l2.273-3.574c.664-1.031 1.211-1.821 1.641-2.367.43-.547.812-.93 1.148-1.149a3.488 3.488 0 0 1 1.043-.457c.258-.055.68-.082 1.266-.082h2.637V346h2.273zm-2.273-9.598h-4.887c-1.039 0-1.852-.105-2.438-.316-.585-.219-1.031-.563-1.335-1.031a2.82 2.82 0 0 1-.458-1.547c0-.813.293-1.481.879-2.004.594-.524 1.528-.785 2.801-.785h5.438v5.683z" fill="#2B2B2A"/></svg>